<svg xmlns="http://www.w3.org/2000/svg" xmlns:xlink="http://www.w3.org/1999/xlink" width="1920" zoomAndPan="magnify" viewBox="0 0 1440 809.999993" height="1080" preserveAspectRatio="xMidYMid meet" version="1.0"><defs><clipPath id="id1"><path d="M 485.03125 161.417969 L 758.78125 161.417969 L 758.78125 414.167969 L 485.03125 414.167969 Z M 485.03125 161.417969 " clip-rule="nonzero"/></clipPath><clipPath id="id2"><path d="M 622.089844 45.066406 L 779.589844 45.066406 L 779.589844 169.566406 L 622.089844 169.566406 Z M 622.089844 45.066406 " clip-rule="nonzero"/></clipPath><clipPath id="id3"><path d="M 497.4375 45.066406 L 621.9375 45.066406 L 621.9375 169.566406 L 497.4375 169.566406 Z M 497.4375 45.066406 " clip-rule="nonzero"/></clipPath><clipPath id="id4"><path d="M 498.070312 0 L 759.820312 0 L 759.820312 45.371094 L 498.070312 45.371094 Z M 498.070312 0 " clip-rule="nonzero"/></clipPath><clipPath id="id5"><path d="M 249.496094 0 L 497.746094 0 L 497.746094 170.832031 L 249.496094 170.832031 Z M 249.496094 0 " clip-rule="nonzero"/></clipPath><clipPath id="id6"><path d="M 120 0 L 249 0 L 249 170 L 120 170 Z M 120 0 " clip-rule="nonzero"/></clipPath><clipPath id="id7"><path d="M 120.632812 169.042969 L 121.554688 -79.632812 L 248.820312 -79.160156 L 247.894531 169.515625 Z M 120.632812 169.042969 " clip-rule="nonzero"/></clipPath><clipPath id="id8"><path d="M 0 0 L 123 0 L 123 170 L 0 170 Z M 0 0 " clip-rule="nonzero"/></clipPath><clipPath id="id9"><path d="M -5.375 169.042969 L -4.453125 -79.632812 L 122.8125 -79.160156 L 121.886719 169.515625 Z M -5.375 169.042969 " clip-rule="nonzero"/></clipPath><clipPath id="id10"><path d="M 0 44.910156 L 123.347656 44.910156 L 123.347656 169.25 L 0 169.25 Z M 0 44.910156 " clip-rule="nonzero"/></clipPath><clipPath id="id11"><path d="M 246.910156 0 L 502.660156 0 L 502.660156 170.839844 L 246.910156 170.839844 Z M 246.910156 0 " clip-rule="nonzero"/></clipPath><clipPath id="id12"><path d="M 0 664.105469 L 248.707031 664.105469 L 248.707031 810 L 0 810 Z M 0 664.105469 " clip-rule="nonzero"/></clipPath><clipPath id="id13"><path d="M 248.609375 168.796875 L 497.609375 168.796875 L 497.609375 414.046875 L 248.609375 414.046875 Z M 248.609375 168.796875 " clip-rule="nonzero"/></clipPath><clipPath id="id14"><path d="M 0 168 L 124 168 L 124 418 L 0 418 Z M 0 168 " clip-rule="nonzero"/></clipPath><clipPath id="id15"><path d="M 123.457031 168.722656 L 122.53125 417.398438 L -4.734375 416.925781 L -3.808594 168.25 Z M 123.457031 168.722656 " clip-rule="nonzero"/></clipPath><clipPath id="id16"><path d="M 121 168 L 250 168 L 250 418 L 121 418 Z M 121 168 " clip-rule="nonzero"/></clipPath><clipPath id="id17"><path d="M 249.464844 168.722656 L 248.539062 417.398438 L 121.277344 416.925781 L 122.199219 168.25 Z M 249.464844 168.722656 " clip-rule="nonzero"/></clipPath><clipPath id="id18"><path d="M 120.738281 168.515625 L 249.46875 168.515625 L 249.46875 292.855469 L 120.738281 292.855469 Z M 120.738281 168.515625 " clip-rule="nonzero"/></clipPath><clipPath id="id19"><path d="M 0 534 L 250 534 L 250 669 L 0 669 Z M 0 534 " clip-rule="nonzero"/></clipPath><clipPath id="id20"><path d="M 0.769531 534.804688 L 249.769531 535.730469 L 249.277344 668.480469 L 0.277344 667.554688 Z M 0.769531 534.804688 " clip-rule="nonzero"/></clipPath><clipPath id="id21"><path d="M 12 409 L 293 409 L 293 538 L 12 538 Z M 12 409 " clip-rule="nonzero"/></clipPath><clipPath id="id22"><path d="M 13.03125 409 L 292.03125 410.039062 L 291.558594 537.539062 L 12.558594 536.5 Z M 13.03125 409 " clip-rule="nonzero"/></clipPath><clipPath id="id23"><path d="M 247.035156 412.144531 L 760.035156 412.144531 L 760.035156 810 L 247.035156 810 Z M 247.035156 412.144531 " clip-rule="nonzero"/></clipPath><clipPath id="id24"><path d="M 492 414 L 760 414 L 760 549 L 492 549 Z M 492 414 " clip-rule="nonzero"/></clipPath><clipPath id="id25"><path d="M 492.539062 414.054688 L 759.535156 415.046875 L 759.039062 548.546875 L 492.042969 547.554688 Z M 492.539062 414.054688 " clip-rule="nonzero"/></clipPath><clipPath id="id26"><path d="M 243 789 L 514 789 L 514 810 L 243 810 Z M 243 789 " clip-rule="nonzero"/></clipPath><clipPath id="id27"><path d="M 244.320312 789.4375 L 513.570312 790.4375 L 513.078125 922.4375 L 243.832031 921.4375 Z M 244.320312 789.4375 " clip-rule="nonzero"/></clipPath><clipPath id="id28"><path d="M 247.035156 670.605469 L 380.535156 670.605469 L 380.535156 791.355469 L 247.035156 791.355469 Z M 247.035156 670.605469 " clip-rule="nonzero"/></clipPath><clipPath id="id29"><path d="M 625.628906 541.292969 L 759.128906 541.292969 L 759.128906 810 L 625.628906 810 Z M 625.628906 541.292969 " clip-rule="nonzero"/></clipPath><clipPath id="id30"><path d="M 491 791 L 760 791 L 760 810 L 491 810 Z M 491 791 " clip-rule="nonzero"/></clipPath><clipPath id="id31"><path d="M 492.292969 791.359375 L 759.289062 792.351562 L 758.792969 925.851562 L 491.792969 924.859375 Z M 492.292969 791.359375 " clip-rule="nonzero"/></clipPath><clipPath id="id32"><path d="M 247 403 L 382 403 L 382 542 L 247 542 Z M 247 403 " clip-rule="nonzero"/></clipPath><clipPath id="id33"><path d="M 247.644531 403.507812 L 381.144531 404.003906 L 380.632812 541.25 L 247.132812 540.753906 Z M 247.644531 403.507812 " clip-rule="nonzero"/></clipPath><clipPath id="id34"><path d="M 381.152344 541.199219 L 623.402344 541.199219 L 623.402344 791.699219 L 381.152344 791.699219 Z M 381.152344 541.199219 " clip-rule="nonzero"/></clipPath><clipPath id="id35"><path d="M 489.828125 413.839844 L 759.078125 413.839844 L 759.078125 542.089844 L 489.828125 542.089844 Z M 489.828125 413.839844 " clip-rule="nonzero"/></clipPath><clipPath id="id36"><path d="M 245 541 L 381 541 L 381 670 L 245 670 Z M 245 541 " clip-rule="nonzero"/></clipPath><clipPath id="id37"><path d="M 245.789062 541.792969 L 380.789062 542.296875 L 380.316406 669.792969 L 245.316406 669.292969 Z M 245.789062 541.792969 " clip-rule="nonzero"/></clipPath><clipPath id="id38"><path d="M 243.832031 416.488281 L 380.332031 416.488281 L 380.332031 678.238281 L 243.832031 678.238281 Z M 243.832031 416.488281 " clip-rule="nonzero"/></clipPath><clipPath id="id39"><path d="M 16.34375 670.890625 L 245.09375 670.890625 L 245.09375 810 L 16.34375 810 Z M 16.34375 670.890625 " clip-rule="nonzero"/></clipPath><clipPath id="id40"><path d="M 524.570312 191.714844 L 727.070312 191.714844 L 727.070312 394.214844 L 524.570312 394.214844 Z M 524.570312 191.714844 " clip-rule="nonzero"/></clipPath><clipPath id="id41"><path d="M 0 0 L 58.6875 0 L 58.6875 417.449219 L 0 417.449219 Z M 0 0 " clip-rule="nonzero"/></clipPath><clipPath id="id42"><path d="M 497.03125 173.417969 L 770.78125 173.417969 L 770.78125 426.167969 L 497.03125 426.167969 Z M 497.03125 173.417969 " clip-rule="nonzero"/></clipPath><clipPath id="id43"><path d="M 634.089844 57.066406 L 791.589844 57.066406 L 791.589844 181.566406 L 634.089844 181.566406 Z M 634.089844 57.066406 " clip-rule="nonzero"/></clipPath><clipPath id="id44"><path d="M 509.4375 57.066406 L 633.9375 57.066406 L 633.9375 181.566406 L 509.4375 181.566406 Z M 509.4375 57.066406 " clip-rule="nonzero"/></clipPath><clipPath id="id45"><path d="M 510.070312 0 L 771.820312 0 L 771.820312 57.371094 L 510.070312 57.371094 Z M 510.070312 0 " clip-rule="nonzero"/></clipPath><clipPath id="id46"><path d="M 261.496094 0 L 509.746094 0 L 509.746094 182.832031 L 261.496094 182.832031 Z M 261.496094 0 " clip-rule="nonzero"/></clipPath><clipPath id="id47"><path d="M 132 0 L 261 0 L 261 182 L 132 182 Z M 132 0 " clip-rule="nonzero"/></clipPath><clipPath id="id48"><path d="M 132.632812 181.042969 L 133.554688 -67.632812 L 260.820312 -67.160156 L 259.894531 181.515625 Z M 132.632812 181.042969 " clip-rule="nonzero"/></clipPath><clipPath id="id49"><path d="M 6 0 L 135 0 L 135 182 L 6 182 Z M 6 0 " clip-rule="nonzero"/></clipPath><clipPath id="id50"><path d="M 6.625 181.042969 L 7.546875 -67.632812 L 134.8125 -67.160156 L 133.886719 181.515625 Z M 6.625 181.042969 " clip-rule="nonzero"/></clipPath><clipPath id="id51"><path d="M 6.621094 56.910156 L 135.347656 56.910156 L 135.347656 181.25 L 6.621094 181.25 Z M 6.621094 56.910156 " clip-rule="nonzero"/></clipPath><clipPath id="id52"><path d="M 258.910156 0 L 514.660156 0 L 514.660156 182.839844 L 258.910156 182.839844 Z M 258.910156 0 " clip-rule="nonzero"/></clipPath><clipPath id="id53"><path d="M 10.957031 676.105469 L 260.707031 676.105469 L 260.707031 810 L 10.957031 810 Z M 10.957031 676.105469 " clip-rule="nonzero"/></clipPath><clipPath id="id54"><path d="M 260.609375 180.796875 L 509.609375 180.796875 L 509.609375 426.046875 L 260.609375 426.046875 Z M 260.609375 180.796875 " clip-rule="nonzero"/></clipPath><clipPath id="id55"><path d="M 7 180 L 136 180 L 136 430 L 7 430 Z M 7 180 " clip-rule="nonzero"/></clipPath><clipPath id="id56"><path d="M 135.457031 180.722656 L 134.53125 429.398438 L 7.265625 428.925781 L 8.191406 180.25 Z M 135.457031 180.722656 " clip-rule="nonzero"/></clipPath><clipPath id="id57"><path d="M 133 180 L 262 180 L 262 430 L 133 430 Z M 133 180 " clip-rule="nonzero"/></clipPath><clipPath id="id58"><path d="M 261.464844 180.722656 L 260.539062 429.398438 L 133.277344 428.925781 L 134.199219 180.25 Z M 261.464844 180.722656 " clip-rule="nonzero"/></clipPath><clipPath id="id59"><path d="M 132.738281 180.515625 L 261.46875 180.515625 L 261.46875 304.855469 L 132.738281 304.855469 Z M 132.738281 180.515625 " clip-rule="nonzero"/></clipPath><clipPath id="id60"><path d="M 12 546 L 262 546 L 262 681 L 12 681 Z M 12 546 " clip-rule="nonzero"/></clipPath><clipPath id="id61"><path d="M 12.769531 546.804688 L 261.769531 547.730469 L 261.277344 680.480469 L 12.277344 679.554688 Z M 12.769531 546.804688 " clip-rule="nonzero"/></clipPath><clipPath id="id62"><path d="M 24 421 L 305 421 L 305 550 L 24 550 Z M 24 421 " clip-rule="nonzero"/></clipPath><clipPath id="id63"><path d="M 25.03125 421 L 304.03125 422.039062 L 303.558594 549.539062 L 24.558594 548.5 Z M 25.03125 421 " clip-rule="nonzero"/></clipPath><clipPath id="id64"><path d="M 259.035156 424.144531 L 772.035156 424.144531 L 772.035156 810 L 259.035156 810 Z M 259.035156 424.144531 " clip-rule="nonzero"/></clipPath><clipPath id="id65"><path d="M 504 426 L 772 426 L 772 561 L 504 561 Z M 504 426 " clip-rule="nonzero"/></clipPath><clipPath id="id66"><path d="M 504.539062 426.054688 L 771.535156 427.046875 L 771.039062 560.546875 L 504.042969 559.554688 Z M 504.539062 426.054688 " clip-rule="nonzero"/></clipPath><clipPath id="id67"><path d="M 255 801 L 526 801 L 526 810 L 255 810 Z M 255 801 " clip-rule="nonzero"/></clipPath><clipPath id="id68"><path d="M 256.320312 801.4375 L 525.570312 802.4375 L 525.078125 934.4375 L 255.832031 933.4375 Z M 256.320312 801.4375 " clip-rule="nonzero"/></clipPath><clipPath id="id69"><path d="M 259.035156 682.605469 L 392.535156 682.605469 L 392.535156 803.355469 L 259.035156 803.355469 Z M 259.035156 682.605469 " clip-rule="nonzero"/></clipPath><clipPath id="id70"><path d="M 637.628906 553.292969 L 771.128906 553.292969 L 771.128906 810 L 637.628906 810 Z M 637.628906 553.292969 " clip-rule="nonzero"/></clipPath><clipPath id="id71"><path d="M 503 803 L 772 803 L 772 810 L 503 810 Z M 503 803 " clip-rule="nonzero"/></clipPath><clipPath id="id72"><path d="M 504.292969 803.359375 L 771.289062 804.351562 L 770.792969 937.851562 L 503.792969 936.859375 Z M 504.292969 803.359375 " clip-rule="nonzero"/></clipPath><clipPath id="id73"><path d="M 259 415 L 394 415 L 394 554 L 259 554 Z M 259 415 " clip-rule="nonzero"/></clipPath><clipPath id="id74"><path d="M 259.644531 415.507812 L 393.144531 416.003906 L 392.632812 553.25 L 259.132812 552.753906 Z M 259.644531 415.507812 " clip-rule="nonzero"/></clipPath><clipPath id="id75"><path d="M 393.152344 553.199219 L 635.402344 553.199219 L 635.402344 803.699219 L 393.152344 803.699219 Z M 393.152344 553.199219 " clip-rule="nonzero"/></clipPath><clipPath id="id76"><path d="M 501.828125 425.839844 L 771.078125 425.839844 L 771.078125 554.089844 L 501.828125 554.089844 Z M 501.828125 425.839844 " clip-rule="nonzero"/></clipPath><clipPath id="id77"><path d="M 257 553 L 393 553 L 393 682 L 257 682 Z M 257 553 " clip-rule="nonzero"/></clipPath><clipPath id="id78"><path d="M 257.789062 553.792969 L 392.789062 554.296875 L 392.316406 681.792969 L 257.316406 681.292969 Z M 257.789062 553.792969 " clip-rule="nonzero"/></clipPath><clipPath id="id79"><path d="M 255.832031 428.488281 L 392.332031 428.488281 L 392.332031 690.238281 L 255.832031 690.238281 Z M 255.832031 428.488281 " clip-rule="nonzero"/></clipPath><clipPath id="id80"><path d="M 28.34375 682.890625 L 257.09375 682.890625 L 257.09375 810 L 28.34375 810 Z M 28.34375 682.890625 " clip-rule="nonzero"/></clipPath><clipPath id="id81"><path d="M 536.570312 203.714844 L 739.070312 203.714844 L 739.070312 406.214844 L 536.570312 406.214844 Z M 536.570312 203.714844 " clip-rule="nonzero"/></clipPath><clipPath id="id82"><path d="M 0 0 L 70.6875 0 L 70.6875 429.449219 L 0 429.449219 Z M 0 0 " clip-rule="nonzero"/></clipPath><clipPath id="id83"><path d="M 791.957031 177.808594 L 1033.457031 177.808594 L 1033.457031 394.558594 L 791.957031 394.558594 Z M 791.957031 177.808594 " clip-rule="nonzero"/></clipPath><clipPath id="id84"><path d="M 791.933594 387.414062 L 926.933594 387.414062 L 926.933594 493.914062 L 791.933594 493.914062 Z M 791.933594 387.414062 " clip-rule="nonzero"/></clipPath><clipPath id="id85"><path d="M 927.03125 387.414062 L 1033.53125 387.414062 L 1033.53125 493.914062 L 927.03125 493.914062 Z M 927.03125 387.414062 " clip-rule="nonzero"/></clipPath><clipPath id="id86"><path d="M 765.21875 475.417969 L 1033.71875 475.417969 L 1033.71875 599.917969 L 765.21875 599.917969 Z M 765.21875 475.417969 " clip-rule="nonzero"/></clipPath><clipPath id="id87"><path d="M 1033.457031 386.335938 L 1246.457031 386.335938 L 1246.457031 600.085938 L 1033.457031 600.085938 Z M 1033.457031 386.335938 " clip-rule="nonzero"/></clipPath><clipPath id="id88"><path d="M 1244 386 L 1356 386 L 1356 603 L 1244 603 Z M 1244 386 " clip-rule="nonzero"/></clipPath><clipPath id="id89"><path d="M 1355.550781 387.097656 L 1354.75 602.34375 L 1244.503906 601.933594 L 1245.300781 386.6875 Z M 1355.550781 387.097656 " clip-rule="nonzero"/></clipPath><clipPath id="id90"><path d="M 1353 386 L 1440 386 L 1440 603 L 1353 603 Z M 1353 386 " clip-rule="nonzero"/></clipPath><clipPath id="id91"><path d="M 1464.609375 387.097656 L 1463.808594 602.34375 L 1353.558594 601.933594 L 1354.359375 386.6875 Z M 1464.609375 387.097656 " clip-rule="nonzero"/></clipPath><clipPath id="id92"><path d="M 1352.855469 386.515625 L 1440 386.515625 L 1440 494.515625 L 1352.855469 494.515625 Z M 1352.855469 386.515625 " clip-rule="nonzero"/></clipPath><clipPath id="id93"><path d="M 925 596 L 1033 596 L 1033 707 L 925 707 Z M 925 596 " clip-rule="nonzero"/></clipPath><clipPath id="id94"><path d="M 1032.199219 597.351562 L 1031.792969 706.851562 L 925.292969 706.453125 L 925.703125 596.957031 Z M 1032.199219 597.351562 " clip-rule="nonzero"/></clipPath><clipPath id="id95"><path d="M 925 703 L 1033 703 L 1033 810 L 925 810 Z M 925 703 " clip-rule="nonzero"/></clipPath><clipPath id="id96"><path d="M 1032.203125 703.71875 L 1031.808594 810.21875 L 925.308594 809.824219 L 925.707031 703.324219 Z M 1032.203125 703.71875 " clip-rule="nonzero"/></clipPath><clipPath id="id97"><path d="M 764 596 L 927 596 L 927 810 L 764 810 Z M 764 596 " clip-rule="nonzero"/></clipPath><clipPath id="id98"><path d="M 926.886719 596.949219 L 926.09375 809.949219 L 764.097656 809.347656 L 764.886719 596.347656 Z M 926.886719 596.949219 " clip-rule="nonzero"/></clipPath><clipPath id="id99"><path d="M 1030.5 598.917969 L 1440 598.917969 L 1440 810 L 1030.5 810 Z M 1030.5 598.917969 " clip-rule="nonzero"/></clipPath><clipPath id="id100"><path d="M 1028 596 L 1143 596 L 1143 810 L 1028 810 Z M 1028 596 " clip-rule="nonzero"/></clipPath><clipPath id="id101"><path d="M 1142.929688 596.59375 L 1142.070312 827.59375 L 1028.820312 827.171875 L 1029.679688 596.175781 Z M 1142.929688 596.59375 " clip-rule="nonzero"/></clipPath><clipPath id="id102"><path d="M 1142.929688 598.386719 L 1246.429688 598.386719 L 1246.429688 712.386719 L 1142.929688 712.386719 Z M 1142.929688 598.386719 " clip-rule="nonzero"/></clipPath><clipPath id="id103"><path d="M 1355 597 L 1440 597 L 1440 714 L 1355 714 Z M 1355 597 " clip-rule="nonzero"/></clipPath><clipPath id="id104"><path d="M 1464.796875 598.230469 L 1464.367188 713.730469 L 1355.621094 713.324219 L 1356.046875 597.824219 Z M 1464.796875 598.230469 " clip-rule="nonzero"/></clipPath><clipPath id="id105"><path d="M 1031.84375 285.027344 L 1206.59375 285.027344 L 1206.59375 495.027344 L 1031.84375 495.027344 Z M 1031.84375 285.027344 " clip-rule="nonzero"/></clipPath><clipPath id="id106"><path d="M 1245 597 L 1356 597 L 1356 714 L 1245 714 Z M 1245 597 " clip-rule="nonzero"/></clipPath><clipPath id="id107"><path d="M 1355.148438 597.847656 L 1354.71875 713.347656 L 1245.96875 712.941406 L 1246.398438 597.445312 Z M 1355.148438 597.847656 " clip-rule="nonzero"/></clipPath><clipPath id="id108"><path d="M 1244.136719 596.171875 L 1440 596.171875 L 1440 713.171875 L 1244.136719 713.171875 Z M 1244.136719 596.171875 " clip-rule="nonzero"/></clipPath><clipPath id="id109"><path d="M 1053.574219 673.203125 L 1270.324219 673.203125 L 1270.324219 810 L 1053.574219 810 Z M 1053.574219 673.203125 " clip-rule="nonzero"/></clipPath><clipPath id="id110"><path d="M 1243 72 L 1346 72 L 1346 273 L 1243 273 Z M 1243 72 " clip-rule="nonzero"/></clipPath><clipPath id="id111"><path d="M 1345.128906 272.527344 L 1243.878906 272.148438 L 1244.621094 72.652344 L 1345.871094 73.027344 Z M 1345.128906 272.527344 " clip-rule="nonzero"/></clipPath><clipPath id="id112"><path d="M 1030.515625 175.304688 L 1250.265625 175.304688 L 1250.265625 387.550781 L 1030.515625 387.550781 Z M 1030.515625 175.304688 " clip-rule="nonzero"/></clipPath><clipPath id="id113"><path d="M 1344 172 L 1440 172 L 1440 389 L 1344 389 Z M 1344 172 " clip-rule="nonzero"/></clipPath><clipPath id="id114"><path d="M 1344.683594 387.914062 L 1345.484375 172.667969 L 1459.484375 173.089844 L 1458.683594 388.339844 Z M 1344.683594 387.914062 " clip-rule="nonzero"/></clipPath><clipPath id="id115"><path d="M 1244.136719 288.878906 L 1356.636719 288.878906 L 1356.636719 390.128906 L 1244.136719 390.128906 Z M 1244.136719 288.878906 " clip-rule="nonzero"/></clipPath><clipPath id="id116"><path d="M 1247 0 L 1440 0 L 1440 74 L 1247 74 Z M 1247 0 " clip-rule="nonzero"/></clipPath><clipPath id="id117"><path d="M 1460.917969 73.179688 L 1247.167969 72.382812 L 1247.566406 -34.863281 L 1461.316406 -34.070312 Z M 1460.917969 73.179688 " clip-rule="nonzero"/></clipPath><clipPath id="id118"><path d="M 1346.414062 71.527344 L 1440 71.527344 L 1440 173.527344 L 1346.414062 173.527344 Z M 1346.414062 71.527344 " clip-rule="nonzero"/></clipPath><clipPath id="id119"><path d="M 1135.734375 0 L 1251.234375 0 L 1251.234375 103.890625 L 1135.734375 103.890625 Z M 1135.734375 0 " clip-rule="nonzero"/></clipPath><clipPath id="id120"><path d="M 778 62 L 1039 62 L 1039 183 L 778 183 Z M 778 62 " clip-rule="nonzero"/></clipPath><clipPath id="id121"><path d="M 1037.914062 182.230469 L 778.414062 181.265625 L 778.855469 62.769531 L 1038.351562 63.730469 Z M 1037.914062 182.230469 " clip-rule="nonzero"/></clipPath><clipPath id="id122"><path d="M 759.628906 0 L 923.878906 0 L 923.878906 69.03125 L 759.628906 69.03125 Z M 759.628906 0 " clip-rule="nonzero"/></clipPath><clipPath id="id123"><path d="M 925.472656 0 L 1135.472656 0 L 1135.472656 68.785156 L 925.472656 68.785156 Z M 925.472656 0 " clip-rule="nonzero"/></clipPath><clipPath id="id124"><path d="M 764.328125 67.019531 L 1038.828125 67.019531 L 1038.828125 182.519531 L 764.328125 182.519531 Z M 764.328125 67.019531 " clip-rule="nonzero"/></clipPath><clipPath id="id125"><path d="M 1135 56 L 1252 56 L 1252 177 L 1135 177 Z M 1135 56 " clip-rule="nonzero"/></clipPath><clipPath id="id126"><path d="M 1250.605469 176.570312 L 1135.109375 176.140625 L 1135.554688 56.140625 L 1251.054688 56.570312 Z M 1250.605469 176.570312 " clip-rule="nonzero"/></clipPath><clipPath id="id127"><path d="M 1038.660156 0 L 1142.160156 0 L 1142.160156 68.957031 L 1038.660156 68.957031 Z M 1038.660156 0 " clip-rule="nonzero"/></clipPath><clipPath id="id128"><path d="M 837.21875 194.910156 L 1010.46875 194.910156 L 1010.46875 368.160156 L 837.21875 368.160156 Z M 837.21875 194.910156 " clip-rule="nonzero"/></clipPath><clipPath id="id129"><path d="M 1041.019531 97.484375 L 1250.269531 97.484375 L 1250.269531 248.234375 L 1041.019531 248.234375 Z M 1041.019531 97.484375 " clip-rule="nonzero"/></clipPath><clipPath id="id130"><path d="M 1098.175781 387.175781 L 1206.925781 387.175781 L 1206.925781 494.425781 L 1098.175781 494.425781 Z M 1098.175781 387.175781 " clip-rule="nonzero"/></clipPath><clipPath id="id131"><path d="M 1029.839844 0 L 1096.589844 0 L 1096.589844 65.105469 L 1029.839844 65.105469 Z M 1029.839844 0 " clip-rule="nonzero"/></clipPath><clipPath id="id132"><path d="M 1096.652344 0 L 1163.402344 0 L 1163.402344 65.105469 L 1096.652344 65.105469 Z M 1096.652344 0 " clip-rule="nonzero"/></clipPath><clipPath id="id133"><path d="M 1161.609375 131.136719 L 1436.109375 131.136719 L 1436.109375 403.386719 L 1161.609375 403.386719 Z M 1161.609375 131.136719 " clip-rule="nonzero"/></clipPath><clipPath id="id134"><path d="M 1029.839844 65.171875 L 1163.339844 65.171875 L 1163.339844 131.921875 L 1029.839844 131.921875 Z M 1029.839844 65.171875 " clip-rule="nonzero"/></clipPath><clipPath id="id135"><path d="M 1163.46875 0 L 1296.96875 0 L 1296.96875 131.929688 L 1163.46875 131.929688 Z M 1163.46875 0 " clip-rule="nonzero"/></clipPath><clipPath id="id136"><path d="M 1296 0 L 1367 0 L 1367 133 L 1296 133 Z M 1296 0 " clip-rule="nonzero"/></clipPath><clipPath id="id137"><path d="M 1366.347656 -1.359375 L 1365.847656 132.140625 L 1296.851562 131.886719 L 1297.347656 -1.613281 Z M 1366.347656 -1.359375 " clip-rule="nonzero"/></clipPath><clipPath id="id138"><path d="M 1364 0 L 1435 0 L 1435 133 L 1364 133 Z M 1364 0 " clip-rule="nonzero"/></clipPath><clipPath id="id139"><path d="M 1434.136719 -1.359375 L 1433.636719 132.140625 L 1364.640625 131.886719 L 1365.136719 -1.613281 Z M 1434.136719 -1.359375 " clip-rule="nonzero"/></clipPath><clipPath id="id140"><path d="M 1365.128906 0 L 1434.128906 0 L 1434.128906 65.410156 L 1365.128906 65.410156 Z M 1365.128906 0 " clip-rule="nonzero"/></clipPath><clipPath id="id141"><path d="M 1095 129 L 1163 129 L 1163 197 L 1095 197 Z M 1095 129 " clip-rule="nonzero"/></clipPath><clipPath id="id142"><path d="M 1162.679688 130.152344 L 1162.429688 196.902344 L 1095.683594 196.652344 L 1095.929688 129.902344 Z M 1162.679688 130.152344 " clip-rule="nonzero"/></clipPath><clipPath id="id143"><path d="M 1095 196 L 1163 196 L 1163 264 L 1095 264 Z M 1095 196 " clip-rule="nonzero"/></clipPath><clipPath id="id144"><path d="M 1162.679688 196.929688 L 1162.429688 263.679688 L 1095.683594 263.429688 L 1095.929688 196.683594 Z M 1162.679688 196.929688 " clip-rule="nonzero"/></clipPath><clipPath id="id145"><path d="M 1029 129 L 1097 129 L 1097 264 L 1029 264 Z M 1029 129 " clip-rule="nonzero"/></clipPath><clipPath id="id146"><path d="M 1096.5625 129.902344 L 1096.066406 263.402344 L 1029.316406 263.152344 L 1029.8125 129.65625 Z M 1096.5625 129.902344 " clip-rule="nonzero"/></clipPath><clipPath id="id147"><path d="M 1160 130 L 1233 130 L 1233 275 L 1160 275 Z M 1160 130 " clip-rule="nonzero"/></clipPath><clipPath id="id148"><path d="M 1232.191406 131.070312 L 1231.660156 274.320312 L 1160.410156 274.054688 L 1160.941406 130.804688 Z M 1232.191406 131.070312 " clip-rule="nonzero"/></clipPath><clipPath id="id149"><path d="M 1232.191406 130.804688 L 1297.441406 130.804688 L 1297.441406 202.804688 L 1232.191406 202.804688 Z M 1232.191406 130.804688 " clip-rule="nonzero"/></clipPath><clipPath id="id150"><path d="M 1365 130 L 1435 130 L 1435 204 L 1365 204 Z M 1365 130 " clip-rule="nonzero"/></clipPath><clipPath id="id151"><path d="M 1434.25 130.710938 L 1433.980469 203.460938 L 1365.730469 203.207031 L 1366 130.457031 Z M 1434.25 130.710938 " clip-rule="nonzero"/></clipPath><clipPath id="id152"><path d="M 1230.976562 203.269531 L 1365.976562 203.269531 L 1365.976562 334.519531 L 1230.976562 334.519531 Z M 1230.976562 203.269531 " clip-rule="nonzero"/></clipPath><clipPath id="id153"><path d="M 1296 130 L 1366 130 L 1366 204 L 1296 204 Z M 1296 130 " clip-rule="nonzero"/></clipPath><clipPath id="id154"><path d="M 1365.414062 130.46875 L 1365.144531 203.21875 L 1296.894531 202.964844 L 1297.164062 130.214844 Z M 1365.414062 130.46875 " clip-rule="nonzero"/></clipPath><clipPath id="id155"><path d="M 1296.722656 129.414062 L 1433.972656 129.414062 L 1433.972656 202.914062 L 1296.722656 202.914062 Z M 1296.722656 129.414062 " clip-rule="nonzero"/></clipPath><clipPath id="id156"><path d="M 1162.679688 0 L 1298.429688 0 L 1298.429688 131.105469 L 1162.679688 131.105469 Z M 1162.679688 0 " clip-rule="nonzero"/></clipPath></defs><rect x="-144" width="1728" fill="#ffffff" y="-80.999999" height="971.999992" fill-opacity="1"/><rect x="-144" width="1728" fill="#ffffff" y="-80.999999" height="971.999992" fill-opacity="1"/><rect x="-144" width="1728" fill="#ffffff" y="-80.999999" height="971.999992" fill-opacity="1"/><g clip-path="url(#id1)"><path fill="#302b2b" d="M 485.03125 414.167969 L 485.03125 161.417969 L 758.78125 161.417969 L 758.78125 414.167969 L 485.03125 414.167969 " fill-opacity="1" fill-rule="nonzero"/></g><g clip-path="url(#id2)"><path fill="#ff4848" d="M 779.589844 169.566406 L 622.089844 169.566406 L 622.089844 45.066406 L 779.589844 45.066406 L 779.589844 169.566406 " fill-opacity="1" fill-rule="nonzero"/></g><g clip-path="url(#id3)"><path fill="#302b2b" d="M 621.9375 169.566406 L 497.4375 169.566406 L 497.4375 45.066406 L 621.9375 45.066406 L 621.9375 169.566406 " fill-opacity="1" fill-rule="nonzero"/></g><g clip-path="url(#id4)"><path fill="#7dced1" d="M 759.816406 45.371094 L 498.078125 45.371094 L 498.078125 -79.128906 L 759.816406 -79.128906 L 759.816406 45.371094 " fill-opacity="1" fill-rule="nonzero"/></g><g clip-path="url(#id5)"><path fill="#ff4848" d="M 497.746094 170.828125 L 249.496094 170.828125 L 249.496094 -78.914062 L 497.746094 -78.914062 L 497.746094 170.828125 " fill-opacity="1" fill-rule="nonzero"/></g><g clip-path="url(#id6)"><g clip-path="url(#id7)"><path fill="#7dced1" d="M 120.632812 169.023438 L 121.554688 -79.613281 L 248.820312 -79.140625 L 247.894531 169.496094 L 120.632812 169.023438 " fill-opacity="1" fill-rule="nonzero"/></g></g><g clip-path="url(#id8)"><g clip-path="url(#id9)"><path fill="#302b2b" d="M -5.375 169.023438 L -4.453125 -79.613281 L 122.8125 -79.140625 L 121.886719 169.496094 L -5.375 169.023438 " fill-opacity="1" fill-rule="nonzero"/></g></g><g clip-path="url(#id10)"><path fill="#ff4848" d="M 123.347656 169.25 L -5.378906 169.25 L -5.378906 44.914062 L 123.347656 169.25 " fill-opacity="1" fill-rule="nonzero"/></g><g clip-path="url(#id11)"><path fill="#302b2b" d="M 246.910156 -75.910156 L 502.660156 -75.910156 L 502.660156 170.839844 L 246.910156 -75.910156 " fill-opacity="1" fill-rule="nonzero"/></g><g clip-path="url(#id12)"><path fill="#ff4848" d="M -1.039062 922.105469 L -1.039062 664.105469 L 248.707031 664.105469 L 248.707031 922.105469 L -1.039062 922.105469 " fill-opacity="1" fill-rule="nonzero"/></g><g clip-path="url(#id13)"><path fill="#ff4848" d="M 248.609375 414.046875 L 248.609375 168.800781 L 497.609375 168.800781 L 497.609375 414.046875 L 248.609375 414.046875 " fill-opacity="1" fill-rule="nonzero"/></g><g clip-path="url(#id14)"><g clip-path="url(#id15)"><path fill="#7dced1" d="M 123.457031 168.742188 L 122.53125 417.378906 L -4.734375 416.90625 L -3.808594 168.269531 L 123.457031 168.742188 " fill-opacity="1" fill-rule="nonzero"/></g></g><g clip-path="url(#id16)"><g clip-path="url(#id17)"><path fill="#302b2b" d="M 249.464844 168.742188 L 248.539062 417.378906 L 121.277344 416.90625 L 122.199219 168.269531 L 249.464844 168.742188 " fill-opacity="1" fill-rule="nonzero"/></g></g><g clip-path="url(#id18)"><path fill="#ff4848" d="M 120.738281 168.515625 L 249.46875 168.515625 L 249.46875 292.851562 L 120.738281 168.515625 " fill-opacity="1" fill-rule="nonzero"/></g><g clip-path="url(#id19)"><g clip-path="url(#id20)"><path fill="#7dced1" d="M 0.769531 534.804688 L 249.769531 535.730469 L 249.277344 668.476562 L 0.277344 667.550781 L 0.769531 534.804688 " fill-opacity="1" fill-rule="nonzero"/></g></g><g clip-path="url(#id21)"><g clip-path="url(#id22)"><path fill="#302b2b" d="M 13.039062 409.003906 L 292.023438 410.039062 L 291.550781 537.539062 L 12.566406 536.5 L 13.039062 409.003906 " fill-opacity="1" fill-rule="nonzero"/></g></g><g clip-path="url(#id23)"><path fill="#7dced1" d="M 247.035156 920.644531 L 247.035156 412.144531 L 760.035156 412.144531 L 760.035156 920.644531 L 247.035156 920.644531 " fill-opacity="1" fill-rule="nonzero"/></g><g clip-path="url(#id24)"><g clip-path="url(#id25)"><path fill="#ff4848" d="M 492.542969 414.054688 L 759.53125 415.046875 L 759.035156 548.546875 L 492.046875 547.554688 L 492.542969 414.054688 " fill-opacity="1" fill-rule="nonzero"/></g></g><g clip-path="url(#id26)"><g clip-path="url(#id27)"><path fill="#302b2b" d="M 244.320312 789.4375 L 513.570312 790.441406 L 513.078125 922.4375 L 243.832031 921.433594 L 244.320312 789.4375 " fill-opacity="1" fill-rule="nonzero"/></g></g><g clip-path="url(#id28)"><path fill="#ff4848" d="M 247.035156 791.355469 L 247.035156 670.605469 L 380.53125 670.605469 L 380.53125 791.355469 L 247.035156 791.355469 " fill-opacity="1" fill-rule="nonzero"/></g><g clip-path="url(#id29)"><path fill="#302b2b" d="M 625.628906 815.035156 L 625.628906 541.300781 L 759.128906 541.300781 L 759.128906 815.035156 L 625.628906 815.035156 " fill-opacity="1" fill-rule="nonzero"/></g><g clip-path="url(#id30)"><g clip-path="url(#id31)"><path fill="#7dced1" d="M 492.296875 791.359375 L 759.285156 792.351562 L 758.789062 925.851562 L 491.800781 924.859375 L 492.296875 791.359375 " fill-opacity="1" fill-rule="nonzero"/></g></g><g clip-path="url(#id32)"><g clip-path="url(#id33)"><path fill="#ff4848" d="M 247.644531 403.507812 L 381.144531 404.003906 L 380.632812 541.25 L 247.132812 540.753906 L 247.644531 403.507812 " fill-opacity="1" fill-rule="nonzero"/></g></g><g clip-path="url(#id34)"><path fill="#ffffff" d="M 381.152344 791.699219 L 381.152344 541.199219 L 623.402344 541.199219 L 623.402344 791.699219 L 381.152344 791.699219 " fill-opacity="1" fill-rule="nonzero"/></g><g clip-path="url(#id35)"><path fill="#7dced1" d="M 489.835938 542.089844 L 489.835938 413.839844 L 759.070312 413.839844 L 489.835938 542.089844 " fill-opacity="1" fill-rule="nonzero"/></g><g clip-path="url(#id36)"><g clip-path="url(#id37)"><path fill="#ffffff" d="M 245.789062 541.792969 L 380.789062 542.296875 L 380.316406 669.792969 L 245.316406 669.292969 L 245.789062 541.792969 " fill-opacity="1" fill-rule="nonzero"/></g></g><g clip-path="url(#id38)"><path fill="#302b2b" d="M 380.332031 416.492188 L 380.332031 678.230469 L 243.832031 678.230469 L 380.332031 416.492188 " fill-opacity="1" fill-rule="nonzero"/></g><g clip-path="url(#id39)"><path fill="#ffffff" d="M 245.09375 670.894531 L 245.09375 920.636719 L 16.34375 920.636719 L 245.09375 670.894531 " fill-opacity="1" fill-rule="nonzero"/></g><g clip-path="url(#id40)"><path fill="#ffffff" d="M 524.570312 292.964844 C 524.570312 348.882812 569.902344 394.214844 625.820312 394.214844 C 681.738281 394.214844 727.070312 348.882812 727.070312 292.964844 C 727.070312 237.046875 681.738281 191.714844 625.820312 191.714844 C 569.902344 191.714844 524.570312 237.046875 524.570312 292.964844 " fill-opacity="1" fill-rule="nonzero"/></g><g clip-path="url(#id41)"><path fill="#ffffff" d="M -430.308594 158.699219 C -430.308594 301.601562 -320.84375 417.449219 -185.8125 417.449219 C -50.777344 417.449219 58.6875 301.601562 58.6875 158.699219 C 58.6875 15.796875 -50.777344 -100.050781 -185.8125 -100.050781 C -320.84375 -100.050781 -430.308594 15.796875 -430.308594 158.699219 " fill-opacity="1" fill-rule="nonzero"/></g><g clip-path="url(#id42)"><path fill="#302b2b" d="M 497.03125 426.167969 L 497.03125 173.417969 L 770.78125 173.417969 L 770.78125 426.167969 L 497.03125 426.167969 " fill-opacity="1" fill-rule="nonzero"/></g><g clip-path="url(#id43)"><path fill="#ff4848" d="M 791.589844 181.566406 L 634.089844 181.566406 L 634.089844 57.066406 L 791.589844 57.066406 L 791.589844 181.566406 " fill-opacity="1" fill-rule="nonzero"/></g><g clip-path="url(#id44)"><path fill="#302b2b" d="M 633.9375 181.566406 L 509.4375 181.566406 L 509.4375 57.066406 L 633.9375 57.066406 L 633.9375 181.566406 " fill-opacity="1" fill-rule="nonzero"/></g><g clip-path="url(#id45)"><path fill="#7dced1" d="M 771.816406 57.371094 L 510.078125 57.371094 L 510.078125 -67.128906 L 771.816406 -67.128906 L 771.816406 57.371094 " fill-opacity="1" fill-rule="nonzero"/></g><g clip-path="url(#id46)"><path fill="#ff4848" d="M 509.746094 182.828125 L 261.496094 182.828125 L 261.496094 -66.914062 L 509.746094 -66.914062 L 509.746094 182.828125 " fill-opacity="1" fill-rule="nonzero"/></g><g clip-path="url(#id47)"><g clip-path="url(#id48)"><path fill="#7dced1" d="M 132.632812 181.023438 L 133.554688 -67.613281 L 260.820312 -67.140625 L 259.894531 181.496094 L 132.632812 181.023438 " fill-opacity="1" fill-rule="nonzero"/></g></g><g clip-path="url(#id49)"><g clip-path="url(#id50)"><path fill="#302b2b" d="M 6.625 181.023438 L 7.546875 -67.613281 L 134.8125 -67.140625 L 133.886719 181.496094 L 6.625 181.023438 " fill-opacity="1" fill-rule="nonzero"/></g></g><g clip-path="url(#id51)"><path fill="#ff4848" d="M 135.347656 181.25 L 6.621094 181.25 L 6.621094 56.914062 L 135.347656 181.25 " fill-opacity="1" fill-rule="nonzero"/></g><g clip-path="url(#id52)"><path fill="#302b2b" d="M 258.910156 -63.910156 L 514.660156 -63.910156 L 514.660156 182.839844 L 258.910156 -63.910156 " fill-opacity="1" fill-rule="nonzero"/></g><g clip-path="url(#id53)"><path fill="#ff4848" d="M 10.960938 934.105469 L 10.960938 676.105469 L 260.707031 676.105469 L 260.707031 934.105469 L 10.960938 934.105469 " fill-opacity="1" fill-rule="nonzero"/></g><g clip-path="url(#id54)"><path fill="#ff4848" d="M 260.609375 426.046875 L 260.609375 180.800781 L 509.609375 180.800781 L 509.609375 426.046875 L 260.609375 426.046875 " fill-opacity="1" fill-rule="nonzero"/></g><g clip-path="url(#id55)"><g clip-path="url(#id56)"><path fill="#7dced1" d="M 135.457031 180.742188 L 134.53125 429.378906 L 7.265625 428.90625 L 8.191406 180.269531 L 135.457031 180.742188 " fill-opacity="1" fill-rule="nonzero"/></g></g><g clip-path="url(#id57)"><g clip-path="url(#id58)"><path fill="#302b2b" d="M 261.464844 180.742188 L 260.539062 429.378906 L 133.277344 428.90625 L 134.199219 180.269531 L 261.464844 180.742188 " fill-opacity="1" fill-rule="nonzero"/></g></g><g clip-path="url(#id59)"><path fill="#ff4848" d="M 132.738281 180.515625 L 261.46875 180.515625 L 261.46875 304.851562 L 132.738281 180.515625 " fill-opacity="1" fill-rule="nonzero"/></g><g clip-path="url(#id60)"><g clip-path="url(#id61)"><path fill="#7dced1" d="M 12.769531 546.804688 L 261.769531 547.730469 L 261.277344 680.476562 L 12.277344 679.550781 L 12.769531 546.804688 " fill-opacity="1" fill-rule="nonzero"/></g></g><g clip-path="url(#id62)"><g clip-path="url(#id63)"><path fill="#302b2b" d="M 25.039062 421.003906 L 304.023438 422.039062 L 303.550781 549.539062 L 24.566406 548.5 L 25.039062 421.003906 " fill-opacity="1" fill-rule="nonzero"/></g></g><g clip-path="url(#id64)"><path fill="#7dced1" d="M 259.035156 932.644531 L 259.035156 424.144531 L 772.035156 424.144531 L 772.035156 932.644531 L 259.035156 932.644531 " fill-opacity="1" fill-rule="nonzero"/></g><g clip-path="url(#id65)"><g clip-path="url(#id66)"><path fill="#ff4848" d="M 504.542969 426.054688 L 771.53125 427.046875 L 771.035156 560.546875 L 504.046875 559.554688 L 504.542969 426.054688 " fill-opacity="1" fill-rule="nonzero"/></g></g><g clip-path="url(#id67)"><g clip-path="url(#id68)"><path fill="#302b2b" d="M 256.320312 801.4375 L 525.570312 802.441406 L 525.078125 934.4375 L 255.832031 933.433594 L 256.320312 801.4375 " fill-opacity="1" fill-rule="nonzero"/></g></g><g clip-path="url(#id69)"><path fill="#ff4848" d="M 259.035156 803.355469 L 259.035156 682.605469 L 392.53125 682.605469 L 392.53125 803.355469 L 259.035156 803.355469 " fill-opacity="1" fill-rule="nonzero"/></g><g clip-path="url(#id70)"><path fill="#302b2b" d="M 637.628906 827.035156 L 637.628906 553.300781 L 771.128906 553.300781 L 771.128906 827.035156 L 637.628906 827.035156 " fill-opacity="1" fill-rule="nonzero"/></g><g clip-path="url(#id71)"><g clip-path="url(#id72)"><path fill="#7dced1" d="M 504.296875 803.359375 L 771.285156 804.351562 L 770.789062 937.851562 L 503.800781 936.859375 L 504.296875 803.359375 " fill-opacity="1" fill-rule="nonzero"/></g></g><g clip-path="url(#id73)"><g clip-path="url(#id74)"><path fill="#ff4848" d="M 259.644531 415.507812 L 393.144531 416.003906 L 392.632812 553.25 L 259.132812 552.753906 L 259.644531 415.507812 " fill-opacity="1" fill-rule="nonzero"/></g></g><g clip-path="url(#id75)"><path fill="#ffffff" d="M 393.152344 803.699219 L 393.152344 553.199219 L 635.402344 553.199219 L 635.402344 803.699219 L 393.152344 803.699219 " fill-opacity="1" fill-rule="nonzero"/></g><g clip-path="url(#id76)"><path fill="#7dced1" d="M 501.835938 554.089844 L 501.835938 425.839844 L 771.070312 425.839844 L 501.835938 554.089844 " fill-opacity="1" fill-rule="nonzero"/></g><g clip-path="url(#id77)"><g clip-path="url(#id78)"><path fill="#ffffff" d="M 257.789062 553.792969 L 392.789062 554.296875 L 392.316406 681.792969 L 257.316406 681.292969 L 257.789062 553.792969 " fill-opacity="1" fill-rule="nonzero"/></g></g><g clip-path="url(#id79)"><path fill="#302b2b" d="M 392.332031 428.492188 L 392.332031 690.230469 L 255.832031 690.230469 L 392.332031 428.492188 " fill-opacity="1" fill-rule="nonzero"/></g><g clip-path="url(#id80)"><path fill="#ffffff" d="M 257.09375 682.894531 L 257.09375 932.636719 L 28.34375 932.636719 L 257.09375 682.894531 " fill-opacity="1" fill-rule="nonzero"/></g><g clip-path="url(#id81)"><path fill="#ffffff" d="M 536.570312 304.964844 C 536.570312 360.882812 581.902344 406.214844 637.820312 406.214844 C 693.738281 406.214844 739.070312 360.882812 739.070312 304.964844 C 739.070312 249.046875 693.738281 203.714844 637.820312 203.714844 C 581.902344 203.714844 536.570312 249.046875 536.570312 304.964844 " fill-opacity="1" fill-rule="nonzero"/></g><g clip-path="url(#id82)"><path fill="#ffffff" d="M -418.308594 170.699219 C -418.308594 313.601562 -308.84375 429.449219 -173.8125 429.449219 C -38.777344 429.449219 70.6875 313.601562 70.6875 170.699219 C 70.6875 27.796875 -38.777344 -88.050781 -173.8125 -88.050781 C -308.84375 -88.050781 -418.308594 27.796875 -418.308594 170.699219 " fill-opacity="1" fill-rule="nonzero"/></g><g clip-path="url(#id83)"><path fill="#7dced1" d="M 1033.457031 177.808594 L 1033.457031 394.558594 L 791.957031 394.558594 L 791.957031 177.808594 L 1033.457031 177.808594 " fill-opacity="1" fill-rule="nonzero"/></g><g clip-path="url(#id84)"><path fill="#ff4848" d="M 791.9375 387.414062 L 926.929688 387.414062 L 926.929688 493.914062 L 791.9375 493.914062 L 791.9375 387.414062 " fill-opacity="1" fill-rule="nonzero"/></g><g clip-path="url(#id85)"><path fill="#302b2b" d="M 927.03125 387.414062 L 1033.53125 387.414062 L 1033.53125 493.914062 L 927.03125 493.914062 L 927.03125 387.414062 " fill-opacity="1" fill-rule="nonzero"/></g><g clip-path="url(#id86)"><path fill="#7dced1" d="M 765.21875 475.417969 L 1033.714844 475.417969 L 1033.714844 599.917969 L 765.21875 599.917969 L 765.21875 475.417969 " fill-opacity="1" fill-rule="nonzero"/></g><g clip-path="url(#id87)"><path fill="#ff4848" d="M 1033.457031 386.335938 L 1246.457031 386.335938 L 1246.457031 600.085938 L 1033.457031 600.085938 L 1033.457031 386.335938 " fill-opacity="1" fill-rule="nonzero"/></g><g clip-path="url(#id88)"><g clip-path="url(#id89)"><path fill="#7dced1" d="M 1355.550781 387.097656 L 1354.75 602.34375 L 1244.503906 601.933594 L 1245.300781 386.6875 L 1355.550781 387.097656 " fill-opacity="1" fill-rule="nonzero"/></g></g><g clip-path="url(#id90)"><g clip-path="url(#id91)"><path fill="#302b2b" d="M 1464.609375 387.097656 L 1463.808594 602.34375 L 1353.558594 601.933594 L 1354.359375 386.6875 L 1464.609375 387.097656 " fill-opacity="1" fill-rule="nonzero"/></g></g><g clip-path="url(#id92)"><path fill="#ff4848" d="M 1352.855469 386.515625 L 1464.605469 386.515625 L 1464.605469 494.515625 L 1352.855469 386.515625 " fill-opacity="1" fill-rule="nonzero"/></g><g clip-path="url(#id93)"><g clip-path="url(#id94)"><path fill="#ff4848" d="M 1032.199219 597.351562 L 1031.789062 706.851562 L 925.296875 706.453125 L 925.703125 596.957031 L 1032.199219 597.351562 " fill-opacity="1" fill-rule="nonzero"/></g></g><g clip-path="url(#id95)"><g clip-path="url(#id96)"><path fill="#302b2b" d="M 1032.203125 703.71875 L 1031.808594 810.21875 L 925.308594 809.824219 L 925.707031 703.324219 L 1032.203125 703.71875 " fill-opacity="1" fill-rule="nonzero"/></g></g><g clip-path="url(#id97)"><g clip-path="url(#id98)"><path fill="#7dced1" d="M 926.886719 596.953125 L 926.09375 809.949219 L 764.097656 809.347656 L 764.886719 596.351562 L 926.886719 596.953125 " fill-opacity="1" fill-rule="nonzero"/></g></g><g clip-path="url(#id99)"><path fill="#7dced1" d="M 1030.5 598.921875 L 1466.25 598.921875 L 1466.25 1038.417969 L 1030.5 1038.417969 L 1030.5 598.921875 " fill-opacity="1" fill-rule="nonzero"/></g><g clip-path="url(#id100)"><g clip-path="url(#id101)"><path fill="#302b2b" d="M 1142.929688 596.597656 L 1142.070312 827.589844 L 1028.820312 827.171875 L 1029.679688 596.175781 L 1142.929688 596.597656 " fill-opacity="1" fill-rule="nonzero"/></g></g><g clip-path="url(#id102)"><path fill="#ff4848" d="M 1142.929688 598.394531 L 1246.429688 598.394531 L 1246.429688 712.382812 L 1142.929688 712.382812 L 1142.929688 598.394531 " fill-opacity="1" fill-rule="nonzero"/></g><g clip-path="url(#id103)"><g clip-path="url(#id104)"><path fill="#ff4848" d="M 1464.796875 598.234375 L 1464.367188 713.726562 L 1355.621094 713.320312 L 1356.046875 597.828125 L 1464.796875 598.234375 " fill-opacity="1" fill-rule="nonzero"/></g></g><g clip-path="url(#id105)"><path fill="#ffffff" d="M 1031.84375 285.03125 L 1206.59375 285.03125 L 1206.59375 495.023438 L 1031.84375 495.023438 L 1031.84375 285.03125 " fill-opacity="1" fill-rule="nonzero"/></g><g clip-path="url(#id106)"><g clip-path="url(#id107)"><path fill="#ffffff" d="M 1355.148438 597.851562 L 1354.71875 713.34375 L 1245.96875 712.9375 L 1246.398438 597.449219 L 1355.148438 597.851562 " fill-opacity="1" fill-rule="nonzero"/></g></g><g clip-path="url(#id108)"><path fill="#302b2b" d="M 1464.636719 713.171875 L 1244.140625 713.171875 L 1244.140625 596.171875 L 1464.636719 713.171875 " fill-opacity="1" fill-rule="nonzero"/></g><g clip-path="url(#id109)"><path fill="#302b2b" d="M 1270.324219 884.703125 L 1053.574219 884.703125 L 1053.574219 673.203125 L 1270.324219 884.703125 " fill-opacity="1" fill-rule="nonzero"/></g><g clip-path="url(#id110)"><g clip-path="url(#id111)"><path fill="#302b2b" d="M 1345.128906 272.515625 L 1243.878906 272.140625 L 1244.621094 72.660156 L 1345.871094 73.035156 L 1345.128906 272.515625 " fill-opacity="1" fill-rule="nonzero"/></g></g><g clip-path="url(#id112)"><path fill="#ff4848" d="M 1250.265625 175.304688 L 1250.265625 387.550781 L 1030.515625 387.550781 L 1030.515625 175.304688 L 1250.265625 175.304688 " fill-opacity="1" fill-rule="nonzero"/></g><g clip-path="url(#id113)"><g clip-path="url(#id114)"><path fill="#7dced1" d="M 1344.683594 387.914062 L 1345.484375 172.667969 L 1459.484375 173.089844 L 1458.683594 388.339844 L 1344.683594 387.914062 " fill-opacity="1" fill-rule="nonzero"/></g></g><g clip-path="url(#id115)"><path fill="#ff4848" d="M 1356.636719 390.125 L 1244.136719 390.125 L 1244.136719 288.882812 L 1356.636719 390.125 " fill-opacity="1" fill-rule="nonzero"/></g><g clip-path="url(#id116)"><g clip-path="url(#id117)"><path fill="#7dced1" d="M 1460.914062 73.179688 L 1247.171875 72.382812 L 1247.570312 -34.863281 L 1461.3125 -34.070312 L 1460.914062 73.179688 " fill-opacity="1" fill-rule="nonzero"/></g></g><g clip-path="url(#id118)"><path fill="#ff4848" d="M 1452.914062 71.53125 L 1452.914062 173.527344 L 1346.414062 173.527344 L 1452.914062 71.53125 " fill-opacity="1" fill-rule="nonzero"/></g><g clip-path="url(#id119)"><path fill="#302b2b" d="M 1251.234375 -152.601562 L 1251.234375 103.886719 L 1135.734375 103.886719 L 1135.734375 -152.601562 L 1251.234375 -152.601562 " fill-opacity="1" fill-rule="nonzero"/></g><g clip-path="url(#id120)"><g clip-path="url(#id121)"><path fill="#ff4848" d="M 1037.90625 182.230469 L 778.421875 181.265625 L 778.863281 62.769531 L 1038.34375 63.730469 L 1037.90625 182.230469 " fill-opacity="1" fill-rule="nonzero"/></g></g><g clip-path="url(#id122)"><path fill="#302b2b" d="M 923.878906 -165.71875 L 923.878906 69.03125 L 759.628906 69.03125 L 759.628906 -165.71875 L 923.878906 -165.71875 " fill-opacity="1" fill-rule="nonzero"/></g><g clip-path="url(#id123)"><path fill="#ffffff" d="M 1135.472656 -145.714844 L 1135.472656 68.785156 L 925.472656 68.785156 L 925.472656 -145.714844 L 1135.472656 -145.714844 " fill-opacity="1" fill-rule="nonzero"/></g><g clip-path="url(#id124)"><path fill="#302b2b" d="M 1038.828125 67.019531 L 1038.828125 182.519531 L 764.332031 182.519531 L 1038.828125 67.019531 " fill-opacity="1" fill-rule="nonzero"/></g><g clip-path="url(#id125)"><g clip-path="url(#id126)"><path fill="#ffffff" d="M 1250.601562 176.570312 L 1135.113281 176.140625 L 1135.558594 56.140625 L 1251.050781 56.570312 L 1250.601562 176.570312 " fill-opacity="1" fill-rule="nonzero"/></g></g><g clip-path="url(#id127)"><path fill="#302b2b" d="M 1038.660156 68.949219 L 1038.660156 -161.285156 L 1142.160156 -161.285156 L 1038.660156 68.949219 " fill-opacity="1" fill-rule="nonzero"/></g><g clip-path="url(#id128)"><path fill="#ffffff" d="M 1010.46875 281.535156 C 1010.46875 233.691406 971.6875 194.910156 923.84375 194.910156 C 876.003906 194.910156 837.21875 233.691406 837.21875 281.535156 C 837.21875 329.375 876.003906 368.160156 923.84375 368.160156 C 971.6875 368.160156 1010.46875 329.375 1010.46875 281.535156 " fill-opacity="1" fill-rule="nonzero"/></g><g clip-path="url(#id129)"><path fill="#ffffff" d="M 1250.269531 172.859375 C 1250.269531 131.234375 1203.425781 97.488281 1145.644531 97.488281 C 1087.863281 97.488281 1041.019531 131.234375 1041.019531 172.859375 C 1041.019531 214.488281 1087.863281 248.234375 1145.644531 248.234375 C 1203.425781 248.234375 1250.269531 214.488281 1250.269531 172.859375 " fill-opacity="1" fill-rule="nonzero"/></g><g clip-path="url(#id130)"><path fill="#302b2b" d="M 1098.175781 494.425781 L 1098.175781 387.175781 L 1206.925781 387.175781 L 1098.175781 494.425781 " fill-opacity="1" fill-rule="nonzero"/></g><g clip-path="url(#id131)"><path fill="#ff4848" d="M 1029.839844 -1.644531 L 1096.589844 -1.644531 L 1096.589844 65.105469 L 1029.839844 65.105469 L 1029.839844 -1.644531 " fill-opacity="1" fill-rule="nonzero"/></g><g clip-path="url(#id132)"><path fill="#302b2b" d="M 1096.652344 -1.644531 L 1163.402344 -1.644531 L 1163.402344 65.105469 L 1096.652344 65.105469 L 1096.652344 -1.644531 " fill-opacity="1" fill-rule="nonzero"/></g><g clip-path="url(#id133)"><path fill="#7dced1" d="M 1161.609375 131.144531 L 1436.109375 131.144531 L 1436.109375 403.382812 L 1161.609375 403.382812 L 1161.609375 131.144531 " fill-opacity="1" fill-rule="nonzero"/></g><g clip-path="url(#id134)"><path fill="#7dced1" d="M 1029.839844 65.171875 L 1163.339844 65.171875 L 1163.339844 131.921875 L 1029.839844 131.921875 L 1029.839844 65.171875 " fill-opacity="1" fill-rule="nonzero"/></g><g clip-path="url(#id135)"><path fill="#ff4848" d="M 1163.46875 -2.320312 L 1296.96875 -2.320312 L 1296.96875 131.929688 L 1163.46875 131.929688 L 1163.46875 -2.320312 " fill-opacity="1" fill-rule="nonzero"/></g><g clip-path="url(#id136)"><g clip-path="url(#id137)"><path fill="#7dced1" d="M 1366.347656 -1.355469 L 1365.847656 132.136719 L 1296.851562 131.882812 L 1297.347656 -1.609375 L 1366.347656 -1.355469 " fill-opacity="1" fill-rule="nonzero"/></g></g><g clip-path="url(#id138)"><g clip-path="url(#id139)"><path fill="#302b2b" d="M 1434.136719 -1.355469 L 1433.640625 132.136719 L 1364.640625 131.882812 L 1365.136719 -1.609375 L 1434.136719 -1.355469 " fill-opacity="1" fill-rule="nonzero"/></g></g><g clip-path="url(#id140)"><path fill="#ff1616" d="M 1365.128906 -1.339844 L 1434.128906 -1.339844 L 1434.128906 65.410156 L 1365.128906 -1.339844 " fill-opacity="1" fill-rule="nonzero"/></g><g clip-path="url(#id141)"><g clip-path="url(#id142)"><path fill="#ff4848" d="M 1162.679688 130.152344 L 1162.429688 196.902344 L 1095.683594 196.652344 L 1095.929688 129.902344 L 1162.679688 130.152344 " fill-opacity="1" fill-rule="nonzero"/></g></g><g clip-path="url(#id143)"><g clip-path="url(#id144)"><path fill="#302b2b" d="M 1162.679688 196.929688 L 1162.429688 263.679688 L 1095.683594 263.429688 L 1095.929688 196.683594 L 1162.679688 196.929688 " fill-opacity="1" fill-rule="nonzero"/></g></g><g clip-path="url(#id145)"><g clip-path="url(#id146)"><path fill="#7dced1" d="M 1096.5625 129.902344 L 1096.066406 263.402344 L 1029.316406 263.152344 L 1029.8125 129.65625 L 1096.5625 129.902344 " fill-opacity="1" fill-rule="nonzero"/></g></g><g clip-path="url(#id147)"><g clip-path="url(#id148)"><path fill="#302b2b" d="M 1232.191406 131.070312 L 1231.660156 274.320312 L 1160.410156 274.054688 L 1160.941406 130.804688 L 1232.191406 131.070312 " fill-opacity="1" fill-rule="nonzero"/></g></g><g clip-path="url(#id149)"><path fill="#ff4848" d="M 1232.195312 130.804688 L 1297.4375 130.804688 L 1297.4375 202.804688 L 1232.195312 202.804688 L 1232.195312 130.804688 " fill-opacity="1" fill-rule="nonzero"/></g><g clip-path="url(#id150)"><g clip-path="url(#id151)"><path fill="#ff4848" d="M 1434.25 130.710938 L 1433.980469 203.460938 L 1365.734375 203.207031 L 1366.003906 130.457031 L 1434.25 130.710938 " fill-opacity="1" fill-rule="nonzero"/></g></g><g clip-path="url(#id152)"><path fill="#ffffff" d="M 1230.976562 203.269531 L 1365.972656 203.269531 L 1365.972656 334.519531 L 1230.976562 334.519531 L 1230.976562 203.269531 " fill-opacity="1" fill-rule="nonzero"/></g><g clip-path="url(#id153)"><g clip-path="url(#id154)"><path fill="#ffffff" d="M 1365.414062 130.46875 L 1365.140625 203.21875 L 1296.898438 202.964844 L 1297.167969 130.214844 L 1365.414062 130.46875 " fill-opacity="1" fill-rule="nonzero"/></g></g><g clip-path="url(#id155)"><path fill="#302b2b" d="M 1433.96875 202.914062 L 1296.726562 202.914062 L 1296.726562 129.414062 L 1433.96875 202.914062 " fill-opacity="1" fill-rule="nonzero"/></g><g clip-path="url(#id156)"><path fill="#ffffff" d="M 1298.429688 131.105469 L 1162.683594 131.105469 L 1162.683594 -1.644531 L 1298.429688 131.105469 " fill-opacity="1" fill-rule="nonzero"/></g></svg>