<svg xmlns="http://www.w3.org/2000/svg" xmlns:xlink="http://www.w3.org/1999/xlink" width="1920" zoomAndPan="magnify" viewBox="0 0 1440 809.999993" height="1080" preserveAspectRatio="xMidYMid meet" version="1.0"><defs><clipPath id="id1"><path d="M 0 0 L 49.035156 0 L 49.035156 63.019531 L 0 63.019531 Z M 0 0 " clip-rule="nonzero"/></clipPath><clipPath id="id2"><path d="M 49.097656 0 L 115.847656 0 L 115.847656 63.019531 L 49.097656 63.019531 Z M 49.097656 0 " clip-rule="nonzero"/></clipPath><clipPath id="id3"><path d="M 114.050781 129.050781 L 388.550781 129.050781 L 388.550781 401.300781 L 114.050781 401.300781 Z M 114.050781 129.050781 " clip-rule="nonzero"/></clipPath><clipPath id="id4"><path d="M 0 63.082031 L 115.785156 63.082031 L 115.785156 129.832031 L 0 129.832031 Z M 0 63.082031 " clip-rule="nonzero"/></clipPath><clipPath id="id5"><path d="M 115.910156 0 L 249.410156 0 L 249.410156 129.84375 L 115.910156 129.84375 Z M 115.910156 0 " clip-rule="nonzero"/></clipPath><clipPath id="id6"><path d="M 386.703125 128.367188 L 518.703125 128.367188 L 518.703125 258.867188 L 386.703125 258.867188 Z M 386.703125 128.367188 " clip-rule="nonzero"/></clipPath><clipPath id="id7"><path d="M 381.058594 131.628906 L 639.808594 131.628906 L 639.808594 394.878906 L 381.058594 394.878906 Z M 381.058594 131.628906 " clip-rule="nonzero"/></clipPath><clipPath id="id8"><path d="M 384 0 L 519 0 L 519 63 L 384 63 Z M 384 0 " clip-rule="nonzero"/></clipPath><clipPath id="id9"><path d="M 518.558594 62.566406 L 384.777344 62.066406 L 385.03125 -6.394531 L 518.8125 -5.898438 Z M 518.558594 62.566406 " clip-rule="nonzero"/></clipPath><clipPath id="id10"><path d="M 384 61 L 519 61 L 519 131 L 384 131 Z M 384 61 " clip-rule="nonzero"/></clipPath><clipPath id="id11"><path d="M 518.558594 130.355469 L 384.777344 129.859375 L 385.03125 61.394531 L 518.8125 61.890625 Z M 518.558594 130.355469 " clip-rule="nonzero"/></clipPath><clipPath id="id12"><path d="M 451.78125 61.105469 L 518.671875 61.105469 L 518.671875 130.355469 L 451.78125 130.355469 Z M 451.78125 61.105469 " clip-rule="nonzero"/></clipPath><clipPath id="id13"><path d="M 249 0 L 319 0 L 319 131 L 249 131 Z M 249 0 " clip-rule="nonzero"/></clipPath><clipPath id="id14"><path d="M 318.789062 -3.445312 L 318.292969 130.054688 L 249.292969 129.796875 L 249.789062 -3.699219 Z M 318.789062 -3.445312 " clip-rule="nonzero"/></clipPath><clipPath id="id15"><path d="M 317 0 L 387 0 L 387 131 L 317 131 Z M 317 0 " clip-rule="nonzero"/></clipPath><clipPath id="id16"><path d="M 386.578125 -3.445312 L 386.082031 130.054688 L 317.082031 129.796875 L 317.578125 -3.699219 Z M 386.578125 -3.445312 " clip-rule="nonzero"/></clipPath><clipPath id="id17"><path d="M 317.570312 0 L 386.570312 0 L 386.570312 63.324219 L 317.570312 63.324219 Z M 317.570312 0 " clip-rule="nonzero"/></clipPath><clipPath id="id18"><path d="M 48 127 L 116 127 L 116 195 L 48 195 Z M 48 127 " clip-rule="nonzero"/></clipPath><clipPath id="id19"><path d="M 115.121094 128.066406 L 114.875 194.8125 L 48.125 194.566406 L 48.371094 127.816406 Z M 115.121094 128.066406 " clip-rule="nonzero"/></clipPath><clipPath id="id20"><path d="M 0 259 L 49 259 L 49 332 L 0 332 Z M 0 259 " clip-rule="nonzero"/></clipPath><clipPath id="id21"><path d="M -23.203125 259.496094 L 48.796875 259.765625 L 48.527344 331.765625 L -23.46875 331.496094 Z M -23.203125 259.496094 " clip-rule="nonzero"/></clipPath><clipPath id="id22"><path d="M 47 259 L 121 259 L 121 333 L 47 333 Z M 47 259 " clip-rule="nonzero"/></clipPath><clipPath id="id23"><path d="M 48.238281 259.765625 L 120.238281 260.035156 L 119.972656 332.035156 L 47.972656 331.765625 Z M 48.238281 259.765625 " clip-rule="nonzero"/></clipPath><clipPath id="id24"><path d="M 0 331 L 114 331 L 114 405 L 0 405 Z M 0 331 " clip-rule="nonzero"/></clipPath><clipPath id="id25"><path d="M -21.664062 331.707031 L 113.335938 332.207031 L 113.066406 404.207031 L -21.933594 403.707031 Z M -21.664062 331.707031 " clip-rule="nonzero"/></clipPath><clipPath id="id26"><path d="M 48 194 L 116 194 L 116 262 L 48 262 Z M 48 194 " clip-rule="nonzero"/></clipPath><clipPath id="id27"><path d="M 115.121094 194.84375 L 114.875 261.59375 L 48.125 261.34375 L 48.371094 194.59375 Z M 115.121094 194.84375 " clip-rule="nonzero"/></clipPath><clipPath id="id28"><path d="M 0 127 L 50 127 L 50 262 L 0 262 Z M 0 127 " clip-rule="nonzero"/></clipPath><clipPath id="id29"><path d="M 49.003906 127.816406 L 48.507812 261.316406 L -18.242188 261.066406 L -17.746094 127.566406 Z M 49.003906 127.816406 " clip-rule="nonzero"/></clipPath><clipPath id="id30"><path d="M 317 259 L 391 259 L 391 403 L 317 403 Z M 317 259 " clip-rule="nonzero"/></clipPath><clipPath id="id31"><path d="M 390.320312 259.457031 L 389.789062 402.707031 L 317.789062 402.441406 L 318.320312 259.191406 Z M 390.320312 259.457031 " clip-rule="nonzero"/></clipPath><clipPath id="id32"><path d="M 112 128 L 185 128 L 185 273 L 112 273 Z M 112 128 " clip-rule="nonzero"/></clipPath><clipPath id="id33"><path d="M 184.632812 128.984375 L 184.101562 272.234375 L 112.851562 271.96875 L 113.382812 128.71875 Z M 184.632812 128.984375 " clip-rule="nonzero"/></clipPath><clipPath id="id34"><path d="M 184.632812 128.71875 L 249.882812 128.71875 L 249.882812 200.71875 L 184.632812 200.71875 Z M 184.632812 128.71875 " clip-rule="nonzero"/></clipPath><clipPath id="id35"><path d="M 170.859375 332.722656 L 317.859375 332.722656 L 317.859375 396.472656 L 170.859375 396.472656 Z M 170.859375 332.722656 " clip-rule="nonzero"/></clipPath><clipPath id="id36"><path d="M 112 260 L 185 260 L 185 405 L 112 405 Z M 112 260 " clip-rule="nonzero"/></clipPath><clipPath id="id37"><path d="M 184.632812 260.992188 L 184.101562 404.242188 L 112.101562 403.972656 L 112.632812 260.726562 Z M 184.632812 260.992188 " clip-rule="nonzero"/></clipPath><clipPath id="id38"><path d="M 318 128 L 387 128 L 387 202 L 318 202 Z M 318 128 " clip-rule="nonzero"/></clipPath><clipPath id="id39"><path d="M 386.695312 128.625 L 386.421875 201.371094 L 318.171875 201.117188 L 318.445312 128.371094 Z M 386.695312 128.625 " clip-rule="nonzero"/></clipPath><clipPath id="id40"><path d="M 113 261 L 149 261 L 149 405 L 113 405 Z M 113 261 " clip-rule="nonzero"/></clipPath><clipPath id="id41"><path d="M 148.917969 261.121094 L 148.386719 404.371094 L 113.136719 404.238281 L 113.667969 260.988281 Z M 148.917969 261.121094 " clip-rule="nonzero"/></clipPath><clipPath id="id42"><path d="M 183.417969 201.183594 L 318.417969 201.183594 L 318.417969 332.433594 L 183.417969 332.433594 Z M 183.417969 201.183594 " clip-rule="nonzero"/></clipPath><clipPath id="id43"><path d="M 317.703125 259.460938 L 386.703125 259.460938 L 386.703125 374.960938 L 317.703125 374.960938 Z M 317.703125 259.460938 " clip-rule="nonzero"/></clipPath><clipPath id="id44"><path d="M 249 128 L 318 128 L 318 202 L 249 202 Z M 249 128 " clip-rule="nonzero"/></clipPath><clipPath id="id45"><path d="M 317.855469 128.382812 L 317.585938 201.132812 L 249.335938 200.878906 L 249.609375 128.128906 Z M 317.855469 128.382812 " clip-rule="nonzero"/></clipPath><clipPath id="id46"><path d="M 249.164062 127.328125 L 386.414062 127.328125 L 386.414062 200.828125 L 249.164062 200.828125 Z M 249.164062 127.328125 " clip-rule="nonzero"/></clipPath><clipPath id="id47"><path d="M 115.121094 0 L 250.871094 0 L 250.871094 129.019531 L 115.121094 129.019531 Z M 115.121094 0 " clip-rule="nonzero"/></clipPath><clipPath id="id48"><path d="M 381.058594 259.191406 L 516.808594 259.191406 L 516.808594 404.691406 L 381.058594 404.691406 Z M 381.058594 259.191406 " clip-rule="nonzero"/></clipPath><clipPath id="id49"><path d="M 397.257812 278.359375 L 506.007812 278.359375 L 506.007812 387.109375 L 397.257812 387.109375 Z M 397.257812 278.359375 " clip-rule="nonzero"/></clipPath><clipPath id="id50"><path d="M 919.253906 0 L 1055.003906 0 L 1055.003906 140.328125 L 919.253906 140.328125 Z M 919.253906 0 " clip-rule="nonzero"/></clipPath><clipPath id="id51"><path d="M 856.675781 0 L 923.425781 0 L 923.425781 66.609375 L 856.675781 66.609375 Z M 856.675781 0 " clip-rule="nonzero"/></clipPath><clipPath id="id52"><path d="M 856.675781 66.671875 L 923.425781 66.671875 L 923.425781 133.421875 L 856.675781 133.421875 Z M 856.675781 66.671875 " clip-rule="nonzero"/></clipPath><clipPath id="id53"><path d="M 789.863281 0 L 856.613281 0 L 856.613281 133.496094 L 789.863281 133.496094 Z M 789.863281 0 " clip-rule="nonzero"/></clipPath><clipPath id="id54"><path d="M 789.847656 133.488281 L 924.097656 133.488281 L 924.097656 266.988281 L 789.847656 266.988281 Z M 789.847656 133.488281 " clip-rule="nonzero"/></clipPath><clipPath id="id55"><path d="M 789 267 L 924 267 L 924 337 L 789 337 Z M 789 267 " clip-rule="nonzero"/></clipPath><clipPath id="id56"><path d="M 923.140625 336.359375 L 789.359375 335.863281 L 789.613281 267.398438 L 923.394531 267.894531 Z M 923.140625 336.359375 " clip-rule="nonzero"/></clipPath><clipPath id="id57"><path d="M 789 335 L 924 335 L 924 405 L 789 405 Z M 789 335 " clip-rule="nonzero"/></clipPath><clipPath id="id58"><path d="M 923.140625 404.148438 L 789.359375 403.652344 L 789.613281 335.1875 L 923.394531 335.683594 Z M 923.140625 404.148438 " clip-rule="nonzero"/></clipPath><clipPath id="id59"><path d="M 856.359375 334.898438 L 923.25 334.898438 L 923.25 404.152344 L 856.359375 404.152344 Z M 856.359375 334.898438 " clip-rule="nonzero"/></clipPath><clipPath id="id60"><path d="M 724 65 L 792 65 L 792 133 L 724 133 Z M 724 65 " clip-rule="nonzero"/></clipPath><clipPath id="id61"><path d="M 791.632812 132.699219 L 724.882812 132.449219 L 725.132812 65.699219 L 791.882812 65.949219 Z M 791.632812 132.699219 " clip-rule="nonzero"/></clipPath><clipPath id="id62"><path d="M 587 0 L 661 0 L 661 67 L 587 67 Z M 587 0 " clip-rule="nonzero"/></clipPath><clipPath id="id63"><path d="M 660.191406 -5.625 L 659.921875 66.375 L 587.925781 66.105469 L 588.191406 -5.894531 Z M 660.191406 -5.625 " clip-rule="nonzero"/></clipPath><clipPath id="id64"><path d="M 587 65 L 660 65 L 660 138 L 587 138 Z M 587 65 " clip-rule="nonzero"/></clipPath><clipPath id="id65"><path d="M 659.921875 65.816406 L 659.65625 137.816406 L 587.65625 137.546875 L 587.921875 65.546875 Z M 659.921875 65.816406 " clip-rule="nonzero"/></clipPath><clipPath id="id66"><path d="M 515 0 L 588 0 L 588 141 L 515 141 Z M 515 0 " clip-rule="nonzero"/></clipPath><clipPath id="id67"><path d="M 587.980469 -4.089844 L 587.445312 140.660156 L 515.445312 140.394531 L 515.984375 -4.355469 Z M 587.980469 -4.089844 " clip-rule="nonzero"/></clipPath><clipPath id="id68"><path d="M 658 65 L 726 65 L 726 133 L 658 133 Z M 658 65 " clip-rule="nonzero"/></clipPath><clipPath id="id69"><path d="M 724.855469 132.699219 L 658.105469 132.449219 L 658.355469 65.699219 L 725.101562 65.949219 Z M 724.855469 132.699219 " clip-rule="nonzero"/></clipPath><clipPath id="id70"><path d="M 658 0 L 793 0 L 793 67 L 658 67 Z M 658 0 " clip-rule="nonzero"/></clipPath><clipPath id="id71"><path d="M 791.882812 66.578125 L 658.382812 66.078125 L 658.65625 -7.417969 L 792.15625 -6.921875 Z M 791.882812 66.578125 " clip-rule="nonzero"/></clipPath><clipPath id="id72"><path d="M 514.640625 131.628906 L 790.640625 131.628906 L 790.640625 404.628906 L 514.640625 404.628906 Z M 514.640625 131.628906 " clip-rule="nonzero"/></clipPath><clipPath id="id73"><path d="M 515 331 L 659 331 L 659 405 L 515 405 Z M 515 331 " clip-rule="nonzero"/></clipPath><clipPath id="id74"><path d="M 658.574219 404.160156 L 515.324219 403.628906 L 515.59375 331.628906 L 658.839844 332.160156 Z M 658.574219 404.160156 " clip-rule="nonzero"/></clipPath><clipPath id="id75"><path d="M 647 130 L 793 130 L 793 203 L 647 203 Z M 647 130 " clip-rule="nonzero"/></clipPath><clipPath id="id76"><path d="M 792.097656 202.214844 L 647.347656 201.675781 L 647.613281 130.425781 L 792.363281 130.964844 Z M 792.097656 202.214844 " clip-rule="nonzero"/></clipPath><clipPath id="id77"><path d="M 718.972656 200.941406 L 790.972656 200.941406 L 790.972656 266.941406 L 718.972656 266.941406 Z M 718.972656 200.941406 " clip-rule="nonzero"/></clipPath><clipPath id="id78"><path d="M 514.972656 188.4375 L 586.972656 188.4375 L 586.972656 332.4375 L 514.972656 332.4375 Z M 514.972656 188.4375 " clip-rule="nonzero"/></clipPath><clipPath id="id79"><path d="M 514 128 L 659 128 L 659 202 L 514 202 Z M 514 128 " clip-rule="nonzero"/></clipPath><clipPath id="id80"><path d="M 658.699219 201.179688 L 514.703125 200.644531 L 514.96875 128.644531 L 658.96875 129.179688 Z M 658.699219 201.179688 " clip-rule="nonzero"/></clipPath><clipPath id="id81"><path d="M 718 335 L 792 335 L 792 405 L 718 405 Z M 718 335 " clip-rule="nonzero"/></clipPath><clipPath id="id82"><path d="M 791.066406 404.273438 L 718.320312 404 L 718.570312 335.753906 L 791.320312 336.023438 Z M 791.066406 404.273438 " clip-rule="nonzero"/></clipPath><clipPath id="id83"><path d="M 515 130 L 659 130 L 659 167 L 515 167 Z M 515 130 " clip-rule="nonzero"/></clipPath><clipPath id="id84"><path d="M 658.574219 166.492188 L 515.324219 165.957031 L 515.457031 130.710938 L 658.703125 131.242188 Z M 658.574219 166.492188 " clip-rule="nonzero"/></clipPath><clipPath id="id85"><path d="M 628.828125 200.941406 L 721.078125 200.941406 L 721.078125 335.941406 L 628.828125 335.941406 Z M 628.828125 200.941406 " clip-rule="nonzero"/></clipPath><clipPath id="id86"><path d="M 515.179688 335.277344 L 659.929688 335.277344 L 659.929688 404.277344 L 515.179688 404.277344 Z M 515.179688 335.277344 " clip-rule="nonzero"/></clipPath><clipPath id="id87"><path d="M 718 266 L 792 266 L 792 336 L 718 336 Z M 718 266 " clip-rule="nonzero"/></clipPath><clipPath id="id88"><path d="M 791.308594 335.4375 L 718.558594 335.164062 L 718.8125 266.914062 L 791.5625 267.1875 Z M 791.308594 335.4375 " clip-rule="nonzero"/></clipPath><clipPath id="id89"><path d="M 718.863281 266.738281 L 792.363281 266.738281 L 792.363281 403.988281 L 718.863281 403.988281 Z M 718.863281 266.738281 " clip-rule="nonzero"/></clipPath><clipPath id="id90"><path d="M 791.359375 130.835938 L 924.109375 130.835938 L 924.109375 268.085938 L 791.359375 268.085938 Z M 791.359375 130.835938 " clip-rule="nonzero"/></clipPath><clipPath id="id91"><path d="M 1325.6875 334.394531 L 1392.4375 334.394531 L 1392.4375 401.144531 L 1325.6875 401.144531 Z M 1325.6875 334.394531 " clip-rule="nonzero"/></clipPath><clipPath id="id92"><path d="M 1328.003906 267.578125 L 1440 267.578125 L 1440 334.328125 L 1328.003906 334.328125 Z M 1328.003906 267.578125 " clip-rule="nonzero"/></clipPath><clipPath id="id93"><path d="M 1189.523438 267.566406 L 1328.273438 267.566406 L 1328.273438 401.816406 L 1189.523438 401.816406 Z M 1189.523438 267.566406 " clip-rule="nonzero"/></clipPath><clipPath id="id94"><path d="M 922.941406 133.261719 L 1054.941406 133.261719 L 1054.941406 267.511719 L 922.941406 267.511719 Z M 922.941406 133.261719 " clip-rule="nonzero"/></clipPath><clipPath id="id95"><path d="M 922 334 L 1057 334 L 1057 404 L 922 404 Z M 922 334 " clip-rule="nonzero"/></clipPath><clipPath id="id96"><path d="M 922.972656 334.839844 L 1056.753906 335.339844 L 1056.5 403.804688 L 922.71875 403.304688 Z M 922.972656 334.839844 " clip-rule="nonzero"/></clipPath><clipPath id="id97"><path d="M 922 267 L 1057 267 L 1057 337 L 922 337 Z M 922 267 " clip-rule="nonzero"/></clipPath><clipPath id="id98"><path d="M 922.972656 267.050781 L 1056.753906 267.550781 L 1056.5 336.015625 L 922.71875 335.515625 Z M 922.972656 267.050781 " clip-rule="nonzero"/></clipPath><clipPath id="id99"><path d="M 922.863281 267.050781 L 989.753906 267.050781 L 989.753906 336.300781 L 922.863281 336.300781 Z M 922.863281 267.050781 " clip-rule="nonzero"/></clipPath><clipPath id="id100"><path d="M 1119 267 L 1192 267 L 1192 402 L 1119 402 Z M 1119 267 " clip-rule="nonzero"/></clipPath><clipPath id="id101"><path d="M 1119.914062 400.847656 L 1120.410156 267.347656 L 1191.660156 267.613281 L 1191.164062 401.113281 Z M 1119.914062 400.847656 " clip-rule="nonzero"/></clipPath><clipPath id="id102"><path d="M 1052 244 L 1122 244 L 1122 395 L 1052 395 Z M 1052 244 " clip-rule="nonzero"/></clipPath><clipPath id="id103"><path d="M 1052.234375 394.25 L 1052.792969 244.25 L 1121.792969 244.507812 L 1121.234375 394.507812 Z M 1052.234375 394.25 " clip-rule="nonzero"/></clipPath><clipPath id="id104"><path d="M 1326 202 L 1394 202 L 1394 270 L 1326 270 Z M 1326 202 " clip-rule="nonzero"/></clipPath><clipPath id="id105"><path d="M 1326.414062 269.351562 L 1326.664062 202.601562 L 1393.414062 202.851562 L 1393.164062 269.601562 Z M 1326.414062 269.351562 " clip-rule="nonzero"/></clipPath><clipPath id="id106"><path d="M 1321 65 L 1394 65 L 1394 138 L 1321 138 Z M 1321 65 " clip-rule="nonzero"/></clipPath><clipPath id="id107"><path d="M 1393.289062 137.640625 L 1321.289062 137.375 L 1321.554688 65.375 L 1393.554688 65.640625 Z M 1393.289062 137.640625 " clip-rule="nonzero"/></clipPath><clipPath id="id108"><path d="M 1318 0 L 1440 0 L 1440 66 L 1318 66 Z M 1318 0 " clip-rule="nonzero"/></clipPath><clipPath id="id109"><path d="M 1463.191406 65.699219 L 1318.445312 65.160156 L 1318.710938 -6.835938 L 1463.460938 -6.300781 Z M 1463.191406 65.699219 " clip-rule="nonzero"/></clipPath><clipPath id="id110"><path d="M 1054.476562 0 L 1327.476562 0 L 1327.476562 268.355469 L 1054.476562 268.355469 Z M 1054.476562 0 " clip-rule="nonzero"/></clipPath><clipPath id="id111"><path d="M 1326 135 L 1394 135 L 1394 203 L 1326 203 Z M 1326 135 " clip-rule="nonzero"/></clipPath><clipPath id="id112"><path d="M 1326.414062 202.574219 L 1326.664062 135.824219 L 1393.414062 136.070312 L 1393.164062 202.820312 Z M 1326.414062 202.574219 " clip-rule="nonzero"/></clipPath><clipPath id="id113"><path d="M 1054 0 L 1128 0 L 1128 137 L 1054 137 Z M 1054 0 " clip-rule="nonzero"/></clipPath><clipPath id="id114"><path d="M 1054.953125 136.292969 L 1055.484375 -6.957031 L 1127.484375 -6.691406 L 1126.953125 136.558594 Z M 1054.953125 136.292969 " clip-rule="nonzero"/></clipPath><clipPath id="id115"><path d="M 1256 125 L 1329 125 L 1329 271 L 1256 271 Z M 1256 125 " clip-rule="nonzero"/></clipPath><clipPath id="id116"><path d="M 1256.894531 269.820312 L 1257.429688 125.070312 L 1328.679688 125.335938 L 1328.144531 270.085938 Z M 1256.894531 269.820312 " clip-rule="nonzero"/></clipPath><clipPath id="id117"><path d="M 1192.679688 196.359375 L 1257.929688 196.359375 L 1257.929688 268.359375 L 1192.679688 268.359375 Z M 1192.679688 196.359375 " clip-rule="nonzero"/></clipPath><clipPath id="id118"><path d="M 1123.667969 0 L 1270.667969 0 L 1270.667969 64.695312 L 1123.667969 64.695312 Z M 1123.667969 0 " clip-rule="nonzero"/></clipPath><clipPath id="id119"><path d="M 1257 0 L 1331 0 L 1331 137 L 1257 137 Z M 1257 0 " clip-rule="nonzero"/></clipPath><clipPath id="id120"><path d="M 1257.933594 136.425781 L 1258.464844 -6.824219 L 1330.464844 -6.558594 L 1329.933594 136.691406 Z M 1257.933594 136.425781 " clip-rule="nonzero"/></clipPath><clipPath id="id121"><path d="M 1049 196 L 1124 196 L 1124 269 L 1049 269 Z M 1049 196 " clip-rule="nonzero"/></clipPath><clipPath id="id122"><path d="M 1049.273438 268.03125 L 1049.539062 196.035156 L 1123.789062 196.308594 L 1123.523438 268.308594 Z M 1049.273438 268.03125 " clip-rule="nonzero"/></clipPath><clipPath id="id123"><path d="M 1292 0 L 1329 0 L 1329 137 L 1292 137 Z M 1292 0 " clip-rule="nonzero"/></clipPath><clipPath id="id124"><path d="M 1292.617188 136.289062 L 1293.148438 -6.960938 L 1328.398438 -6.832031 L 1327.867188 136.417969 Z M 1292.617188 136.289062 " clip-rule="nonzero"/></clipPath><clipPath id="id125"><path d="M 1123.117188 65.710938 L 1258.117188 65.710938 L 1258.117188 196.210938 L 1123.117188 196.210938 Z M 1123.117188 65.710938 " clip-rule="nonzero"/></clipPath><clipPath id="id126"><path d="M 1054.835938 0 L 1123.835938 0 L 1123.835938 137.648438 L 1054.835938 137.648438 Z M 1054.835938 0 " clip-rule="nonzero"/></clipPath><clipPath id="id127"><path d="M 1123 196 L 1193 196 L 1193 270 L 1123 270 Z M 1123 196 " clip-rule="nonzero"/></clipPath><clipPath id="id128"><path d="M 1123.671875 269.027344 L 1123.941406 196.277344 L 1192.191406 196.53125 L 1191.921875 269.28125 Z M 1123.671875 269.027344 " clip-rule="nonzero"/></clipPath><clipPath id="id129"><path d="M 1056.070312 196.582031 L 1197.070312 196.582031 L 1197.070312 270.082031 L 1056.070312 270.082031 Z M 1056.070312 196.582031 " clip-rule="nonzero"/></clipPath><clipPath id="id130"><path d="M 1193.230469 269.464844 L 1327.480469 269.464844 L 1327.480469 392.464844 L 1193.230469 392.464844 Z M 1193.230469 269.464844 " clip-rule="nonzero"/></clipPath><clipPath id="id131"><path d="M 935.519531 10.300781 L 1044.269531 10.300781 L 1044.269531 119.050781 L 935.519531 119.050781 Z M 935.519531 10.300781 " clip-rule="nonzero"/></clipPath><clipPath id="id132"><path d="M 1389.71875 734.949219 L 1440 734.949219 L 1440 810 L 1389.71875 810 Z M 1389.71875 734.949219 " clip-rule="nonzero"/></clipPath><clipPath id="id133"><path d="M 1322.90625 734.949219 L 1389.65625 734.949219 L 1389.65625 810 L 1322.90625 810 Z M 1322.90625 734.949219 " clip-rule="nonzero"/></clipPath><clipPath id="id134"><path d="M 1322.964844 667.972656 L 1440 667.972656 L 1440 734.722656 L 1322.964844 734.722656 Z M 1322.964844 667.972656 " clip-rule="nonzero"/></clipPath><clipPath id="id135"><path d="M 1184.847656 668.242188 L 1322.847656 668.242188 L 1322.847656 809.992188 L 1184.847656 809.992188 Z M 1184.847656 668.242188 " clip-rule="nonzero"/></clipPath><clipPath id="id136"><path d="M 920.953125 537.5625 L 1052.953125 537.5625 L 1052.953125 668.0625 L 920.953125 668.0625 Z M 920.953125 537.5625 " clip-rule="nonzero"/></clipPath><clipPath id="id137"><path d="M 778.523438 369.507812 L 1056.773438 369.507812 L 1056.773438 632.757812 L 778.523438 632.757812 Z M 778.523438 369.507812 " clip-rule="nonzero"/></clipPath><clipPath id="id138"><path d="M 919 735 L 1054 735 L 1054 810 L 919 810 Z M 919 735 " clip-rule="nonzero"/></clipPath><clipPath id="id139"><path d="M 920.195312 735.238281 L 1053.695312 735.734375 L 1053.332031 833.234375 L 919.832031 832.734375 Z M 920.195312 735.238281 " clip-rule="nonzero"/></clipPath><clipPath id="id140"><path d="M 919 667 L 1054 667 L 1054 737 L 919 737 Z M 919 667 " clip-rule="nonzero"/></clipPath><clipPath id="id141"><path d="M 920.195312 667.449219 L 1053.695312 667.945312 L 1053.4375 736.945312 L 919.9375 736.445312 Z M 920.195312 667.449219 " clip-rule="nonzero"/></clipPath><clipPath id="id142"><path d="M 920.210938 667.449219 L 986.960938 667.449219 L 986.960938 736.449219 L 920.210938 736.449219 Z M 920.210938 667.449219 " clip-rule="nonzero"/></clipPath><clipPath id="id143"><path d="M 1119 667 L 1190 667 L 1190 810 L 1119 810 Z M 1119 667 " clip-rule="nonzero"/></clipPath><clipPath id="id144"><path d="M 1119.910156 815.691406 L 1120.464844 667.191406 L 1189.464844 667.445312 L 1188.910156 815.945312 Z M 1119.910156 815.691406 " clip-rule="nonzero"/></clipPath><clipPath id="id145"><path d="M 1052 667 L 1122 667 L 1122 810 L 1052 810 Z M 1052 667 " clip-rule="nonzero"/></clipPath><clipPath id="id146"><path d="M 1052.054688 833.875 L 1052.675781 667.375 L 1121.675781 667.632812 L 1121.054688 834.132812 Z M 1052.054688 833.875 " clip-rule="nonzero"/></clipPath><clipPath id="id147"><path d="M 1051.46875 736.703125 L 1136.96875 736.703125 L 1136.96875 810 L 1051.46875 810 Z M 1051.46875 736.703125 " clip-rule="nonzero"/></clipPath><clipPath id="id148"><path d="M 1323 602 L 1391 602 L 1391 670 L 1323 670 Z M 1323 602 " clip-rule="nonzero"/></clipPath><clipPath id="id149"><path d="M 1323.632812 669.746094 L 1323.882812 602.996094 L 1390.632812 603.242188 L 1390.382812 669.992188 Z M 1323.632812 669.746094 " clip-rule="nonzero"/></clipPath><clipPath id="id150"><path d="M 1389 466 L 1440 466 L 1440 539 L 1389 539 Z M 1389 466 " clip-rule="nonzero"/></clipPath><clipPath id="id151"><path d="M 1461.949219 538.300781 L 1389.949219 538.035156 L 1390.21875 466.035156 L 1462.21875 466.300781 Z M 1461.949219 538.300781 " clip-rule="nonzero"/></clipPath><clipPath id="id152"><path d="M 1318 465 L 1391 465 L 1391 539 L 1318 539 Z M 1318 465 " clip-rule="nonzero"/></clipPath><clipPath id="id153"><path d="M 1390.507812 538.035156 L 1318.507812 537.765625 L 1318.773438 465.765625 L 1390.773438 466.035156 Z M 1390.507812 538.035156 " clip-rule="nonzero"/></clipPath><clipPath id="id154"><path d="M 1315 393 L 1440 393 L 1440 467 L 1315 467 Z M 1315 393 " clip-rule="nonzero"/></clipPath><clipPath id="id155"><path d="M 1460.414062 466.09375 L 1315.664062 465.554688 L 1315.929688 393.554688 L 1460.679688 394.09375 Z M 1460.414062 466.09375 " clip-rule="nonzero"/></clipPath><clipPath id="id156"><path d="M 1323 536 L 1391 536 L 1391 604 L 1323 604 Z M 1323 536 " clip-rule="nonzero"/></clipPath><clipPath id="id157"><path d="M 1323.632812 602.964844 L 1323.882812 536.214844 L 1390.632812 536.464844 L 1390.382812 603.214844 Z M 1323.632812 602.964844 " clip-rule="nonzero"/></clipPath><clipPath id="id158"><path d="M 1389 536 L 1440 536 L 1440 671 L 1389 671 Z M 1389 536 " clip-rule="nonzero"/></clipPath><clipPath id="id159"><path d="M 1389.75 669.992188 L 1390.246094 536.492188 L 1456.996094 536.742188 L 1456.5 670.242188 Z M 1389.75 669.992188 " clip-rule="nonzero"/></clipPath><clipPath id="id160"><path d="M 1052.445312 393.5 L 1324.695312 393.5 L 1324.695312 668.75 L 1052.445312 668.75 Z M 1052.445312 393.5 " clip-rule="nonzero"/></clipPath><clipPath id="id161"><path d="M 1051 393 L 1124 393 L 1124 538 L 1051 538 Z M 1051 393 " clip-rule="nonzero"/></clipPath><clipPath id="id162"><path d="M 1051.214844 536.816406 L 1051.746094 393.566406 L 1123.746094 393.835938 L 1123.214844 537.085938 Z M 1051.214844 536.816406 " clip-rule="nonzero"/></clipPath><clipPath id="id163"><path d="M 1254 525 L 1326 525 L 1326 670 L 1254 670 Z M 1254 525 " clip-rule="nonzero"/></clipPath><clipPath id="id164"><path d="M 1254.121094 668.824219 L 1254.65625 525.578125 L 1325.90625 525.839844 L 1325.371094 669.089844 Z M 1254.121094 668.824219 " clip-rule="nonzero"/></clipPath><clipPath id="id165"><path d="M 1188.871094 597.082031 L 1254.121094 597.082031 L 1254.121094 669.082031 L 1188.871094 669.082031 Z M 1188.871094 597.082031 " clip-rule="nonzero"/></clipPath><clipPath id="id166"><path d="M 1120.886719 393.085938 L 1267.886719 393.085938 L 1267.886719 465.085938 L 1120.886719 465.085938 Z M 1120.886719 393.085938 " clip-rule="nonzero"/></clipPath><clipPath id="id167"><path d="M 1254 392 L 1327 392 L 1327 538 L 1254 538 Z M 1254 392 " clip-rule="nonzero"/></clipPath><clipPath id="id168"><path d="M 1254.117188 536.8125 L 1254.65625 392.816406 L 1326.652344 393.082031 L 1326.117188 537.082031 Z M 1254.117188 536.8125 " clip-rule="nonzero"/></clipPath><clipPath id="id169"><path d="M 1052 596 L 1121 596 L 1121 670 L 1052 670 Z M 1052 596 " clip-rule="nonzero"/></clipPath><clipPath id="id170"><path d="M 1052.054688 669.179688 L 1052.324219 596.433594 L 1120.574219 596.683594 L 1120.304688 669.433594 Z M 1052.054688 669.179688 " clip-rule="nonzero"/></clipPath><clipPath id="id171"><path d="M 1289 393 L 1326 393 L 1326 537 L 1289 537 Z M 1289 393 " clip-rule="nonzero"/></clipPath><clipPath id="id172"><path d="M 1289.835938 536.679688 L 1290.371094 393.429688 L 1325.621094 393.5625 L 1325.085938 536.8125 Z M 1289.835938 536.679688 " clip-rule="nonzero"/></clipPath><clipPath id="id173"><path d="M 1120.335938 465.371094 L 1255.335938 465.371094 L 1255.335938 596.621094 L 1120.335938 596.621094 Z M 1120.335938 465.371094 " clip-rule="nonzero"/></clipPath><clipPath id="id174"><path d="M 1051.863281 391.558594 L 1120.863281 391.558594 L 1120.863281 537.808594 L 1051.863281 537.808594 Z M 1051.863281 391.558594 " clip-rule="nonzero"/></clipPath><clipPath id="id175"><path d="M 1120 596 L 1190 596 L 1190 670 L 1120 670 Z M 1120 596 " clip-rule="nonzero"/></clipPath><clipPath id="id176"><path d="M 1120.890625 669.421875 L 1121.160156 596.671875 L 1189.410156 596.925781 L 1189.140625 669.675781 Z M 1120.890625 669.421875 " clip-rule="nonzero"/></clipPath><clipPath id="id177"><path d="M 1052.335938 596.972656 L 1189.585938 596.972656 L 1189.585938 670.472656 L 1052.335938 670.472656 Z M 1052.335938 596.972656 " clip-rule="nonzero"/></clipPath><clipPath id="id178"><path d="M 1231.449219 668.242188 L 1366.449219 668.242188 L 1366.449219 810 L 1231.449219 810 Z M 1231.449219 668.242188 " clip-rule="nonzero"/></clipPath><clipPath id="id179"><path d="M 928.464844 392.539062 L 1052.964844 392.539062 L 1052.964844 538.039062 L 928.464844 538.039062 Z M 928.464844 392.539062 " clip-rule="nonzero"/></clipPath><clipPath id="id180"><path d="M 932.742188 410.691406 L 1041.492188 410.691406 L 1041.492188 519.441406 L 932.742188 519.441406 Z M 932.742188 410.691406 " clip-rule="nonzero"/></clipPath><clipPath id="id181"><path d="M 383.742188 664.324219 L 519.492188 664.324219 L 519.492188 810 L 383.742188 810 Z M 383.742188 664.324219 " clip-rule="nonzero"/></clipPath><clipPath id="id182"><path d="M 515.328125 731.195312 L 582.078125 731.195312 L 582.078125 810 L 515.328125 810 Z M 515.328125 731.195312 " clip-rule="nonzero"/></clipPath><clipPath id="id183"><path d="M 515.328125 664.382812 L 582.078125 664.382812 L 582.078125 731.132812 L 515.328125 731.132812 Z M 515.328125 664.382812 " clip-rule="nonzero"/></clipPath><clipPath id="id184"><path d="M 582.140625 664.152344 L 648.890625 664.152344 L 648.890625 810 L 582.140625 810 Z M 582.140625 664.152344 " clip-rule="nonzero"/></clipPath><clipPath id="id185"><path d="M 514.648438 530.816406 L 648.898438 530.816406 L 648.898438 664.316406 L 514.648438 664.316406 Z M 514.648438 530.816406 " clip-rule="nonzero"/></clipPath><clipPath id="id186"><path d="M 514 462 L 651 462 L 651 533 L 514 533 Z M 514 462 " clip-rule="nonzero"/></clipPath><clipPath id="id187"><path d="M 515.128906 462.117188 L 650.128906 462.621094 L 649.871094 532.367188 L 514.871094 531.867188 Z M 515.128906 462.117188 " clip-rule="nonzero"/></clipPath><clipPath id="id188"><path d="M 514 393 L 651 393 L 651 464 L 514 464 Z M 514 393 " clip-rule="nonzero"/></clipPath><clipPath id="id189"><path d="M 515.128906 393.652344 L 650.128906 394.15625 L 649.871094 463.90625 L 514.871094 463.402344 Z M 515.128906 393.652344 " clip-rule="nonzero"/></clipPath><clipPath id="id190"><path d="M 515.0625 393.652344 L 582.5625 393.652344 L 582.5625 463.402344 L 515.0625 463.402344 Z M 515.0625 393.652344 " clip-rule="nonzero"/></clipPath><clipPath id="id191"><path d="M 646 665 L 717 665 L 717 733 L 646 733 Z M 646 665 " clip-rule="nonzero"/></clipPath><clipPath id="id192"><path d="M 647.121094 665.109375 L 716.121094 665.367188 L 715.875 732.117188 L 646.875 731.859375 Z M 647.121094 665.109375 " clip-rule="nonzero"/></clipPath><clipPath id="id193"><path d="M 778 731 L 851 731 L 851 810 L 778 810 Z M 778 731 " clip-rule="nonzero"/></clipPath><clipPath id="id194"><path d="M 778.476562 824.378906 L 778.824219 731.378906 L 850.824219 731.648438 L 850.476562 824.648438 Z M 778.476562 824.378906 " clip-rule="nonzero"/></clipPath><clipPath id="id195"><path d="M 778 659 L 852 659 L 852 733 L 778 733 Z M 778 659 " clip-rule="nonzero"/></clipPath><clipPath id="id196"><path d="M 778.824219 731.984375 L 779.09375 659.984375 L 851.089844 660.25 L 850.824219 732.25 Z M 778.824219 731.984375 " clip-rule="nonzero"/></clipPath><clipPath id="id197"><path d="M 850 657 L 924 657 L 924 810 L 850 810 Z M 850 657 " clip-rule="nonzero"/></clipPath><clipPath id="id198"><path d="M 850.648438 833 L 851.304688 657.503906 L 923.300781 657.769531 L 922.648438 833.269531 Z M 850.648438 833 " clip-rule="nonzero"/></clipPath><clipPath id="id199"><path d="M 713 665 L 781 665 L 781 733 L 713 733 Z M 713 665 " clip-rule="nonzero"/></clipPath><clipPath id="id200"><path d="M 713.902344 665.109375 L 780.652344 665.359375 L 780.402344 732.109375 L 713.652344 731.859375 Z M 713.902344 665.109375 " clip-rule="nonzero"/></clipPath><clipPath id="id201"><path d="M 646 731 L 781 731 L 781 810 L 646 810 Z M 646 731 " clip-rule="nonzero"/></clipPath><clipPath id="id202"><path d="M 646.875 731.226562 L 780.371094 731.722656 L 779.996094 832.972656 L 646.496094 832.476562 Z M 646.875 731.226562 " clip-rule="nonzero"/></clipPath><clipPath id="id203"><path d="M 648.109375 393.171875 L 924.109375 393.171875 L 924.109375 666.171875 L 648.109375 666.171875 Z M 648.109375 393.171875 " clip-rule="nonzero"/></clipPath><clipPath id="id204"><path d="M 779 393 L 924 393 L 924 467 L 779 467 Z M 779 393 " clip-rule="nonzero"/></clipPath><clipPath id="id205"><path d="M 780.183594 393.648438 L 923.433594 394.179688 L 923.164062 466.179688 L 779.914062 465.648438 Z M 780.183594 393.648438 " clip-rule="nonzero"/></clipPath><clipPath id="id206"><path d="M 646 595 L 792 595 L 792 668 L 646 668 Z M 646 595 " clip-rule="nonzero"/></clipPath><clipPath id="id207"><path d="M 646.648438 595.59375 L 791.398438 596.132812 L 791.132812 667.382812 L 646.382812 666.84375 Z M 646.648438 595.59375 " clip-rule="nonzero"/></clipPath><clipPath id="id208"><path d="M 647.777344 530.34375 L 719.777344 530.34375 L 719.777344 595.59375 L 647.777344 595.59375 Z M 647.777344 530.34375 " clip-rule="nonzero"/></clipPath><clipPath id="id209"><path d="M 851.773438 462.367188 L 923.773438 462.367188 L 923.773438 609.367188 L 851.773438 609.367188 Z M 851.773438 462.367188 " clip-rule="nonzero"/></clipPath><clipPath id="id210"><path d="M 779 596 L 925 596 L 925 670 L 779 670 Z M 779 596 " clip-rule="nonzero"/></clipPath><clipPath id="id211"><path d="M 780.050781 596.628906 L 924.050781 597.164062 L 923.78125 669.164062 L 779.78125 668.628906 Z M 780.050781 596.628906 " clip-rule="nonzero"/></clipPath><clipPath id="id212"><path d="M 647 393 L 721 393 L 721 463 L 647 463 Z M 647 393 " clip-rule="nonzero"/></clipPath><clipPath id="id213"><path d="M 647.679688 393.53125 L 720.429688 393.804688 L 720.175781 462.050781 L 647.425781 461.78125 Z M 647.679688 393.53125 " clip-rule="nonzero"/></clipPath><clipPath id="id214"><path d="M 780 631 L 924 631 L 924 668 L 780 668 Z M 780 631 " clip-rule="nonzero"/></clipPath><clipPath id="id215"><path d="M 780.183594 631.308594 L 923.433594 631.84375 L 923.300781 667.09375 L 780.050781 666.558594 Z M 780.183594 631.308594 " clip-rule="nonzero"/></clipPath><clipPath id="id216"><path d="M 451.050781 555.082031 L 582.300781 555.082031 L 582.300781 665.332031 L 451.050781 665.332031 Z M 451.050781 555.082031 " clip-rule="nonzero"/></clipPath><clipPath id="id217"><path d="M 778.828125 393.53125 L 923.578125 393.53125 L 923.578125 462.53125 L 778.828125 462.53125 Z M 778.828125 393.53125 " clip-rule="nonzero"/></clipPath><clipPath id="id218"><path d="M 647 462 L 721 462 L 721 531 L 647 531 Z M 647 462 " clip-rule="nonzero"/></clipPath><clipPath id="id219"><path d="M 647.4375 462.367188 L 720.1875 462.640625 L 719.933594 530.890625 L 647.183594 530.617188 Z M 647.4375 462.367188 " clip-rule="nonzero"/></clipPath><clipPath id="id220"><path d="M 646.386719 393.304688 L 719.886719 393.304688 L 719.886719 532.054688 L 646.386719 532.054688 Z M 646.386719 393.304688 " clip-rule="nonzero"/></clipPath><clipPath id="id221"><path d="M 694.742188 515.9375 L 827.492188 515.9375 L 827.492188 651.6875 L 694.742188 651.6875 Z M 694.742188 515.9375 " clip-rule="nonzero"/></clipPath><clipPath id="id222"><path d="M 46.316406 396.664062 L 113.066406 396.664062 L 113.066406 463.414062 L 46.316406 463.414062 Z M 46.316406 396.664062 " clip-rule="nonzero"/></clipPath><clipPath id="id223"><path d="M 0 461.472656 L 112.253906 461.472656 L 112.253906 530.472656 L 0 530.472656 Z M 0 461.472656 " clip-rule="nonzero"/></clipPath><clipPath id="id224"><path d="M 110.394531 395.984375 L 257.394531 395.984375 L 257.394531 529.484375 L 110.394531 529.484375 Z M 110.394531 395.984375 " clip-rule="nonzero"/></clipPath><clipPath id="id225"><path d="M 317 468 L 444 468 L 444 533 L 317 533 Z M 317 468 " clip-rule="nonzero"/></clipPath><clipPath id="id226"><path d="M 443.195312 468.65625 L 442.960938 532.40625 L 317.710938 531.941406 L 317.949219 468.191406 Z M 443.195312 468.65625 " clip-rule="nonzero"/></clipPath><clipPath id="id227"><path d="M 382.167969 528.207031 L 514.917969 528.207031 L 514.917969 666.207031 L 382.167969 666.207031 Z M 382.167969 528.207031 " clip-rule="nonzero"/></clipPath><clipPath id="id228"><path d="M 380 396 L 516 396 L 516 469 L 380 469 Z M 380 396 " clip-rule="nonzero"/></clipPath><clipPath id="id229"><path d="M 515.640625 468.929688 L 380.640625 468.429688 L 380.910156 396.429688 L 515.90625 396.929688 Z M 515.640625 468.929688 " clip-rule="nonzero"/></clipPath><clipPath id="id230"><path d="M 453.464844 461.558594 L 517.214844 461.558594 L 517.214844 532.058594 L 453.464844 532.058594 Z M 453.464844 461.558594 " clip-rule="nonzero"/></clipPath><clipPath id="id231"><path d="M 250 395 L 319 395 L 319 531 L 250 531 Z M 250 395 " clip-rule="nonzero"/></clipPath><clipPath id="id232"><path d="M 318.050781 395.96875 L 317.550781 530.21875 L 250.050781 529.96875 L 250.550781 395.71875 Z M 318.050781 395.96875 " clip-rule="nonzero"/></clipPath><clipPath id="id233"><path d="M 317.300781 401.101562 L 381.050781 401.101562 L 381.050781 467.851562 L 317.300781 467.851562 Z M 317.300781 401.101562 " clip-rule="nonzero"/></clipPath><clipPath id="id234"><path d="M 45 528 L 113 528 L 113 596 L 45 596 Z M 45 528 " clip-rule="nonzero"/></clipPath><clipPath id="id235"><path d="M 112.339844 528.457031 L 112.09375 595.207031 L 45.34375 594.957031 L 45.589844 528.210938 Z M 112.339844 528.457031 " clip-rule="nonzero"/></clipPath><clipPath id="id236"><path d="M 45 660 L 118 660 L 118 733 L 45 733 Z M 45 660 " clip-rule="nonzero"/></clipPath><clipPath id="id237"><path d="M 45.460938 660.160156 L 117.457031 660.425781 L 117.191406 732.425781 L 45.191406 732.15625 Z M 45.460938 660.160156 " clip-rule="nonzero"/></clipPath><clipPath id="id238"><path d="M 0 732 L 121 732 L 121 810 L 0 810 Z M 0 732 " clip-rule="nonzero"/></clipPath><clipPath id="id239"><path d="M -24.445312 732.101562 L 120.304688 732.636719 L 119.996094 815.886719 L -24.753906 815.347656 Z M -24.445312 732.101562 " clip-rule="nonzero"/></clipPath><clipPath id="id240"><path d="M 176.3125 527.601562 L 307.5625 527.601562 L 307.5625 600.351562 L 176.3125 600.351562 Z M 176.3125 527.601562 " clip-rule="nonzero"/></clipPath><clipPath id="id241"><path d="M 45 594 L 113 594 L 113 662 L 45 662 Z M 45 594 " clip-rule="nonzero"/></clipPath><clipPath id="id242"><path d="M 112.339844 595.234375 L 112.09375 661.984375 L 45.34375 661.738281 L 45.589844 594.988281 Z M 112.339844 595.234375 " clip-rule="nonzero"/></clipPath><clipPath id="id243"><path d="M 311 661 L 387 661 L 387 810 L 311 810 Z M 311 661 " clip-rule="nonzero"/></clipPath><clipPath id="id244"><path d="M 386.515625 661.523438 L 385.90625 825.023438 L 311.65625 824.746094 L 312.265625 661.25 Z M 386.515625 661.523438 " clip-rule="nonzero"/></clipPath><clipPath id="id245"><path d="M 110 527 L 182 527 L 182 673 L 110 673 Z M 110 527 " clip-rule="nonzero"/></clipPath><clipPath id="id246"><path d="M 181.851562 527.988281 L 181.316406 672.738281 L 110.066406 672.472656 L 110.601562 527.722656 Z M 181.851562 527.988281 " clip-rule="nonzero"/></clipPath><clipPath id="id247"><path d="M 180.636719 526.933594 L 250.386719 526.933594 L 250.386719 601.933594 L 180.636719 601.933594 Z M 180.636719 526.933594 " clip-rule="nonzero"/></clipPath><clipPath id="id248"><path d="M 168.078125 733.113281 L 315.078125 733.113281 L 315.078125 810 L 168.078125 810 Z M 168.078125 733.113281 " clip-rule="nonzero"/></clipPath><clipPath id="id249"><path d="M 108 661 L 181 661 L 181 810 L 108 810 Z M 108 661 " clip-rule="nonzero"/></clipPath><clipPath id="id250"><path d="M 180.910156 661.382812 L 180.289062 828.628906 L 108.289062 828.363281 L 108.910156 661.113281 Z M 180.910156 661.382812 " clip-rule="nonzero"/></clipPath><clipPath id="id251"><path d="M 110 661 L 146 661 L 146 810 L 110 810 Z M 110 661 " clip-rule="nonzero"/></clipPath><clipPath id="id252"><path d="M 145.257812 661.511719 L 144.683594 816.011719 L 110.183594 815.882812 L 110.757812 661.382812 Z M 145.257812 661.511719 " clip-rule="nonzero"/></clipPath><clipPath id="id253"><path d="M 180.636719 600.277344 L 315.636719 600.277344 L 315.636719 731.527344 L 180.636719 731.527344 Z M 180.636719 600.277344 " clip-rule="nonzero"/></clipPath><clipPath id="id254"><path d="M 313.945312 660.777344 L 386.695312 660.777344 L 386.695312 810 L 313.945312 810 Z M 313.945312 660.777344 " clip-rule="nonzero"/></clipPath><clipPath id="id255"><path d="M 307 527 L 383 527 L 383 600 L 307 600 Z M 307 527 " clip-rule="nonzero"/></clipPath><clipPath id="id256"><path d="M 382.964844 527.996094 L 382.699219 599.996094 L 307.699219 599.71875 L 307.96875 527.71875 Z M 382.964844 527.996094 " clip-rule="nonzero"/></clipPath><clipPath id="id257"><path d="M 170.859375 596.078125 L 315.609375 596.078125 L 315.609375 661.328125 L 170.859375 661.328125 Z M 170.859375 596.078125 " clip-rule="nonzero"/></clipPath><clipPath id="id258"><path d="M 110.433594 396.269531 L 250.683594 396.269531 L 250.683594 528.269531 L 110.433594 528.269531 Z M 110.433594 396.269531 " clip-rule="nonzero"/></clipPath><clipPath id="id259"><path d="M 394.476562 678.75 L 503.226562 678.75 L 503.226562 787.5 L 394.476562 787.5 Z M 394.476562 678.75 " clip-rule="nonzero"/></clipPath><clipPath id="id260"><path d="M 333.316406 528.207031 L 427.816406 528.207031 L 427.816406 659.457031 L 333.316406 659.457031 Z M 333.316406 528.207031 " clip-rule="nonzero"/></clipPath><clipPath id="id261"><path d="M 515.179688 555.421875 L 582.679688 555.421875 L 582.679688 623.671875 L 515.179688 623.671875 Z M 515.179688 555.421875 " clip-rule="nonzero"/></clipPath></defs><rect x="-144" width="1728" fill="#ffffff" y="-80.999999" height="971.999992" fill-opacity="1"/><rect x="-144" width="1728" fill="#ffffff" y="-80.999999" height="971.999992" fill-opacity="1"/><rect x="-144" width="1728" fill="#ffffff" y="-80.999999" height="971.999992" fill-opacity="1"/><g clip-path="url(#id1)"><path fill="#ff4848" d="M -17.714844 -3.730469 L 49.035156 -3.730469 L 49.035156 63.019531 L -17.714844 63.019531 L -17.714844 -3.730469 " fill-opacity="1" fill-rule="nonzero"/></g><g clip-path="url(#id2)"><path fill="#302b2b" d="M 49.097656 -3.730469 L 115.847656 -3.730469 L 115.847656 63.019531 L 49.097656 63.019531 L 49.097656 -3.730469 " fill-opacity="1" fill-rule="nonzero"/></g><g clip-path="url(#id3)"><path fill="#7dced1" d="M 114.050781 129.054688 L 388.550781 129.054688 L 388.550781 401.296875 L 114.050781 401.296875 L 114.050781 129.054688 " fill-opacity="1" fill-rule="nonzero"/></g><g clip-path="url(#id4)"><path fill="#7dced1" d="M -17.714844 63.082031 L 115.785156 63.082031 L 115.785156 129.832031 L -17.714844 129.832031 L -17.714844 63.082031 " fill-opacity="1" fill-rule="nonzero"/></g><g clip-path="url(#id5)"><path fill="#ff4848" d="M 115.910156 -4.40625 L 249.410156 -4.40625 L 249.410156 129.839844 L 115.910156 129.839844 L 115.910156 -4.40625 " fill-opacity="1" fill-rule="nonzero"/></g><g clip-path="url(#id6)"><path fill="#7dced1" d="M 386.703125 128.371094 L 518.703125 128.371094 L 518.703125 258.863281 L 386.703125 258.863281 L 386.703125 128.371094 " fill-opacity="1" fill-rule="nonzero"/></g><g clip-path="url(#id7)"><path fill="#ffffff" d="M 510.433594 131.632812 C 438.980469 131.632812 381.058594 190.558594 381.058594 263.253906 C 381.058594 335.945312 438.980469 394.875 510.433594 394.875 C 581.886719 394.875 639.808594 335.945312 639.808594 263.253906 C 639.808594 190.558594 581.886719 131.632812 510.433594 131.632812 " fill-opacity="1" fill-rule="nonzero"/></g><g clip-path="url(#id8)"><g clip-path="url(#id9)"><path fill="#7dced1" d="M 518.550781 62.566406 L 384.789062 62.066406 L 385.042969 -6.394531 L 518.804688 -5.898438 L 518.550781 62.566406 " fill-opacity="1" fill-rule="nonzero"/></g></g><g clip-path="url(#id10)"><g clip-path="url(#id11)"><path fill="#302b2b" d="M 518.550781 130.355469 L 384.789062 129.859375 L 385.042969 61.394531 L 518.804688 61.890625 L 518.550781 130.355469 " fill-opacity="1" fill-rule="nonzero"/></g></g><g clip-path="url(#id12)"><path fill="#ff4848" d="M 518.671875 61.105469 L 518.671875 130.355469 L 451.78125 130.355469 L 518.671875 61.105469 " fill-opacity="1" fill-rule="nonzero"/></g><g clip-path="url(#id13)"><g clip-path="url(#id14)"><path fill="#7dced1" d="M 318.789062 -3.441406 L 318.292969 130.050781 L 249.292969 129.796875 L 249.789062 -3.699219 L 318.789062 -3.441406 " fill-opacity="1" fill-rule="nonzero"/></g></g><g clip-path="url(#id15)"><g clip-path="url(#id16)"><path fill="#302b2b" d="M 386.578125 -3.441406 L 386.082031 130.050781 L 317.082031 129.796875 L 317.578125 -3.699219 L 386.578125 -3.441406 " fill-opacity="1" fill-rule="nonzero"/></g></g><g clip-path="url(#id17)"><path fill="#ff1616" d="M 317.570312 -3.425781 L 386.570312 -3.425781 L 386.570312 63.324219 L 317.570312 -3.425781 " fill-opacity="1" fill-rule="nonzero"/></g><g clip-path="url(#id18)"><g clip-path="url(#id19)"><path fill="#ff4848" d="M 115.121094 128.066406 L 114.875 194.8125 L 48.125 194.566406 L 48.371094 127.816406 L 115.121094 128.066406 " fill-opacity="1" fill-rule="nonzero"/></g></g><g clip-path="url(#id20)"><g clip-path="url(#id21)"><path fill="#ff4848" d="M -23.203125 259.496094 L 48.796875 259.765625 L 48.527344 331.765625 L -23.46875 331.496094 L -23.203125 259.496094 " fill-opacity="1" fill-rule="nonzero"/></g></g><g clip-path="url(#id22)"><g clip-path="url(#id23)"><path fill="#302b2b" d="M 48.238281 259.765625 L 120.238281 260.035156 L 119.972656 332.035156 L 47.972656 331.765625 L 48.238281 259.765625 " fill-opacity="1" fill-rule="nonzero"/></g></g><g clip-path="url(#id24)"><g clip-path="url(#id25)"><path fill="#7dced1" d="M -21.65625 331.707031 L 113.324219 332.207031 L 113.058594 404.207031 L -21.921875 403.707031 L -21.65625 331.707031 " fill-opacity="1" fill-rule="nonzero"/></g></g><g clip-path="url(#id26)"><g clip-path="url(#id27)"><path fill="#302b2b" d="M 115.121094 194.84375 L 114.875 261.59375 L 48.125 261.34375 L 48.371094 194.59375 L 115.121094 194.84375 " fill-opacity="1" fill-rule="nonzero"/></g></g><g clip-path="url(#id28)"><g clip-path="url(#id29)"><path fill="#7dced1" d="M 49.003906 127.816406 L 48.507812 261.316406 L -18.242188 261.066406 L -17.746094 127.566406 L 49.003906 127.816406 " fill-opacity="1" fill-rule="nonzero"/></g></g><g clip-path="url(#id30)"><g clip-path="url(#id31)"><path fill="#ff4848" d="M 390.320312 259.457031 L 389.789062 402.707031 L 317.789062 402.441406 L 318.320312 259.191406 L 390.320312 259.457031 " fill-opacity="1" fill-rule="nonzero"/></g></g><g clip-path="url(#id32)"><g clip-path="url(#id33)"><path fill="#302b2b" d="M 184.632812 128.984375 L 184.101562 272.234375 L 112.851562 271.96875 L 113.382812 128.71875 L 184.632812 128.984375 " fill-opacity="1" fill-rule="nonzero"/></g></g><g clip-path="url(#id34)"><path fill="#ff4848" d="M 184.636719 128.71875 L 249.882812 128.71875 L 249.882812 200.71875 L 184.636719 200.71875 L 184.636719 128.71875 " fill-opacity="1" fill-rule="nonzero"/></g><g clip-path="url(#id35)"><path fill="#302b2b" d="M 170.859375 332.722656 L 317.859375 332.722656 L 317.859375 396.472656 L 170.859375 396.472656 L 170.859375 332.722656 " fill-opacity="1" fill-rule="nonzero"/></g><g clip-path="url(#id36)"><g clip-path="url(#id37)"><path fill="#7dced1" d="M 184.632812 260.992188 L 184.101562 404.242188 L 112.101562 403.972656 L 112.632812 260.726562 L 184.632812 260.992188 " fill-opacity="1" fill-rule="nonzero"/></g></g><g clip-path="url(#id38)"><g clip-path="url(#id39)"><path fill="#ff4848" d="M 386.691406 128.625 L 386.421875 201.371094 L 318.175781 201.117188 L 318.445312 128.371094 L 386.691406 128.625 " fill-opacity="1" fill-rule="nonzero"/></g></g><g clip-path="url(#id40)"><g clip-path="url(#id41)"><path fill="#ffffff" d="M 148.917969 261.140625 L 148.386719 404.351562 L 113.136719 404.222656 L 113.667969 261.007812 L 148.917969 261.140625 " fill-opacity="1" fill-rule="nonzero"/></g></g><g clip-path="url(#id42)"><path fill="#ffffff" d="M 183.417969 201.183594 L 318.414062 201.183594 L 318.414062 332.433594 L 183.417969 332.433594 L 183.417969 201.183594 " fill-opacity="1" fill-rule="nonzero"/></g><g clip-path="url(#id43)"><path fill="#302b2b" d="M 317.703125 259.460938 L 386.699219 259.460938 L 386.699219 374.960938 L 317.703125 259.460938 " fill-opacity="1" fill-rule="nonzero"/></g><g clip-path="url(#id44)"><g clip-path="url(#id45)"><path fill="#ffffff" d="M 317.855469 128.382812 L 317.585938 201.132812 L 249.339844 200.878906 L 249.609375 128.128906 L 317.855469 128.382812 " fill-opacity="1" fill-rule="nonzero"/></g></g><g clip-path="url(#id46)"><path fill="#302b2b" d="M 386.410156 200.828125 L 249.171875 200.828125 L 249.171875 127.328125 L 386.410156 200.828125 " fill-opacity="1" fill-rule="nonzero"/></g><g clip-path="url(#id47)"><path fill="#ffffff" d="M 250.871094 129.019531 L 115.125 129.019531 L 115.125 -3.730469 L 250.871094 129.019531 " fill-opacity="1" fill-rule="nonzero"/></g><g clip-path="url(#id48)"><path fill="#7dced1" d="M 381.0625 259.191406 L 516.804688 259.191406 L 516.804688 404.691406 L 381.0625 404.691406 L 381.0625 259.191406 " fill-opacity="1" fill-rule="nonzero"/></g><g clip-path="url(#id49)"><path fill="#ffffff" d="M 451.632812 278.359375 C 421.601562 278.359375 397.257812 302.703125 397.257812 332.734375 C 397.257812 362.761719 421.601562 387.109375 451.632812 387.109375 C 481.664062 387.109375 506.007812 362.761719 506.007812 332.734375 C 506.007812 302.703125 481.664062 278.359375 451.632812 278.359375 " fill-opacity="1" fill-rule="nonzero"/></g><g clip-path="url(#id50)"><path fill="#302b2b" d="M 1055.003906 140.324219 L 919.253906 140.324219 L 919.253906 -6.667969 L 1055.003906 -6.667969 L 1055.003906 140.324219 " fill-opacity="1" fill-rule="nonzero"/></g><g clip-path="url(#id51)"><path fill="#ff4848" d="M 923.425781 -18.140625 L 923.425781 66.609375 L 856.675781 66.609375 L 856.675781 -18.140625 L 923.425781 -18.140625 " fill-opacity="1" fill-rule="nonzero"/></g><g clip-path="url(#id52)"><path fill="#302b2b" d="M 923.425781 66.671875 L 923.425781 133.421875 L 856.675781 133.421875 L 856.675781 66.671875 L 923.425781 66.671875 " fill-opacity="1" fill-rule="nonzero"/></g><g clip-path="url(#id53)"><path fill="#7dced1" d="M 856.613281 -7.5 L 856.613281 133.492188 L 789.863281 133.492188 L 789.863281 -7.5 L 856.613281 -7.5 " fill-opacity="1" fill-rule="nonzero"/></g><g clip-path="url(#id54)"><path fill="#ff4848" d="M 924.097656 133.488281 L 924.097656 266.988281 L 789.851562 266.988281 L 789.851562 133.488281 L 924.097656 133.488281 " fill-opacity="1" fill-rule="nonzero"/></g><g clip-path="url(#id55)"><g clip-path="url(#id56)"><path fill="#7dced1" d="M 923.128906 336.359375 L 789.367188 335.863281 L 789.625 267.398438 L 923.382812 267.894531 L 923.128906 336.359375 " fill-opacity="1" fill-rule="nonzero"/></g></g><g clip-path="url(#id57)"><g clip-path="url(#id58)"><path fill="#302b2b" d="M 923.128906 404.148438 L 789.367188 403.652344 L 789.625 335.1875 L 923.382812 335.683594 L 923.128906 404.148438 " fill-opacity="1" fill-rule="nonzero"/></g></g><g clip-path="url(#id59)"><path fill="#ff4848" d="M 923.25 334.898438 L 923.25 404.152344 L 856.363281 404.152344 L 923.25 334.898438 " fill-opacity="1" fill-rule="nonzero"/></g><g clip-path="url(#id60)"><g clip-path="url(#id61)"><path fill="#ff4848" d="M 791.632812 132.699219 L 724.882812 132.449219 L 725.132812 65.699219 L 791.882812 65.949219 L 791.632812 132.699219 " fill-opacity="1" fill-rule="nonzero"/></g></g><g clip-path="url(#id62)"><g clip-path="url(#id63)"><path fill="#ff4848" d="M 660.191406 -5.625 L 659.921875 66.375 L 587.925781 66.105469 L 588.191406 -5.894531 L 660.191406 -5.625 " fill-opacity="1" fill-rule="nonzero"/></g></g><g clip-path="url(#id64)"><g clip-path="url(#id65)"><path fill="#302b2b" d="M 659.921875 65.816406 L 659.65625 137.816406 L 587.65625 137.546875 L 587.921875 65.546875 L 659.921875 65.816406 " fill-opacity="1" fill-rule="nonzero"/></g></g><g clip-path="url(#id66)"><g clip-path="url(#id67)"><path fill="#7dced1" d="M 587.980469 -4.082031 L 587.445312 140.65625 L 515.445312 140.386719 L 515.984375 -4.351562 L 587.980469 -4.082031 " fill-opacity="1" fill-rule="nonzero"/></g></g><g clip-path="url(#id68)"><g clip-path="url(#id69)"><path fill="#302b2b" d="M 724.855469 132.699219 L 658.105469 132.449219 L 658.355469 65.699219 L 725.101562 65.949219 L 724.855469 132.699219 " fill-opacity="1" fill-rule="nonzero"/></g></g><g clip-path="url(#id70)"><g clip-path="url(#id71)"><path fill="#7dced1" d="M 791.875 66.574219 L 658.386719 66.078125 L 658.660156 -7.417969 L 792.148438 -6.921875 L 791.875 66.574219 " fill-opacity="1" fill-rule="nonzero"/></g></g><g clip-path="url(#id72)"><path fill="#7dced1" d="M 790.640625 131.628906 L 790.640625 404.628906 L 514.640625 404.628906 L 514.640625 131.628906 L 790.640625 131.628906 " fill-opacity="1" fill-rule="nonzero"/></g><g clip-path="url(#id73)"><g clip-path="url(#id74)"><path fill="#ff4848" d="M 658.574219 404.160156 L 515.324219 403.628906 L 515.59375 331.628906 L 658.839844 332.160156 L 658.574219 404.160156 " fill-opacity="1" fill-rule="nonzero"/></g></g><g clip-path="url(#id75)"><g clip-path="url(#id76)"><path fill="#302b2b" d="M 792.097656 202.210938 L 647.347656 201.675781 L 647.613281 130.429688 L 792.363281 130.96875 L 792.097656 202.210938 " fill-opacity="1" fill-rule="nonzero"/></g></g><g clip-path="url(#id77)"><path fill="#ff4848" d="M 790.972656 200.941406 L 790.972656 266.9375 L 718.972656 266.9375 L 718.972656 200.941406 L 790.972656 200.941406 " fill-opacity="1" fill-rule="nonzero"/></g><g clip-path="url(#id78)"><path fill="#302b2b" d="M 586.972656 188.4375 L 586.972656 332.4375 L 514.976562 332.4375 L 514.976562 188.4375 L 586.972656 188.4375 " fill-opacity="1" fill-rule="nonzero"/></g><g clip-path="url(#id79)"><g clip-path="url(#id80)"><path fill="#7dced1" d="M 658.699219 201.179688 L 514.703125 200.644531 L 514.96875 128.648438 L 658.96875 129.183594 L 658.699219 201.179688 " fill-opacity="1" fill-rule="nonzero"/></g></g><g clip-path="url(#id81)"><g clip-path="url(#id82)"><path fill="#ff4848" d="M 791.066406 404.269531 L 718.320312 404 L 718.570312 335.753906 L 791.320312 336.023438 L 791.066406 404.269531 " fill-opacity="1" fill-rule="nonzero"/></g></g><g clip-path="url(#id83)"><g clip-path="url(#id84)"><path fill="#ffffff" d="M 658.554688 166.492188 L 515.34375 165.957031 L 515.472656 130.710938 L 658.6875 131.242188 L 658.554688 166.492188 " fill-opacity="1" fill-rule="nonzero"/></g></g><g clip-path="url(#id85)"><path fill="#ff4848" d="M 721.078125 200.945312 L 721.078125 335.9375 L 628.828125 335.9375 L 628.828125 200.945312 L 721.078125 200.945312 " fill-opacity="1" fill-rule="nonzero"/></g><g clip-path="url(#id86)"><path fill="#7dced1" d="M 659.929688 335.277344 L 659.929688 404.277344 L 515.179688 404.277344 L 659.929688 335.277344 " fill-opacity="1" fill-rule="nonzero"/></g><g clip-path="url(#id87)"><g clip-path="url(#id88)"><path fill="#ffffff" d="M 791.308594 335.433594 L 718.558594 335.164062 L 718.8125 266.917969 L 791.5625 267.1875 L 791.308594 335.433594 " fill-opacity="1" fill-rule="nonzero"/></g></g><g clip-path="url(#id89)"><path fill="#302b2b" d="M 718.863281 403.984375 L 718.863281 266.746094 L 792.363281 266.746094 L 718.863281 403.984375 " fill-opacity="1" fill-rule="nonzero"/></g><g clip-path="url(#id90)"><path fill="#302b2b" d="M 791.359375 268.082031 L 791.359375 130.839844 L 924.109375 130.839844 L 791.359375 268.082031 " fill-opacity="1" fill-rule="nonzero"/></g><g clip-path="url(#id91)"><path fill="#302b2b" d="M 1392.4375 401.144531 L 1325.6875 401.144531 L 1325.6875 334.394531 L 1392.4375 334.394531 L 1392.4375 401.144531 " fill-opacity="1" fill-rule="nonzero"/></g><g clip-path="url(#id92)"><path fill="#7dced1" d="M 1459.25 334.328125 L 1328.007812 334.328125 L 1328.007812 267.578125 L 1459.25 267.578125 L 1459.25 334.328125 " fill-opacity="1" fill-rule="nonzero"/></g><g clip-path="url(#id93)"><path fill="#ff4848" d="M 1328.269531 401.816406 L 1189.527344 401.816406 L 1189.527344 267.566406 L 1328.269531 267.566406 L 1328.269531 401.816406 " fill-opacity="1" fill-rule="nonzero"/></g><g clip-path="url(#id94)"><path fill="#ff4848" d="M 1054.941406 267.511719 L 922.941406 267.511719 L 922.941406 133.265625 L 1054.941406 133.265625 L 1054.941406 267.511719 " fill-opacity="1" fill-rule="nonzero"/></g><g clip-path="url(#id95)"><g clip-path="url(#id96)"><path fill="#7dced1" d="M 922.984375 334.839844 L 1056.746094 335.339844 L 1056.488281 403.804688 L 922.730469 403.304688 L 922.984375 334.839844 " fill-opacity="1" fill-rule="nonzero"/></g></g><g clip-path="url(#id97)"><g clip-path="url(#id98)"><path fill="#302b2b" d="M 922.984375 267.050781 L 1056.746094 267.550781 L 1056.488281 336.015625 L 922.730469 335.515625 L 922.984375 267.050781 " fill-opacity="1" fill-rule="nonzero"/></g></g><g clip-path="url(#id99)"><path fill="#ff4848" d="M 922.863281 336.300781 L 922.863281 267.050781 L 989.75 267.050781 L 922.863281 336.300781 " fill-opacity="1" fill-rule="nonzero"/></g><g clip-path="url(#id100)"><g clip-path="url(#id101)"><path fill="#7dced1" d="M 1119.914062 400.847656 L 1120.410156 267.351562 L 1191.660156 267.613281 L 1191.164062 401.113281 L 1119.914062 400.847656 " fill-opacity="1" fill-rule="nonzero"/></g></g><g clip-path="url(#id102)"><g clip-path="url(#id103)"><path fill="#302b2b" d="M 1052.234375 394.25 L 1052.792969 244.253906 L 1121.792969 244.511719 L 1121.234375 394.503906 L 1052.234375 394.25 " fill-opacity="1" fill-rule="nonzero"/></g></g><g clip-path="url(#id104)"><g clip-path="url(#id105)"><path fill="#ff4848" d="M 1326.414062 269.351562 L 1326.664062 202.601562 L 1393.414062 202.851562 L 1393.164062 269.601562 L 1326.414062 269.351562 " fill-opacity="1" fill-rule="nonzero"/></g></g><g clip-path="url(#id106)"><g clip-path="url(#id107)"><path fill="#302b2b" d="M 1393.289062 137.640625 L 1321.289062 137.375 L 1321.554688 65.375 L 1393.554688 65.640625 L 1393.289062 137.640625 " fill-opacity="1" fill-rule="nonzero"/></g></g><g clip-path="url(#id108)"><g clip-path="url(#id109)"><path fill="#7dced1" d="M 1463.1875 65.699219 L 1318.449219 65.160156 L 1318.71875 -6.835938 L 1463.453125 -6.300781 L 1463.1875 65.699219 " fill-opacity="1" fill-rule="nonzero"/></g></g><g clip-path="url(#id110)"><path fill="#7dced1" d="M 1327.476562 268.355469 L 1054.476562 268.355469 L 1054.476562 -7.644531 L 1327.476562 -7.644531 L 1327.476562 268.355469 " fill-opacity="1" fill-rule="nonzero"/></g><g clip-path="url(#id111)"><g clip-path="url(#id112)"><path fill="#302b2b" d="M 1326.414062 202.574219 L 1326.664062 135.824219 L 1393.414062 136.070312 L 1393.164062 202.820312 L 1326.414062 202.574219 " fill-opacity="1" fill-rule="nonzero"/></g></g><g clip-path="url(#id113)"><g clip-path="url(#id114)"><path fill="#ff4848" d="M 1054.953125 136.292969 L 1055.484375 -6.957031 L 1127.484375 -6.691406 L 1126.953125 136.558594 L 1054.953125 136.292969 " fill-opacity="1" fill-rule="nonzero"/></g></g><g clip-path="url(#id115)"><g clip-path="url(#id116)"><path fill="#302b2b" d="M 1256.894531 269.820312 L 1257.433594 125.070312 L 1328.679688 125.335938 L 1328.140625 270.085938 L 1256.894531 269.820312 " fill-opacity="1" fill-rule="nonzero"/></g></g><g clip-path="url(#id117)"><path fill="#ff4848" d="M 1257.925781 268.359375 L 1192.679688 268.359375 L 1192.679688 196.359375 L 1257.925781 196.359375 L 1257.925781 268.359375 " fill-opacity="1" fill-rule="nonzero"/></g><g clip-path="url(#id118)"><path fill="#302b2b" d="M 1270.667969 64.691406 L 1123.667969 64.691406 L 1123.667969 -7.304688 L 1270.667969 -7.304688 L 1270.667969 64.691406 " fill-opacity="1" fill-rule="nonzero"/></g><g clip-path="url(#id119)"><g clip-path="url(#id120)"><path fill="#7dced1" d="M 1257.933594 136.425781 L 1258.464844 -6.824219 L 1330.464844 -6.558594 L 1329.933594 136.691406 L 1257.933594 136.425781 " fill-opacity="1" fill-rule="nonzero"/></g></g><g clip-path="url(#id121)"><g clip-path="url(#id122)"><path fill="#ff4848" d="M 1049.277344 268.03125 L 1049.546875 196.035156 L 1123.785156 196.308594 L 1123.515625 268.308594 L 1049.277344 268.03125 " fill-opacity="1" fill-rule="nonzero"/></g></g><g clip-path="url(#id123)"><g clip-path="url(#id124)"><path fill="#ffffff" d="M 1292.617188 136.269531 L 1293.148438 -6.945312 L 1328.398438 -6.8125 L 1327.867188 136.402344 L 1292.617188 136.269531 " fill-opacity="1" fill-rule="nonzero"/></g></g><g clip-path="url(#id125)"><path fill="#ffffff" d="M 1258.117188 196.210938 L 1123.117188 196.210938 L 1123.117188 65.710938 L 1258.117188 65.710938 L 1258.117188 196.210938 " fill-opacity="1" fill-rule="nonzero"/></g><g clip-path="url(#id126)"><path fill="#7dced1" d="M 1123.835938 137.648438 L 1054.835938 137.648438 L 1054.835938 -7.101562 L 1123.835938 137.648438 " fill-opacity="1" fill-rule="nonzero"/></g><g clip-path="url(#id127)"><g clip-path="url(#id128)"><path fill="#ffffff" d="M 1123.671875 269.027344 L 1123.941406 196.277344 L 1192.1875 196.53125 L 1191.917969 269.28125 L 1123.671875 269.027344 " fill-opacity="1" fill-rule="nonzero"/></g></g><g clip-path="url(#id129)"><path fill="#302b2b" d="M 1056.078125 196.582031 L 1197.066406 196.582031 L 1197.066406 270.082031 L 1056.078125 196.582031 " fill-opacity="1" fill-rule="nonzero"/></g><g clip-path="url(#id130)"><path fill="#ffffff" d="M 1193.230469 269.464844 L 1327.476562 269.464844 L 1327.476562 392.464844 L 1193.230469 269.464844 " fill-opacity="1" fill-rule="nonzero"/></g><g clip-path="url(#id131)"><path fill="#ffffff" d="M 989.894531 119.050781 C 1019.925781 119.050781 1044.269531 94.707031 1044.269531 64.675781 C 1044.269531 34.644531 1019.925781 10.300781 989.894531 10.300781 C 959.867188 10.300781 935.519531 34.644531 935.519531 64.675781 C 935.519531 94.707031 959.867188 119.050781 989.894531 119.050781 " fill-opacity="1" fill-rule="nonzero"/></g><g clip-path="url(#id132)"><path fill="#ff4848" d="M 1456.46875 815.945312 L 1389.71875 815.945312 L 1389.71875 734.953125 L 1456.46875 734.953125 L 1456.46875 815.945312 " fill-opacity="1" fill-rule="nonzero"/></g><g clip-path="url(#id133)"><path fill="#302b2b" d="M 1389.65625 815.945312 L 1322.90625 815.945312 L 1322.90625 734.953125 L 1389.65625 734.953125 L 1389.65625 815.945312 " fill-opacity="1" fill-rule="nonzero"/></g><g clip-path="url(#id134)"><path fill="#7dced1" d="M 1456.464844 734.722656 L 1322.964844 734.722656 L 1322.964844 667.972656 L 1456.464844 667.972656 L 1456.464844 734.722656 " fill-opacity="1" fill-rule="nonzero"/></g><g clip-path="url(#id135)"><path fill="#ff4848" d="M 1322.84375 809.992188 L 1184.847656 809.992188 L 1184.847656 668.242188 L 1322.84375 668.242188 L 1322.84375 809.992188 " fill-opacity="1" fill-rule="nonzero"/></g><g clip-path="url(#id136)"><path fill="#7dced1" d="M 1052.953125 668.058594 L 920.953125 668.058594 L 920.953125 537.5625 L 1052.953125 537.5625 L 1052.953125 668.058594 " fill-opacity="1" fill-rule="nonzero"/></g><g clip-path="url(#id137)"><path fill="#ffffff" d="M 917.648438 632.753906 C 994.488281 632.753906 1056.773438 573.824219 1056.773438 501.132812 C 1056.773438 428.4375 994.488281 369.507812 917.648438 369.507812 C 840.8125 369.507812 778.523438 428.4375 778.523438 501.132812 C 778.523438 573.824219 840.8125 632.753906 917.648438 632.753906 " fill-opacity="1" fill-rule="nonzero"/></g><g clip-path="url(#id138)"><g clip-path="url(#id139)"><path fill="#7dced1" d="M 920.203125 735.238281 L 1053.6875 735.734375 L 1053.324219 833.234375 L 919.839844 832.734375 L 920.203125 735.238281 " fill-opacity="1" fill-rule="nonzero"/></g></g><g clip-path="url(#id140)"><g clip-path="url(#id141)"><path fill="#302b2b" d="M 920.199219 667.449219 L 1053.691406 667.945312 L 1053.433594 736.945312 L 919.941406 736.445312 L 920.199219 667.449219 " fill-opacity="1" fill-rule="nonzero"/></g></g><g clip-path="url(#id142)"><path fill="#ff4848" d="M 920.210938 736.449219 L 920.210938 667.449219 L 986.960938 667.449219 L 920.210938 736.449219 " fill-opacity="1" fill-rule="nonzero"/></g><g clip-path="url(#id143)"><g clip-path="url(#id144)"><path fill="#7dced1" d="M 1119.910156 815.6875 L 1120.464844 667.191406 L 1189.464844 667.449219 L 1188.910156 815.945312 L 1119.910156 815.6875 " fill-opacity="1" fill-rule="nonzero"/></g></g><g clip-path="url(#id145)"><g clip-path="url(#id146)"><path fill="#302b2b" d="M 1052.054688 833.871094 L 1052.675781 667.378906 L 1121.675781 667.636719 L 1121.054688 834.128906 L 1052.054688 833.871094 " fill-opacity="1" fill-rule="nonzero"/></g></g><g clip-path="url(#id147)"><path fill="#ff4848" d="M 1136.96875 826.703125 L 1051.46875 826.703125 L 1051.46875 736.703125 L 1136.96875 826.703125 " fill-opacity="1" fill-rule="nonzero"/></g><g clip-path="url(#id148)"><g clip-path="url(#id149)"><path fill="#ff4848" d="M 1323.632812 669.746094 L 1323.882812 602.996094 L 1390.632812 603.242188 L 1390.382812 669.992188 L 1323.632812 669.746094 " fill-opacity="1" fill-rule="nonzero"/></g></g><g clip-path="url(#id150)"><g clip-path="url(#id151)"><path fill="#ff4848" d="M 1461.949219 538.300781 L 1389.949219 538.035156 L 1390.21875 466.035156 L 1462.21875 466.300781 L 1461.949219 538.300781 " fill-opacity="1" fill-rule="nonzero"/></g></g><g clip-path="url(#id152)"><g clip-path="url(#id153)"><path fill="#302b2b" d="M 1390.507812 538.035156 L 1318.507812 537.765625 L 1318.773438 465.765625 L 1390.773438 466.035156 L 1390.507812 538.035156 " fill-opacity="1" fill-rule="nonzero"/></g></g><g clip-path="url(#id154)"><g clip-path="url(#id155)"><path fill="#7dced1" d="M 1460.40625 466.09375 L 1315.667969 465.554688 L 1315.9375 393.554688 L 1460.675781 394.09375 L 1460.40625 466.09375 " fill-opacity="1" fill-rule="nonzero"/></g></g><g clip-path="url(#id156)"><g clip-path="url(#id157)"><path fill="#302b2b" d="M 1323.632812 602.964844 L 1323.882812 536.214844 L 1390.632812 536.464844 L 1390.382812 603.214844 L 1323.632812 602.964844 " fill-opacity="1" fill-rule="nonzero"/></g></g><g clip-path="url(#id158)"><g clip-path="url(#id159)"><path fill="#7dced1" d="M 1389.75 669.992188 L 1390.246094 536.492188 L 1456.996094 536.742188 L 1456.5 670.242188 L 1389.75 669.992188 " fill-opacity="1" fill-rule="nonzero"/></g></g><g clip-path="url(#id160)"><path fill="#7dced1" d="M 1324.695312 668.75 L 1052.445312 668.75 L 1052.445312 393.5 L 1324.695312 393.5 L 1324.695312 668.75 " fill-opacity="1" fill-rule="nonzero"/></g><g clip-path="url(#id161)"><g clip-path="url(#id162)"><path fill="#ff4848" d="M 1051.214844 536.816406 L 1051.746094 393.566406 L 1123.746094 393.835938 L 1123.214844 537.085938 L 1051.214844 536.816406 " fill-opacity="1" fill-rule="nonzero"/></g></g><g clip-path="url(#id163)"><g clip-path="url(#id164)"><path fill="#302b2b" d="M 1254.121094 668.824219 L 1254.65625 525.578125 L 1325.90625 525.839844 L 1325.371094 669.089844 L 1254.121094 668.824219 " fill-opacity="1" fill-rule="nonzero"/></g></g><g clip-path="url(#id165)"><path fill="#ff4848" d="M 1254.117188 669.082031 L 1188.871094 669.082031 L 1188.871094 597.082031 L 1254.117188 597.082031 L 1254.117188 669.082031 " fill-opacity="1" fill-rule="nonzero"/></g><g clip-path="url(#id166)"><path fill="#302b2b" d="M 1267.886719 465.085938 L 1120.886719 465.085938 L 1120.886719 393.089844 L 1267.886719 393.089844 L 1267.886719 465.085938 " fill-opacity="1" fill-rule="nonzero"/></g><g clip-path="url(#id167)"><g clip-path="url(#id168)"><path fill="#7dced1" d="M 1254.121094 536.8125 L 1254.65625 392.816406 L 1326.652344 393.082031 L 1326.117188 537.082031 L 1254.121094 536.8125 " fill-opacity="1" fill-rule="nonzero"/></g></g><g clip-path="url(#id169)"><g clip-path="url(#id170)"><path fill="#ff4848" d="M 1052.054688 669.179688 L 1052.324219 596.433594 L 1120.570312 596.683594 L 1120.300781 669.433594 L 1052.054688 669.179688 " fill-opacity="1" fill-rule="nonzero"/></g></g><g clip-path="url(#id171)"><g clip-path="url(#id172)"><path fill="#ffffff" d="M 1289.835938 536.664062 L 1290.371094 393.449219 L 1325.621094 393.582031 L 1325.085938 536.792969 L 1289.835938 536.664062 " fill-opacity="1" fill-rule="nonzero"/></g></g><g clip-path="url(#id173)"><path fill="#ffffff" d="M 1255.335938 596.621094 L 1120.335938 596.621094 L 1120.335938 465.371094 L 1255.335938 465.371094 L 1255.335938 596.621094 " fill-opacity="1" fill-rule="nonzero"/></g><g clip-path="url(#id174)"><path fill="#302b2b" d="M 1120.859375 537.808594 L 1051.863281 537.808594 L 1051.863281 391.558594 L 1120.859375 537.808594 " fill-opacity="1" fill-rule="nonzero"/></g><g clip-path="url(#id175)"><g clip-path="url(#id176)"><path fill="#ffffff" d="M 1120.890625 669.421875 L 1121.164062 596.671875 L 1189.40625 596.925781 L 1189.136719 669.675781 L 1120.890625 669.421875 " fill-opacity="1" fill-rule="nonzero"/></g></g><g clip-path="url(#id177)"><path fill="#302b2b" d="M 1052.34375 596.972656 L 1189.582031 596.972656 L 1189.582031 670.472656 L 1052.34375 596.972656 " fill-opacity="1" fill-rule="nonzero"/></g><g clip-path="url(#id178)"><path fill="#ffffff" d="M 1231.449219 668.246094 L 1366.449219 668.246094 L 1366.449219 827.988281 L 1231.449219 668.246094 " fill-opacity="1" fill-rule="nonzero"/></g><g clip-path="url(#id179)"><path fill="#302b2b" d="M 1052.960938 538.039062 L 928.464844 538.039062 L 928.464844 392.539062 L 1052.960938 392.539062 L 1052.960938 538.039062 " fill-opacity="1" fill-rule="nonzero"/></g><g clip-path="url(#id180)"><path fill="#ffffff" d="M 987.117188 519.441406 C 1017.144531 519.441406 1041.492188 495.097656 1041.492188 465.066406 C 1041.492188 435.039062 1017.144531 410.691406 987.117188 410.691406 C 957.085938 410.691406 932.742188 435.039062 932.742188 465.066406 C 932.742188 495.097656 957.085938 519.441406 987.117188 519.441406 " fill-opacity="1" fill-rule="nonzero"/></g><g clip-path="url(#id181)"><path fill="#7dced1" d="M 383.742188 664.324219 L 519.492188 664.324219 L 519.492188 815.824219 L 383.742188 815.824219 L 383.742188 664.324219 " fill-opacity="1" fill-rule="nonzero"/></g><g clip-path="url(#id182)"><path fill="#ff4848" d="M 515.328125 815.945312 L 515.328125 731.195312 L 582.078125 731.195312 L 582.078125 815.945312 L 515.328125 815.945312 " fill-opacity="1" fill-rule="nonzero"/></g><g clip-path="url(#id183)"><path fill="#302b2b" d="M 515.328125 731.132812 L 515.328125 664.382812 L 582.078125 664.382812 L 582.078125 731.132812 L 515.328125 731.132812 " fill-opacity="1" fill-rule="nonzero"/></g><g clip-path="url(#id184)"><path fill="#7dced1" d="M 582.140625 824.648438 L 582.140625 664.152344 L 648.890625 664.152344 L 648.890625 824.648438 L 582.140625 824.648438 " fill-opacity="1" fill-rule="nonzero"/></g><g clip-path="url(#id185)"><path fill="#ff4848" d="M 514.652344 664.316406 L 514.652344 530.816406 L 648.898438 530.816406 L 648.898438 664.316406 L 514.652344 664.316406 " fill-opacity="1" fill-rule="nonzero"/></g><g clip-path="url(#id186)"><g clip-path="url(#id187)"><path fill="#7dced1" d="M 515.132812 462.117188 L 650.125 462.621094 L 649.867188 532.367188 L 514.875 531.867188 L 515.132812 462.117188 " fill-opacity="1" fill-rule="nonzero"/></g></g><g clip-path="url(#id188)"><g clip-path="url(#id189)"><path fill="#302b2b" d="M 515.132812 393.652344 L 650.125 394.15625 L 649.867188 463.90625 L 514.875 463.402344 L 515.132812 393.652344 " fill-opacity="1" fill-rule="nonzero"/></g></g><g clip-path="url(#id190)"><path fill="#ff4848" d="M 515.0625 463.402344 L 515.0625 393.652344 L 582.5625 393.652344 L 515.0625 463.402344 " fill-opacity="1" fill-rule="nonzero"/></g><g clip-path="url(#id191)"><g clip-path="url(#id192)"><path fill="#ff4848" d="M 647.121094 665.113281 L 716.121094 665.371094 L 715.875 732.113281 L 646.875 731.859375 L 647.121094 665.113281 " fill-opacity="1" fill-rule="nonzero"/></g></g><g clip-path="url(#id193)"><g clip-path="url(#id194)"><path fill="#ff4848" d="M 778.476562 824.378906 L 778.824219 731.382812 L 850.824219 731.648438 L 850.476562 824.644531 L 778.476562 824.378906 " fill-opacity="1" fill-rule="nonzero"/></g></g><g clip-path="url(#id195)"><g clip-path="url(#id196)"><path fill="#302b2b" d="M 778.824219 731.984375 L 779.089844 659.984375 L 851.089844 660.25 L 850.824219 732.25 L 778.824219 731.984375 " fill-opacity="1" fill-rule="nonzero"/></g></g><g clip-path="url(#id197)"><g clip-path="url(#id198)"><path fill="#7dced1" d="M 850.652344 832.992188 L 851.304688 657.511719 L 923.300781 657.777344 L 922.648438 833.261719 L 850.652344 832.992188 " fill-opacity="1" fill-rule="nonzero"/></g></g><g clip-path="url(#id199)"><g clip-path="url(#id200)"><path fill="#302b2b" d="M 713.902344 665.109375 L 780.652344 665.359375 L 780.402344 732.109375 L 713.652344 731.859375 L 713.902344 665.109375 " fill-opacity="1" fill-rule="nonzero"/></g></g><g clip-path="url(#id201)"><g clip-path="url(#id202)"><path fill="#7dced1" d="M 646.875 731.226562 L 780.371094 731.722656 L 779.996094 832.972656 L 646.496094 832.476562 L 646.875 731.226562 " fill-opacity="1" fill-rule="nonzero"/></g></g><g clip-path="url(#id203)"><path fill="#7dced1" d="M 648.109375 666.171875 L 648.109375 393.171875 L 924.109375 393.171875 L 924.109375 666.171875 L 648.109375 666.171875 " fill-opacity="1" fill-rule="nonzero"/></g><g clip-path="url(#id204)"><g clip-path="url(#id205)"><path fill="#ff4848" d="M 780.183594 393.648438 L 923.433594 394.179688 L 923.164062 466.179688 L 779.914062 465.648438 L 780.183594 393.648438 " fill-opacity="1" fill-rule="nonzero"/></g></g><g clip-path="url(#id206)"><g clip-path="url(#id207)"><path fill="#302b2b" d="M 646.648438 595.597656 L 791.398438 596.136719 L 791.132812 667.378906 L 646.382812 666.839844 L 646.648438 595.597656 " fill-opacity="1" fill-rule="nonzero"/></g></g><g clip-path="url(#id208)"><path fill="#ff4848" d="M 647.777344 595.589844 L 647.777344 530.347656 L 719.777344 530.347656 L 719.777344 595.589844 L 647.777344 595.589844 " fill-opacity="1" fill-rule="nonzero"/></g><g clip-path="url(#id209)"><path fill="#302b2b" d="M 851.777344 609.367188 L 851.777344 462.367188 L 923.773438 462.367188 L 923.773438 609.367188 L 851.777344 609.367188 " fill-opacity="1" fill-rule="nonzero"/></g><g clip-path="url(#id210)"><g clip-path="url(#id211)"><path fill="#7dced1" d="M 780.050781 596.632812 L 924.050781 597.167969 L 923.78125 669.160156 L 779.78125 668.625 L 780.050781 596.632812 " fill-opacity="1" fill-rule="nonzero"/></g></g><g clip-path="url(#id212)"><g clip-path="url(#id213)"><path fill="#ff4848" d="M 647.679688 393.535156 L 720.429688 393.804688 L 720.175781 462.050781 L 647.425781 461.78125 L 647.679688 393.535156 " fill-opacity="1" fill-rule="nonzero"/></g></g><g clip-path="url(#id214)"><g clip-path="url(#id215)"><path fill="#ffffff" d="M 780.199219 631.308594 L 923.414062 631.84375 L 923.28125 667.09375 L 780.070312 666.558594 L 780.199219 631.308594 " fill-opacity="1" fill-rule="nonzero"/></g></g><g clip-path="url(#id216)"><path fill="#ffffff" d="M 451.054688 665.332031 L 451.054688 555.082031 L 582.300781 555.082031 L 582.300781 665.332031 L 451.054688 665.332031 " fill-opacity="1" fill-rule="nonzero"/></g><g clip-path="url(#id217)"><path fill="#7dced1" d="M 778.828125 462.53125 L 778.828125 393.53125 L 923.578125 393.53125 L 778.828125 462.53125 " fill-opacity="1" fill-rule="nonzero"/></g><g clip-path="url(#id218)"><g clip-path="url(#id219)"><path fill="#ffffff" d="M 647.4375 462.371094 L 720.1875 462.640625 L 719.933594 530.886719 L 647.183594 530.617188 L 647.4375 462.371094 " fill-opacity="1" fill-rule="nonzero"/></g></g><g clip-path="url(#id220)"><path fill="#302b2b" d="M 719.886719 393.3125 L 719.886719 532.050781 L 646.386719 532.050781 L 719.886719 393.3125 " fill-opacity="1" fill-rule="nonzero"/></g><g clip-path="url(#id221)"><path fill="#302b2b" d="M 827.492188 515.9375 L 827.492188 651.6875 L 694.742188 651.6875 L 827.492188 515.9375 " fill-opacity="1" fill-rule="nonzero"/></g><g clip-path="url(#id222)"><path fill="#302b2b" d="M 46.316406 396.664062 L 113.066406 396.664062 L 113.066406 463.414062 L 46.316406 463.414062 L 46.316406 396.664062 " fill-opacity="1" fill-rule="nonzero"/></g><g clip-path="url(#id223)"><path fill="#7dced1" d="M -20.496094 461.476562 L 112.253906 461.476562 L 112.253906 530.472656 L -20.496094 530.472656 L -20.496094 461.476562 " fill-opacity="1" fill-rule="nonzero"/></g><g clip-path="url(#id224)"><path fill="#ff4848" d="M 110.394531 395.984375 L 257.390625 395.984375 L 257.390625 529.484375 L 110.394531 529.484375 L 110.394531 395.984375 " fill-opacity="1" fill-rule="nonzero"/></g><g clip-path="url(#id225)"><g clip-path="url(#id226)"><path fill="#302b2b" d="M 443.191406 468.65625 L 442.953125 532.40625 L 317.714844 531.941406 L 317.953125 468.191406 L 443.191406 468.65625 " fill-opacity="1" fill-rule="nonzero"/></g></g><g clip-path="url(#id227)"><path fill="#ff4848" d="M 382.167969 528.210938 L 514.917969 528.210938 L 514.917969 666.203125 L 382.167969 666.203125 L 382.167969 528.210938 " fill-opacity="1" fill-rule="nonzero"/></g><g clip-path="url(#id228)"><g clip-path="url(#id229)"><path fill="#7dced1" d="M 515.632812 468.929688 L 380.648438 468.429688 L 380.914062 396.429688 L 515.902344 396.929688 L 515.632812 468.929688 " fill-opacity="1" fill-rule="nonzero"/></g></g><g clip-path="url(#id230)"><path fill="#ff4848" d="M 517.214844 461.558594 L 517.214844 532.058594 L 453.46875 532.058594 L 517.214844 461.558594 " fill-opacity="1" fill-rule="nonzero"/></g><g clip-path="url(#id231)"><g clip-path="url(#id232)"><path fill="#7dced1" d="M 318.046875 395.976562 L 317.550781 530.210938 L 250.050781 529.960938 L 250.550781 395.726562 L 318.046875 395.976562 " fill-opacity="1" fill-rule="nonzero"/></g></g><g clip-path="url(#id233)"><path fill="#ff4848" d="M 317.300781 401.101562 L 381.050781 401.101562 L 381.050781 467.847656 L 317.300781 401.101562 " fill-opacity="1" fill-rule="nonzero"/></g><g clip-path="url(#id234)"><g clip-path="url(#id235)"><path fill="#ff4848" d="M 112.339844 528.457031 L 112.09375 595.207031 L 45.34375 594.957031 L 45.589844 528.210938 L 112.339844 528.457031 " fill-opacity="1" fill-rule="nonzero"/></g></g><g clip-path="url(#id236)"><g clip-path="url(#id237)"><path fill="#302b2b" d="M 45.460938 660.160156 L 117.457031 660.425781 L 117.191406 732.425781 L 45.191406 732.160156 L 45.460938 660.160156 " fill-opacity="1" fill-rule="nonzero"/></g></g><g clip-path="url(#id238)"><g clip-path="url(#id239)"><path fill="#7dced1" d="M -24.445312 732.101562 L 120.304688 732.636719 L 119.996094 815.886719 L -24.753906 815.347656 L -24.445312 732.101562 " fill-opacity="1" fill-rule="nonzero"/></g></g><g clip-path="url(#id240)"><path fill="#302b2b" d="M 176.3125 527.601562 L 307.558594 527.601562 L 307.558594 600.351562 L 176.3125 600.351562 L 176.3125 527.601562 " fill-opacity="1" fill-rule="nonzero"/></g><g clip-path="url(#id241)"><g clip-path="url(#id242)"><path fill="#302b2b" d="M 112.339844 595.234375 L 112.09375 661.984375 L 45.34375 661.738281 L 45.589844 594.988281 L 112.339844 595.234375 " fill-opacity="1" fill-rule="nonzero"/></g></g><g clip-path="url(#id243)"><g clip-path="url(#id244)"><path fill="#ff4848" d="M 386.515625 661.535156 L 385.90625 825.015625 L 311.65625 824.738281 L 312.265625 661.257812 L 386.515625 661.535156 " fill-opacity="1" fill-rule="nonzero"/></g></g><g clip-path="url(#id245)"><g clip-path="url(#id246)"><path fill="#302b2b" d="M 181.851562 527.988281 L 181.3125 672.738281 L 110.066406 672.472656 L 110.605469 527.722656 L 181.851562 527.988281 " fill-opacity="1" fill-rule="nonzero"/></g></g><g clip-path="url(#id247)"><path fill="#ff4848" d="M 180.640625 526.933594 L 250.382812 526.933594 L 250.382812 601.933594 L 180.640625 601.933594 L 180.640625 526.933594 " fill-opacity="1" fill-rule="nonzero"/></g><g clip-path="url(#id248)"><path fill="#302b2b" d="M 168.082031 733.113281 L 315.078125 733.113281 L 315.078125 815.613281 L 168.082031 815.613281 L 168.082031 733.113281 " fill-opacity="1" fill-rule="nonzero"/></g><g clip-path="url(#id249)"><g clip-path="url(#id250)"><path fill="#7dced1" d="M 180.910156 661.390625 L 180.289062 828.621094 L 108.289062 828.355469 L 108.910156 661.121094 L 180.910156 661.390625 " fill-opacity="1" fill-rule="nonzero"/></g></g><g clip-path="url(#id251)"><g clip-path="url(#id252)"><path fill="#ffffff" d="M 145.257812 661.535156 L 144.683594 815.988281 L 110.183594 815.859375 L 110.757812 661.40625 L 145.257812 661.535156 " fill-opacity="1" fill-rule="nonzero"/></g></g><g clip-path="url(#id253)"><path fill="#ffffff" d="M 180.636719 600.277344 L 315.636719 600.277344 L 315.636719 731.527344 L 180.636719 731.527344 L 180.636719 600.277344 " fill-opacity="1" fill-rule="nonzero"/></g><g clip-path="url(#id254)"><path fill="#302b2b" d="M 313.945312 660.78125 L 386.695312 660.78125 L 386.695312 833.273438 L 313.945312 660.78125 " fill-opacity="1" fill-rule="nonzero"/></g><g clip-path="url(#id255)"><g clip-path="url(#id256)"><path fill="#ffffff" d="M 382.964844 528 L 382.699219 599.992188 L 307.699219 599.714844 L 307.96875 527.71875 L 382.964844 528 " fill-opacity="1" fill-rule="nonzero"/></g></g><g clip-path="url(#id257)"><path fill="#302b2b" d="M 315.609375 661.328125 L 170.859375 661.328125 L 170.859375 596.078125 L 315.609375 661.328125 " fill-opacity="1" fill-rule="nonzero"/></g><g clip-path="url(#id258)"><path fill="#ffffff" d="M 250.683594 528.269531 L 110.433594 528.269531 L 110.433594 396.269531 L 250.683594 528.269531 " fill-opacity="1" fill-rule="nonzero"/></g><g clip-path="url(#id259)"><path fill="#ffffff" d="M 448.851562 678.75 C 418.820312 678.75 394.476562 703.09375 394.476562 733.125 C 394.476562 763.15625 418.820312 787.5 448.851562 787.5 C 478.882812 787.5 503.226562 763.15625 503.226562 733.125 C 503.226562 703.09375 478.882812 678.75 448.851562 678.75 " fill-opacity="1" fill-rule="nonzero"/></g><g clip-path="url(#id260)"><path fill="#ffffff" d="M 380.566406 528.207031 C 354.472656 528.207031 333.320312 557.589844 333.320312 593.832031 C 333.320312 630.078125 354.472656 659.457031 380.566406 659.457031 C 406.664062 659.457031 427.816406 630.078125 427.816406 593.832031 C 427.816406 557.589844 406.664062 528.207031 380.566406 528.207031 " fill-opacity="1" fill-rule="nonzero"/></g><g clip-path="url(#id261)"><path fill="#302b2b" d="M 582.679688 623.671875 L 515.179688 623.671875 L 515.179688 555.421875 L 582.679688 623.671875 " fill-opacity="1" fill-rule="nonzero"/></g></svg>