<svg xmlns="http://www.w3.org/2000/svg" xmlns:xlink="http://www.w3.org/1999/xlink" width="1920" zoomAndPan="magnify" viewBox="0 0 1440 374.999991" height="500" preserveAspectRatio="xMidYMid meet" version="1.0"><defs><g/></defs><g fill="#000000" fill-opacity="0.4706"><g transform="translate(42.515724, 273.616688)"><g><path d="M 114.265625 -45.546875 C 114.265625 -36.242188 111.90625 -27.984375 107.1875 -20.765625 C 102.46875 -13.554688 95.660156 -7.953125 86.765625 -3.953125 C 77.878906 0.046875 67.453125 2.046875 55.484375 2.046875 C 45.503906 2.046875 37.128906 1.347656 30.359375 -0.046875 C 23.585938 -1.453125 16.546875 -3.898438 9.234375 -7.390625 L 9.234375 -43.484375 C 16.960938 -39.523438 24.992188 -36.429688 33.328125 -34.203125 C 41.671875 -31.984375 49.332031 -30.875 56.3125 -30.875 C 62.332031 -30.875 66.742188 -31.914062 69.546875 -34 C 72.347656 -36.082031 73.75 -38.765625 73.75 -42.046875 C 73.75 -44.097656 73.179688 -45.894531 72.046875 -47.4375 C 70.921875 -48.976562 69.109375 -50.535156 66.609375 -52.109375 C 64.117188 -53.679688 57.472656 -56.894531 46.671875 -61.75 C 36.890625 -66.1875 29.550781 -70.488281 24.65625 -74.65625 C 19.769531 -78.832031 16.144531 -83.625 13.78125 -89.03125 C 11.425781 -94.4375 10.25 -100.828125 10.25 -108.203125 C 10.25 -122.023438 15.273438 -132.796875 25.328125 -140.515625 C 35.378906 -148.242188 49.191406 -152.109375 66.765625 -152.109375 C 82.296875 -152.109375 98.128906 -148.519531 114.265625 -141.34375 L 101.859375 -110.0625 C 87.835938 -116.488281 75.734375 -119.703125 65.546875 -119.703125 C 60.273438 -119.703125 56.441406 -118.773438 54.046875 -116.921875 C 51.660156 -115.078125 50.46875 -112.789062 50.46875 -110.0625 C 50.46875 -107.113281 51.988281 -104.476562 55.03125 -102.15625 C 58.070312 -99.832031 66.328125 -95.59375 79.796875 -89.4375 C 92.722656 -83.625 101.695312 -77.382812 106.71875 -70.71875 C 111.75 -64.050781 114.265625 -55.660156 114.265625 -45.546875 Z M 114.265625 -45.546875 "/></g></g><g transform="translate(163.751513, 273.616688)"><g><path d="M 158.984375 0 L 105.859375 0 L 51.078125 -105.640625 L 50.15625 -105.640625 C 51.457031 -89.023438 52.109375 -76.34375 52.109375 -67.59375 L 52.109375 0 L 16.203125 0 L 16.203125 -149.953125 L 69.125 -149.953125 L 123.703125 -45.75 L 124.3125 -45.75 C 123.351562 -60.851562 122.875 -72.988281 122.875 -82.15625 L 122.875 -149.953125 L 158.984375 -149.953125 Z M 158.984375 0 "/></g></g><g transform="translate(338.938254, 273.616688)"><g><path d="M 108.203125 0 L 100.828125 -28.109375 L 52.109375 -28.109375 L 44.515625 0 L 0 0 L 48.921875 -150.578125 L 102.984375 -150.578125 L 152.515625 0 Z M 92.421875 -61.34375 L 85.953125 -85.953125 C 84.453125 -91.421875 82.625 -98.5 80.46875 -107.1875 C 78.3125 -115.875 76.890625 -122.097656 76.203125 -125.859375 C 75.585938 -122.367188 74.375 -116.625 72.5625 -108.625 C 70.75 -100.625 66.734375 -84.863281 60.515625 -61.34375 Z M 92.421875 -61.34375 "/></g></g><g transform="translate(491.457389, 273.616688)"><g><path d="M 82.984375 -118.875 C 73.335938 -118.875 65.8125 -114.925781 60.40625 -107.03125 C 55.007812 -99.132812 52.3125 -88.242188 52.3125 -74.359375 C 52.3125 -45.503906 63.285156 -31.078125 85.234375 -31.078125 C 91.867188 -31.078125 98.296875 -32 104.515625 -33.84375 C 110.742188 -35.695312 117 -37.921875 123.28125 -40.515625 L 123.28125 -6.25 C 110.769531 -0.71875 96.617188 2.046875 80.828125 2.046875 C 58.191406 2.046875 40.835938 -4.515625 28.765625 -17.640625 C 16.703125 -30.765625 10.671875 -49.738281 10.671875 -74.5625 C 10.671875 -90.082031 13.59375 -103.722656 19.4375 -115.484375 C 25.28125 -127.253906 33.6875 -136.300781 44.65625 -142.625 C 55.632812 -148.945312 68.546875 -152.109375 83.390625 -152.109375 C 99.597656 -152.109375 115.085938 -148.585938 129.859375 -141.546875 L 117.4375 -109.640625 C 111.90625 -112.242188 106.367188 -114.429688 100.828125 -116.203125 C 95.285156 -117.984375 89.335938 -118.875 82.984375 -118.875 Z M 82.984375 -118.875 "/></g></g><g transform="translate(627.770725, 273.616688)"><g><path d="M 144.3125 0 L 98.5625 0 L 68.921875 -57.34375 L 56.921875 -50.15625 L 56.921875 0 L 16.203125 0 L 16.203125 -149.953125 L 56.921875 -149.953125 L 56.921875 -84.828125 C 58.972656 -88.859375 63.113281 -95.25 69.34375 -104 L 100.828125 -149.953125 L 145.140625 -149.953125 L 97.84375 -82.78125 Z M 144.3125 0 "/></g></g></g><g fill="#a6a6a6" fill-opacity="1"><g transform="translate(37.502637, 268.603602)"><g><path d="M 114.265625 -45.546875 C 114.265625 -36.242188 111.90625 -27.984375 107.1875 -20.765625 C 102.46875 -13.554688 95.660156 -7.953125 86.765625 -3.953125 C 77.878906 0.046875 67.453125 2.046875 55.484375 2.046875 C 45.503906 2.046875 37.128906 1.347656 30.359375 -0.046875 C 23.585938 -1.453125 16.546875 -3.898438 9.234375 -7.390625 L 9.234375 -43.484375 C 16.960938 -39.523438 24.992188 -36.429688 33.328125 -34.203125 C 41.671875 -31.984375 49.332031 -30.875 56.3125 -30.875 C 62.332031 -30.875 66.742188 -31.914062 69.546875 -34 C 72.347656 -36.082031 73.75 -38.765625 73.75 -42.046875 C 73.75 -44.097656 73.179688 -45.894531 72.046875 -47.4375 C 70.921875 -48.976562 69.109375 -50.535156 66.609375 -52.109375 C 64.117188 -53.679688 57.472656 -56.894531 46.671875 -61.75 C 36.890625 -66.1875 29.550781 -70.488281 24.65625 -74.65625 C 19.769531 -78.832031 16.144531 -83.625 13.78125 -89.03125 C 11.425781 -94.4375 10.25 -100.828125 10.25 -108.203125 C 10.25 -122.023438 15.273438 -132.796875 25.328125 -140.515625 C 35.378906 -148.242188 49.191406 -152.109375 66.765625 -152.109375 C 82.296875 -152.109375 98.128906 -148.519531 114.265625 -141.34375 L 101.859375 -110.0625 C 87.835938 -116.488281 75.734375 -119.703125 65.546875 -119.703125 C 60.273438 -119.703125 56.441406 -118.773438 54.046875 -116.921875 C 51.660156 -115.078125 50.46875 -112.789062 50.46875 -110.0625 C 50.46875 -107.113281 51.988281 -104.476562 55.03125 -102.15625 C 58.070312 -99.832031 66.328125 -95.59375 79.796875 -89.4375 C 92.722656 -83.625 101.695312 -77.382812 106.71875 -70.71875 C 111.75 -64.050781 114.265625 -55.660156 114.265625 -45.546875 Z M 114.265625 -45.546875 "/></g></g><g transform="translate(158.738426, 268.603602)"><g><path d="M 158.984375 0 L 105.859375 0 L 51.078125 -105.640625 L 50.15625 -105.640625 C 51.457031 -89.023438 52.109375 -76.34375 52.109375 -67.59375 L 52.109375 0 L 16.203125 0 L 16.203125 -149.953125 L 69.125 -149.953125 L 123.703125 -45.75 L 124.3125 -45.75 C 123.351562 -60.851562 122.875 -72.988281 122.875 -82.15625 L 122.875 -149.953125 L 158.984375 -149.953125 Z M 158.984375 0 "/></g></g><g transform="translate(333.925167, 268.603602)"><g><path d="M 108.203125 0 L 100.828125 -28.109375 L 52.109375 -28.109375 L 44.515625 0 L 0 0 L 48.921875 -150.578125 L 102.984375 -150.578125 L 152.515625 0 Z M 92.421875 -61.34375 L 85.953125 -85.953125 C 84.453125 -91.421875 82.625 -98.5 80.46875 -107.1875 C 78.3125 -115.875 76.890625 -122.097656 76.203125 -125.859375 C 75.585938 -122.367188 74.375 -116.625 72.5625 -108.625 C 70.75 -100.625 66.734375 -84.863281 60.515625 -61.34375 Z M 92.421875 -61.34375 "/></g></g><g transform="translate(486.444302, 268.603602)"><g><path d="M 82.984375 -118.875 C 73.335938 -118.875 65.8125 -114.925781 60.40625 -107.03125 C 55.007812 -99.132812 52.3125 -88.242188 52.3125 -74.359375 C 52.3125 -45.503906 63.285156 -31.078125 85.234375 -31.078125 C 91.867188 -31.078125 98.296875 -32 104.515625 -33.84375 C 110.742188 -35.695312 117 -37.921875 123.28125 -40.515625 L 123.28125 -6.25 C 110.769531 -0.71875 96.617188 2.046875 80.828125 2.046875 C 58.191406 2.046875 40.835938 -4.515625 28.765625 -17.640625 C 16.703125 -30.765625 10.671875 -49.738281 10.671875 -74.5625 C 10.671875 -90.082031 13.59375 -103.722656 19.4375 -115.484375 C 25.28125 -127.253906 33.6875 -136.300781 44.65625 -142.625 C 55.632812 -148.945312 68.546875 -152.109375 83.390625 -152.109375 C 99.597656 -152.109375 115.085938 -148.585938 129.859375 -141.546875 L 117.4375 -109.640625 C 111.90625 -112.242188 106.367188 -114.429688 100.828125 -116.203125 C 95.285156 -117.984375 89.335938 -118.875 82.984375 -118.875 Z M 82.984375 -118.875 "/></g></g><g transform="translate(622.757638, 268.603602)"><g><path d="M 144.3125 0 L 98.5625 0 L 68.921875 -57.34375 L 56.921875 -50.15625 L 56.921875 0 L 16.203125 0 L 16.203125 -149.953125 L 56.921875 -149.953125 L 56.921875 -84.828125 C 58.972656 -88.859375 63.113281 -95.25 69.34375 -104 L 100.828125 -149.953125 L 145.140625 -149.953125 L 97.84375 -82.78125 Z M 144.3125 0 "/></g></g></g><g fill="#000000" fill-opacity="0.451"><g transform="translate(785.215105, 256.638718)"><g><path d="M 110.640625 -32.675781 C 128.757812 -38.175781 146.875 -44.96875 164.34375 -53.378906 C 197.019531 -69.230469 229.695312 -92.199219 248.78125 -123.90625 C 258.164062 -139.109375 260.105469 -156.578125 248.457031 -171.460938 C 238.753906 -183.753906 223.546875 -189.253906 208.34375 -190.871094 C 171.136719 -195.078125 129.082031 -184.402344 95.113281 -170.492188 C 74.40625 -162.078125 54.996094 -151.082031 36.878906 -138.140625 C 20.703125 -126.492188 2.589844 -111.289062 11.644531 -89.613281 C 14.882812 -81.523438 31.703125 -76.347656 26.527344 -89.289062 C 20.703125 -103.199219 45.617188 -118.730469 54.671875 -124.875 C 68.261719 -134.582031 83.144531 -142.992188 98.347656 -149.785156 C 128.433594 -163.375 160.785156 -171.785156 193.785156 -174.050781 C 206.402344 -174.695312 221.28125 -175.667969 232.605469 -169.519531 C 248.457031 -161.109375 234.871094 -139.109375 227.429688 -129.40625 C 208.988281 -105.140625 184.402344 -86.703125 157.550781 -72.789062 C 142.023438 -64.703125 126.167969 -58.230469 109.671875 -53.054688 C 106.4375 -51.761719 102.230469 -50.144531 97.699219 -48.527344 C 109.996094 -76.996094 124.550781 -104.171875 142.023438 -130.050781 C 146.875 -136.847656 131.347656 -151.082031 127.140625 -144.933594 C 105.464844 -112.90625 87.347656 -78.613281 73.761719 -42.378906 C 68.90625 -42.054688 64.054688 -42.378906 60.171875 -43.996094 C 59.203125 -45.292969 58.230469 -46.261719 57.261719 -47.234375 C 52.085938 -53.703125 36.234375 -39.46875 41.410156 -33.320312 C 48.203125 -25.234375 55.320312 -18.117188 63.085938 -11.324219 C 59.203125 1.617188 55.644531 14.558594 52.734375 27.820312 C 51.113281 35.585938 67.613281 48.203125 69.554688 40.117188 C 72.46875 27.175781 75.703125 14.558594 79.585938 1.941406 C 91.878906 11.324219 105.140625 19.410156 118.082031 26.851562 C 152.375 46.261719 191.84375 61.46875 231.957031 58.554688 C 236.8125 57.910156 241.664062 54.671875 244.25 50.144531 C 245.546875 47.554688 246.839844 41.410156 241.664062 41.734375 C 202.519531 44.644531 164.667969 29.761719 131.347656 11 C 115.816406 2.265625 100.613281 -7.765625 86.378906 -19.085938 C 87.347656 -21.675781 87.996094 -24.261719 88.964844 -26.527344 C 96.40625 -28.144531 103.523438 -30.410156 110.640625 -32.675781 Z M 110.640625 -32.675781 "/></g></g></g><g fill="#000000" fill-opacity="0.451"><g transform="translate(998.085933, 256.638718)"><g><path d="M 60.820312 -39.792969 C 45.617188 -27.175781 14.558594 -10.351562 1.617188 -8.085938 C 1.941406 -9.382812 2.589844 -11 3.234375 -12.292969 C 7.117188 -22.644531 11.644531 -32.027344 17.46875 -41.410156 C 21.027344 -47.878906 5.175781 -61.789062 0.648438 -53.703125 C -6.46875 -41.734375 -17.144531 -25.234375 -16.824219 -11 C -16.5 1.617188 -4.527344 13.265625 8.085938 10.675781 C 19.085938 8.410156 29.761719 0.96875 38.820312 -5.175781 C 50.144531 -12.941406 61.144531 -21.351562 71.820312 -30.410156 C 77.644531 -35.261719 67.289062 -45.292969 60.820312 -39.792969 Z M 31.703125 -73.761719 C 36.558594 -83.144531 37.203125 -85.082031 37.203125 -85.082031 C 41.085938 -91.554688 25.234375 -105.140625 20.703125 -97.054688 C 20.703125 -97.054688 18.765625 -93.820312 15.207031 -86.054688 C 11.96875 -78.9375 27.820312 -65.996094 31.703125 -73.761719 Z M 31.703125 -73.761719 "/></g></g></g><g fill="#000000" fill-opacity="0.451"><g transform="translate(1061.494255, 256.638718)"><g><path d="M 59.203125 -43.027344 C 52.410156 -40.4375 36.878906 -36.234375 20.703125 -28.792969 C 19.085938 -30.410156 17.46875 -32.027344 15.851562 -33.96875 C 11.96875 -38.820312 9.058594 -50.46875 19.410156 -49.820312 C 24.261719 -49.496094 23.941406 -55.320312 22.324219 -58.230469 C 20.382812 -62.4375 15.527344 -66.644531 10.675781 -66.96875 C -5.5 -68.261719 -7.765625 -50.144531 -1.941406 -38.496094 C 1.292969 -32.027344 6.792969 -27.5 11.324219 -21.675781 C -6.46875 -7.117188 -19.085938 11 -1.617188 25.558594 C 14.882812 39.144531 30.410156 19.085938 32.675781 3.234375 C 33.320312 -1.617188 33 -6.46875 31.703125 -11 C 41.734375 -18.765625 53.054688 -24.910156 64.703125 -29.441406 C 73.113281 -32.675781 66.320312 -45.9375 59.203125 -43.027344 Z M 59.203125 -43.027344 "/></g></g></g><g fill="#000000" fill-opacity="0.451"><g transform="translate(1123.285045, 256.638718)"><g><path d="M 160.785156 -123.90625 C 130.375 -139.757812 92.523438 -140.082031 58.230469 -139.757812 C 63.085938 -150.433594 68.261719 -161.109375 73.4375 -171.460938 C 76.671875 -178.253906 60.496094 -192.167969 56.613281 -183.753906 C 49.496094 -169.195312 42.378906 -154.316406 35.585938 -139.433594 C -1.941406 -138.140625 -39.792969 -133.933594 -76.996094 -126.816406 C -84.761719 -125.199219 -72.46875 -108.699219 -64.703125 -109.996094 C -33.96875 -116.140625 -3.234375 -119.699219 27.820312 -121.316406 C 1.617188 -61.789062 -19.085938 0.324219 -18.117188 66.320312 C -17.792969 73.761719 -0.648438 85.40625 -0.96875 75.054688 C -1.941406 5.5 21.675781 -59.851562 50.144531 -122.289062 C 50.46875 -122.289062 50.792969 -122.289062 51.113281 -122.289062 C 69.554688 -122.609375 87.996094 -122.289062 106.4375 -120.992188 C 125.199219 -119.699219 144.285156 -118.082031 161.109375 -109.023438 C 164.667969 -107.082031 168.875 -107.40625 169.519531 -112.257812 C 169.84375 -116.789062 164.34375 -121.964844 160.785156 -123.90625 Z M 160.785156 -123.90625 "/></g></g></g><g fill="#000000" fill-opacity="0.451"><g transform="translate(1167.92968, 256.638718)"><g><path d="M 59.851562 -42.378906 C 48.527344 -61.144531 33 -57.910156 18.117188 -46.585938 C 15.851562 -53.703125 4.207031 -61.46875 1.617188 -54.671875 C -5.5 -35.585938 -13.265625 -16.824219 -20.382812 2.265625 C -22.96875 9.382812 -7.441406 22.96875 -3.558594 14.558594 C 1.941406 2.589844 9.382812 -8.410156 18.441406 -17.792969 C 22.324219 -22.324219 26.851562 -26.527344 31.703125 -30.085938 C 33.96875 -31.703125 43.351562 -38.820312 47.554688 -38.820312 C 50.144531 -36.234375 53.378906 -33.644531 56.613281 -33.96875 C 61.46875 -34.292969 62.113281 -38.820312 59.851562 -42.378906 Z M 59.851562 -42.378906 "/></g></g></g><g fill="#000000" fill-opacity="0.451"><g transform="translate(1246.543078, 256.638718)"><g><path d="M 83.789062 -40.4375 C 64.703125 -25.558594 18.117188 -2.589844 -1.292969 0 C -0.648438 -2.589844 0.324219 -5.175781 1.292969 -7.441406 C 12.941406 -12.941406 56.292969 -29.761719 37.851562 -48.851562 C 25.234375 -62.113281 8.085938 -50.144531 -1.617188 -39.792969 C -12.292969 -28.144531 -27.175781 -5.175781 -15.527344 10.351562 C -8.085938 20.703125 2.910156 19.734375 13.585938 16.175781 C 42.703125 5.824219 69.554688 -13.585938 95.113281 -30.085938 C 101.257812 -34.292969 90.582031 -45.617188 83.789062 -40.4375 Z M 83.789062 -40.4375 "/></g></g></g><g fill="#000000" fill-opacity="0.451"><g transform="translate(1332.273786, 256.638718)"><g><path d="M 74.085938 -39.46875 C 65.027344 -29.761719 33.320312 -12.941406 9.707031 -9.707031 C 8.410156 -21.675781 17.144531 -39.46875 20.058594 -47.878906 C 25.882812 -65.027344 31.703125 -82.171875 37.851562 -98.996094 C 50.46875 -133.609375 64.054688 -167.902344 78.289062 -201.871094 C 81.203125 -208.988281 65.027344 -222.578125 61.46875 -214.164062 C 48.527344 -183.109375 36.234375 -151.726562 24.585938 -120.023438 C 18.765625 -104.816406 13.585938 -89.613281 8.085938 -74.085938 C 3.234375 -59.527344 -2.910156 -44.644531 -6.148438 -29.441406 C -8.410156 -18.441406 -7.441406 -7.441406 0.324219 1.617188 C 7.441406 10.351562 17.144531 8.734375 27.175781 5.5 C 47.878906 -0.648438 68.90625 -14.558594 83.789062 -30.410156 C 89.289062 -36.558594 79.585938 -45.617188 74.085938 -39.46875 Z M 74.085938 -39.46875 "/></g></g></g><g fill="#545454" fill-opacity="1"><g transform="translate(779.782057, 251.205658)"><g><path d="M 110.640625 -32.675781 C 128.757812 -38.175781 146.875 -44.96875 164.34375 -53.378906 C 197.019531 -69.230469 229.695312 -92.199219 248.78125 -123.90625 C 258.164062 -139.109375 260.105469 -156.578125 248.457031 -171.460938 C 238.753906 -183.753906 223.546875 -189.253906 208.34375 -190.871094 C 171.136719 -195.078125 129.082031 -184.402344 95.113281 -170.492188 C 74.40625 -162.078125 54.996094 -151.082031 36.878906 -138.140625 C 20.703125 -126.492188 2.589844 -111.289062 11.644531 -89.613281 C 14.882812 -81.523438 31.703125 -76.347656 26.527344 -89.289062 C 20.703125 -103.199219 45.617188 -118.730469 54.671875 -124.875 C 68.261719 -134.582031 83.144531 -142.992188 98.347656 -149.785156 C 128.433594 -163.375 160.785156 -171.785156 193.785156 -174.050781 C 206.402344 -174.695312 221.28125 -175.667969 232.605469 -169.519531 C 248.457031 -161.109375 234.871094 -139.109375 227.429688 -129.40625 C 208.988281 -105.140625 184.402344 -86.703125 157.550781 -72.789062 C 142.023438 -64.703125 126.167969 -58.230469 109.671875 -53.054688 C 106.4375 -51.761719 102.230469 -50.144531 97.699219 -48.527344 C 109.996094 -76.996094 124.550781 -104.171875 142.023438 -130.050781 C 146.875 -136.847656 131.347656 -151.082031 127.140625 -144.933594 C 105.464844 -112.90625 87.347656 -78.613281 73.761719 -42.378906 C 68.90625 -42.054688 64.054688 -42.378906 60.171875 -43.996094 C 59.203125 -45.292969 58.230469 -46.261719 57.261719 -47.234375 C 52.085938 -53.703125 36.234375 -39.46875 41.410156 -33.320312 C 48.203125 -25.234375 55.320312 -18.117188 63.085938 -11.324219 C 59.203125 1.617188 55.644531 14.558594 52.734375 27.820312 C 51.113281 35.585938 67.613281 48.203125 69.554688 40.117188 C 72.46875 27.175781 75.703125 14.558594 79.585938 1.941406 C 91.878906 11.324219 105.140625 19.410156 118.082031 26.851562 C 152.375 46.261719 191.84375 61.46875 231.957031 58.554688 C 236.8125 57.910156 241.664062 54.671875 244.25 50.144531 C 245.546875 47.554688 246.839844 41.410156 241.664062 41.734375 C 202.519531 44.644531 164.667969 29.761719 131.347656 11 C 115.816406 2.265625 100.613281 -7.765625 86.378906 -19.085938 C 87.347656 -21.675781 87.996094 -24.261719 88.964844 -26.527344 C 96.40625 -28.144531 103.523438 -30.410156 110.640625 -32.675781 Z M 110.640625 -32.675781 "/></g></g></g><g fill="#545454" fill-opacity="1"><g transform="translate(992.652886, 251.205658)"><g><path d="M 60.820312 -39.792969 C 45.617188 -27.175781 14.558594 -10.351562 1.617188 -8.085938 C 1.941406 -9.382812 2.589844 -11 3.234375 -12.292969 C 7.117188 -22.644531 11.644531 -32.027344 17.46875 -41.410156 C 21.027344 -47.878906 5.175781 -61.789062 0.648438 -53.703125 C -6.46875 -41.734375 -17.144531 -25.234375 -16.824219 -11 C -16.5 1.617188 -4.527344 13.265625 8.085938 10.675781 C 19.085938 8.410156 29.761719 0.96875 38.820312 -5.175781 C 50.144531 -12.941406 61.144531 -21.351562 71.820312 -30.410156 C 77.644531 -35.261719 67.289062 -45.292969 60.820312 -39.792969 Z M 31.703125 -73.761719 C 36.558594 -83.144531 37.203125 -85.082031 37.203125 -85.082031 C 41.085938 -91.554688 25.234375 -105.140625 20.703125 -97.054688 C 20.703125 -97.054688 18.765625 -93.820312 15.207031 -86.054688 C 11.96875 -78.9375 27.820312 -65.996094 31.703125 -73.761719 Z M 31.703125 -73.761719 "/></g></g></g><g fill="#545454" fill-opacity="1"><g transform="translate(1056.061207, 251.205658)"><g><path d="M 59.203125 -43.027344 C 52.410156 -40.4375 36.878906 -36.234375 20.703125 -28.792969 C 19.085938 -30.410156 17.46875 -32.027344 15.851562 -33.96875 C 11.96875 -38.820312 9.058594 -50.46875 19.410156 -49.820312 C 24.261719 -49.496094 23.941406 -55.320312 22.324219 -58.230469 C 20.382812 -62.4375 15.527344 -66.644531 10.675781 -66.96875 C -5.5 -68.261719 -7.765625 -50.144531 -1.941406 -38.496094 C 1.292969 -32.027344 6.792969 -27.5 11.324219 -21.675781 C -6.46875 -7.117188 -19.085938 11 -1.617188 25.558594 C 14.882812 39.144531 30.410156 19.085938 32.675781 3.234375 C 33.320312 -1.617188 33 -6.46875 31.703125 -11 C 41.734375 -18.765625 53.054688 -24.910156 64.703125 -29.441406 C 73.113281 -32.675781 66.320312 -45.9375 59.203125 -43.027344 Z M 59.203125 -43.027344 "/></g></g></g><g fill="#545454" fill-opacity="1"><g transform="translate(1117.851998, 251.205658)"><g><path d="M 160.785156 -123.90625 C 130.375 -139.757812 92.523438 -140.082031 58.230469 -139.757812 C 63.085938 -150.433594 68.261719 -161.109375 73.4375 -171.460938 C 76.671875 -178.253906 60.496094 -192.167969 56.613281 -183.753906 C 49.496094 -169.195312 42.378906 -154.316406 35.585938 -139.433594 C -1.941406 -138.140625 -39.792969 -133.933594 -76.996094 -126.816406 C -84.761719 -125.199219 -72.46875 -108.699219 -64.703125 -109.996094 C -33.96875 -116.140625 -3.234375 -119.699219 27.820312 -121.316406 C 1.617188 -61.789062 -19.085938 0.324219 -18.117188 66.320312 C -17.792969 73.761719 -0.648438 85.40625 -0.96875 75.054688 C -1.941406 5.5 21.675781 -59.851562 50.144531 -122.289062 C 50.46875 -122.289062 50.792969 -122.289062 51.113281 -122.289062 C 69.554688 -122.609375 87.996094 -122.289062 106.4375 -120.992188 C 125.199219 -119.699219 144.285156 -118.082031 161.109375 -109.023438 C 164.667969 -107.082031 168.875 -107.40625 169.519531 -112.257812 C 169.84375 -116.789062 164.34375 -121.964844 160.785156 -123.90625 Z M 160.785156 -123.90625 "/></g></g></g><g fill="#545454" fill-opacity="1"><g transform="translate(1162.496633, 251.205658)"><g><path d="M 59.851562 -42.378906 C 48.527344 -61.144531 33 -57.910156 18.117188 -46.585938 C 15.851562 -53.703125 4.207031 -61.46875 1.617188 -54.671875 C -5.5 -35.585938 -13.265625 -16.824219 -20.382812 2.265625 C -22.96875 9.382812 -7.441406 22.96875 -3.558594 14.558594 C 1.941406 2.589844 9.382812 -8.410156 18.441406 -17.792969 C 22.324219 -22.324219 26.851562 -26.527344 31.703125 -30.085938 C 33.96875 -31.703125 43.351562 -38.820312 47.554688 -38.820312 C 50.144531 -36.234375 53.378906 -33.644531 56.613281 -33.96875 C 61.46875 -34.292969 62.113281 -38.820312 59.851562 -42.378906 Z M 59.851562 -42.378906 "/></g></g></g><g fill="#545454" fill-opacity="1"><g transform="translate(1241.110031, 251.205658)"><g><path d="M 83.789062 -40.4375 C 64.703125 -25.558594 18.117188 -2.589844 -1.292969 0 C -0.648438 -2.589844 0.324219 -5.175781 1.292969 -7.441406 C 12.941406 -12.941406 56.292969 -29.761719 37.851562 -48.851562 C 25.234375 -62.113281 8.085938 -50.144531 -1.617188 -39.792969 C -12.292969 -28.144531 -27.175781 -5.175781 -15.527344 10.351562 C -8.085938 20.703125 2.910156 19.734375 13.585938 16.175781 C 42.703125 5.824219 69.554688 -13.585938 95.113281 -30.085938 C 101.257812 -34.292969 90.582031 -45.617188 83.789062 -40.4375 Z M 83.789062 -40.4375 "/></g></g></g><g fill="#545454" fill-opacity="1"><g transform="translate(1326.840738, 251.205658)"><g><path d="M 74.085938 -39.46875 C 65.027344 -29.761719 33.320312 -12.941406 9.707031 -9.707031 C 8.410156 -21.675781 17.144531 -39.46875 20.058594 -47.878906 C 25.882812 -65.027344 31.703125 -82.171875 37.851562 -98.996094 C 50.46875 -133.609375 64.054688 -167.902344 78.289062 -201.871094 C 81.203125 -208.988281 65.027344 -222.578125 61.46875 -214.164062 C 48.527344 -183.109375 36.234375 -151.726562 24.585938 -120.023438 C 18.765625 -104.816406 13.585938 -89.613281 8.085938 -74.085938 C 3.234375 -59.527344 -2.910156 -44.644531 -6.148438 -29.441406 C -8.410156 -18.441406 -7.441406 -7.441406 0.324219 1.617188 C 7.441406 10.351562 17.144531 8.734375 27.175781 5.5 C 47.878906 -0.648438 68.90625 -14.558594 83.789062 -30.410156 C 89.289062 -36.558594 79.585938 -45.617188 74.085938 -39.46875 Z M 74.085938 -39.46875 "/></g></g></g></svg>