<svg xmlns="http://www.w3.org/2000/svg" xmlns:xlink="http://www.w3.org/1999/xlink" width="1920" zoomAndPan="magnify" viewBox="0 0 1440 809.999993" height="1080" preserveAspectRatio="xMidYMid meet" version="1.0"><defs><g/><clipPath id="id1"><path d="M 877 573 L 907 573 L 907 599 L 877 599 Z M 877 573 " clip-rule="nonzero"/></clipPath><clipPath id="id2"><path d="M 874.269531 591.582031 L 901.992188 569.808594 L 910.332031 580.421875 L 882.609375 602.195312 Z M 874.269531 591.582031 " clip-rule="nonzero"/></clipPath></defs><g fill="#ffffff" fill-opacity="1"><g transform="translate(208.051621, 357.454653)"><g><path d="M 152.546875 -60.796875 C 152.546875 -48.378906 149.394531 -37.351562 143.09375 -27.71875 C 136.800781 -18.09375 127.71875 -10.609375 115.84375 -5.265625 C 103.976562 0.0664062 90.054688 2.734375 74.078125 2.734375 C 60.753906 2.734375 49.570312 1.800781 40.53125 -0.0625 C 31.5 -1.9375 22.097656 -5.203125 12.328125 -9.859375 L 12.328125 -58.0625 C 22.640625 -52.769531 33.363281 -48.640625 44.5 -45.671875 C 55.644531 -42.703125 65.875 -41.21875 75.1875 -41.21875 C 83.21875 -41.21875 89.101562 -42.609375 92.84375 -45.390625 C 96.582031 -48.179688 98.453125 -51.765625 98.453125 -56.140625 C 98.453125 -58.878906 97.695312 -61.273438 96.1875 -63.328125 C 94.6875 -65.390625 92.269531 -67.46875 88.9375 -69.5625 C 85.601562 -71.664062 76.726562 -75.957031 62.3125 -82.4375 C 49.25 -88.375 39.453125 -94.125 32.921875 -99.6875 C 26.398438 -105.257812 21.5625 -111.648438 18.40625 -118.859375 C 15.257812 -126.078125 13.6875 -134.613281 13.6875 -144.46875 C 13.6875 -162.914062 20.394531 -177.296875 33.8125 -187.609375 C 47.238281 -197.921875 65.679688 -203.078125 89.140625 -203.078125 C 109.867188 -203.078125 131.003906 -198.285156 152.546875 -188.703125 L 135.984375 -146.9375 C 117.265625 -155.519531 101.101562 -159.8125 87.5 -159.8125 C 80.46875 -159.8125 75.351562 -158.578125 72.15625 -156.109375 C 68.96875 -153.648438 67.375 -150.59375 67.375 -146.9375 C 67.375 -143.007812 69.40625 -139.492188 73.46875 -136.390625 C 77.53125 -133.285156 88.554688 -127.625 106.546875 -119.40625 C 123.796875 -111.644531 135.773438 -103.3125 142.484375 -94.40625 C 149.191406 -85.507812 152.546875 -74.304688 152.546875 -60.796875 Z M 152.546875 -60.796875 "/></g></g><g transform="translate(369.911445, 357.454653)"><g><path d="M 212.25 0 L 141.328125 0 L 68.203125 -141.046875 L 66.96875 -141.046875 C 68.695312 -118.859375 69.5625 -101.925781 69.5625 -90.25 L 69.5625 0 L 21.640625 0 L 21.640625 -200.203125 L 92.296875 -200.203125 L 165.15625 -61.078125 L 165.96875 -61.078125 C 164.6875 -81.253906 164.046875 -97.457031 164.046875 -109.6875 L 164.046875 -200.203125 L 212.25 -200.203125 Z M 212.25 0 "/></g></g><g transform="translate(603.800262, 357.454653)"><g><path d="M 144.46875 0 L 134.609375 -37.515625 L 69.5625 -37.515625 L 59.4375 0 L 0 0 L 65.328125 -201.03125 L 137.484375 -201.03125 L 203.625 0 Z M 123.390625 -81.890625 L 114.75 -114.75 C 112.75 -122.050781 110.304688 -131.5 107.421875 -143.09375 C 104.546875 -154.695312 102.65625 -163.007812 101.75 -168.03125 C 100.925781 -163.375 99.300781 -155.703125 96.875 -145.015625 C 94.457031 -134.335938 89.097656 -113.296875 80.796875 -81.890625 Z M 123.390625 -81.890625 "/></g></g><g transform="translate(807.425946, 357.454653)"><g><path d="M 110.78125 -158.71875 C 97.90625 -158.71875 87.863281 -153.441406 80.65625 -142.890625 C 73.445312 -132.347656 69.84375 -117.8125 69.84375 -99.28125 C 69.84375 -60.757812 84.492188 -41.5 113.796875 -41.5 C 122.648438 -41.5 131.226562 -42.726562 139.53125 -45.1875 C 147.84375 -47.65625 156.203125 -50.625 164.609375 -54.09375 L 164.609375 -8.359375 C 147.898438 -0.960938 129 2.734375 107.90625 2.734375 C 77.6875 2.734375 54.519531 -6.023438 38.40625 -23.546875 C 22.289062 -41.078125 14.234375 -66.414062 14.234375 -99.5625 C 14.234375 -120.28125 18.132812 -138.488281 25.9375 -154.1875 C 33.75 -169.894531 44.976562 -181.96875 59.625 -190.40625 C 74.28125 -198.851562 91.515625 -203.078125 111.328125 -203.078125 C 132.960938 -203.078125 153.640625 -198.378906 173.359375 -188.984375 L 156.796875 -146.390625 C 149.398438 -149.859375 142.003906 -152.78125 134.609375 -155.15625 C 127.210938 -157.53125 119.269531 -158.71875 110.78125 -158.71875 Z M 110.78125 -158.71875 "/></g></g><g transform="translate(989.415544, 357.454653)"><g><path d="M 192.671875 0 L 131.59375 0 L 92.03125 -76.546875 L 76 -66.96875 L 76 0 L 21.640625 0 L 21.640625 -200.203125 L 76 -200.203125 L 76 -113.25 C 78.738281 -118.632812 84.265625 -127.171875 92.578125 -138.859375 L 134.609375 -200.203125 L 193.765625 -200.203125 L 130.640625 -110.515625 Z M 192.671875 0 "/></g></g></g><g fill="#f1f0f0" fill-opacity="1"><g transform="translate(282.00805, 629.162859)"><g><path d="M 141.753906 -41.863281 C 164.964844 -48.910156 188.175781 -57.613281 210.554688 -68.390625 C 252.417969 -88.699219 294.28125 -118.125 318.734375 -158.746094 C 330.753906 -178.226562 333.242188 -200.609375 318.320312 -219.675781 C 305.886719 -235.425781 286.40625 -242.472656 266.925781 -244.542969 C 219.261719 -249.929688 165.378906 -236.253906 121.855469 -218.429688 C 95.332031 -207.65625 70.460938 -193.5625 47.25 -176.984375 C 26.527344 -162.0625 3.316406 -142.582031 14.921875 -114.8125 C 19.066406 -104.449219 40.617188 -97.816406 33.988281 -114.394531 C 26.527344 -132.21875 58.441406 -152.113281 70.046875 -159.988281 C 87.457031 -172.421875 106.519531 -183.199219 126 -191.902344 C 164.546875 -209.3125 205.996094 -220.089844 248.273438 -222.992188 C 264.4375 -223.820312 283.503906 -225.0625 298.011719 -217.1875 C 318.320312 -206.410156 300.914062 -178.226562 291.378906 -165.792969 C 267.753906 -134.707031 236.253906 -111.082031 201.851562 -93.257812 C 181.957031 -82.894531 161.648438 -74.605469 140.507812 -67.976562 C 136.363281 -66.316406 130.976562 -64.246094 125.171875 -62.171875 C 140.921875 -98.644531 159.574219 -133.460938 181.957031 -166.621094 C 188.175781 -175.324219 168.277344 -193.5625 162.890625 -185.6875 C 135.121094 -144.652344 111.910156 -100.71875 94.5 -54.296875 C 88.285156 -53.882812 82.066406 -54.296875 77.09375 -56.371094 C 75.851562 -58.027344 74.605469 -59.269531 73.363281 -60.515625 C 66.730469 -68.804688 46.421875 -50.566406 53.054688 -42.691406 C 61.757812 -32.328125 70.875 -23.210938 80.824219 -14.507812 C 75.851562 2.074219 71.289062 18.652344 67.558594 35.644531 C 65.488281 45.59375 86.625 61.757812 89.113281 51.394531 C 92.84375 34.816406 96.988281 18.652344 101.960938 2.488281 C 117.710938 14.507812 134.707031 24.867188 151.285156 34.402344 C 195.21875 59.269531 245.785156 78.75 297.183594 75.019531 C 303.398438 74.191406 309.617188 70.046875 312.933594 64.246094 C 314.589844 60.929688 316.25 53.054688 309.617188 53.46875 C 259.464844 57.199219 210.96875 38.132812 168.277344 14.09375 C 148.382812 2.902344 128.902344 -9.949219 110.667969 -24.453125 C 111.910156 -27.769531 112.738281 -31.085938 113.980469 -33.988281 C 123.515625 -36.058594 132.632812 -38.960938 141.753906 -41.863281 Z M 141.753906 -41.863281 "/></g></g></g><g fill="#f1f0f0" fill-opacity="1"><g transform="translate(554.735389, 629.162859)"><g><path d="M 77.921875 -50.980469 C 58.441406 -34.816406 18.652344 -13.261719 2.074219 -10.363281 C 2.488281 -12.019531 3.316406 -14.09375 4.144531 -15.75 C 9.117188 -29.011719 14.921875 -41.035156 22.382812 -53.054688 C 26.941406 -61.34375 6.632812 -79.164062 0.828125 -68.804688 C -8.289062 -53.46875 -21.96875 -32.328125 -21.554688 -14.09375 C -21.136719 2.074219 -5.800781 16.992188 10.363281 13.679688 C 24.453125 10.777344 38.132812 1.242188 49.738281 -6.632812 C 64.246094 -16.578125 78.335938 -27.355469 92.015625 -38.960938 C 99.476562 -45.179688 86.210938 -58.027344 77.921875 -50.980469 Z M 40.617188 -94.5 C 46.835938 -106.519531 47.664062 -109.007812 47.664062 -109.007812 C 52.640625 -117.296875 32.328125 -134.707031 26.527344 -124.34375 C 26.527344 -124.34375 24.039062 -120.199219 19.480469 -110.25 C 15.335938 -101.132812 35.644531 -84.554688 40.617188 -94.5 Z M 40.617188 -94.5 "/></g></g></g><g fill="#f1f0f0" fill-opacity="1"><g transform="translate(635.973307, 629.162859)"><g><path d="M 75.851562 -55.125 C 67.144531 -51.808594 47.25 -46.421875 26.527344 -36.890625 C 24.453125 -38.960938 22.382812 -41.035156 20.308594 -43.519531 C 15.335938 -49.738281 11.605469 -64.660156 24.867188 -63.828125 C 31.085938 -63.414062 30.671875 -70.875 28.597656 -74.605469 C 26.113281 -79.996094 19.894531 -85.382812 13.679688 -85.796875 C -7.046875 -87.457031 -9.949219 -64.246094 -2.488281 -49.324219 C 1.65625 -41.035156 8.703125 -35.230469 14.507812 -27.769531 C -8.289062 -9.117188 -24.453125 14.09375 -2.074219 32.742188 C 19.066406 50.152344 38.960938 24.453125 41.863281 4.144531 C 42.691406 -2.074219 42.277344 -8.289062 40.617188 -14.09375 C 53.46875 -24.039062 67.976562 -31.914062 82.894531 -37.71875 C 93.671875 -41.863281 84.96875 -58.855469 75.851562 -55.125 Z M 75.851562 -55.125 "/></g></g></g><g fill="#f1f0f0" fill-opacity="1"><g transform="translate(715.138884, 629.162859)"><g><path d="M 205.996094 -158.746094 C 167.035156 -179.054688 118.542969 -179.46875 74.605469 -179.054688 C 80.824219 -192.734375 87.457031 -206.410156 94.085938 -219.675781 C 98.230469 -228.378906 77.507812 -246.199219 72.535156 -235.425781 C 63.414062 -216.773438 54.296875 -197.707031 45.59375 -178.640625 C -2.488281 -176.984375 -50.980469 -171.59375 -98.644531 -162.476562 C -108.59375 -160.402344 -92.84375 -139.265625 -82.894531 -140.921875 C -43.519531 -148.796875 -4.144531 -153.359375 35.644531 -155.429688 C 2.074219 -79.164062 -24.453125 0.414062 -23.210938 84.96875 C -22.796875 94.5 -0.828125 109.421875 -1.242188 96.160156 C -2.488281 7.046875 27.769531 -76.679688 64.246094 -156.671875 C 64.660156 -156.671875 65.074219 -156.671875 65.488281 -156.671875 C 89.113281 -157.089844 112.738281 -156.671875 136.363281 -155.015625 C 160.402344 -153.359375 184.859375 -151.285156 206.410156 -139.679688 C 210.96875 -137.191406 216.359375 -137.605469 217.1875 -143.824219 C 217.601562 -149.628906 210.554688 -156.257812 205.996094 -158.746094 Z M 205.996094 -158.746094 "/></g></g></g><g fill="#f1f0f0" fill-opacity="1"><g transform="translate(772.337001, 629.162859)"><g><path d="M 76.679688 -54.296875 C 62.171875 -78.335938 42.277344 -74.191406 23.210938 -59.683594 C 20.308594 -68.804688 5.386719 -78.75 2.074219 -70.046875 C -7.046875 -45.59375 -16.992188 -21.554688 -26.113281 2.902344 C -29.429688 12.019531 -9.53125 29.429688 -4.558594 18.652344 C 2.488281 3.316406 12.019531 -10.777344 23.625 -22.796875 C 28.597656 -28.597656 34.402344 -33.988281 40.617188 -38.546875 C 43.519531 -40.617188 55.539062 -49.738281 60.929688 -49.738281 C 64.246094 -46.421875 68.390625 -43.105469 72.535156 -43.519531 C 78.75 -43.933594 79.582031 -49.738281 76.679688 -54.296875 Z M 76.679688 -54.296875 "/></g></g></g><g fill="#f1f0f0" fill-opacity="1"><g transform="translate(873.055441, 629.162859)"><g><path d="M 107.351562 -51.808594 C 82.894531 -32.742188 23.210938 -3.316406 -1.65625 0 C -0.828125 -3.316406 0.414062 -6.632812 1.65625 -9.53125 C 16.578125 -16.578125 72.121094 -38.132812 48.496094 -62.585938 C 32.328125 -79.582031 10.363281 -64.246094 -2.074219 -50.980469 C -15.75 -36.058594 -34.816406 -6.632812 -19.894531 13.261719 C -10.363281 26.527344 3.730469 25.285156 17.40625 20.722656 C 54.710938 7.460938 89.113281 -17.40625 121.855469 -38.546875 C 129.730469 -43.933594 116.054688 -58.441406 107.351562 -51.808594 Z M 107.351562 -51.808594 "/></g></g></g><g fill="#f1f0f0" fill-opacity="1"><g transform="translate(982.892487, 629.162859)"><g><path d="M 94.914062 -50.566406 C 83.308594 -38.132812 42.691406 -16.578125 12.433594 -12.433594 C 10.777344 -27.769531 21.96875 -50.566406 25.699219 -61.34375 C 33.160156 -83.308594 40.617188 -105.277344 48.496094 -126.832031 C 64.660156 -171.179688 82.066406 -215.113281 100.304688 -258.636719 C 104.035156 -267.753906 83.308594 -285.164062 78.75 -274.386719 C 62.171875 -234.59375 46.421875 -194.390625 31.5 -153.773438 C 24.039062 -134.292969 17.40625 -114.8125 10.363281 -94.914062 C 4.144531 -76.265625 -3.730469 -57.199219 -7.875 -37.71875 C -10.777344 -23.625 -9.53125 -9.53125 0.414062 2.074219 C 9.53125 13.261719 21.96875 11.191406 34.816406 7.046875 C 61.34375 -0.828125 88.285156 -18.652344 107.351562 -38.960938 C 114.394531 -46.835938 101.960938 -58.441406 94.914062 -50.566406 Z M 94.914062 -50.566406 "/></g></g></g><g clip-path="url(#id1)"><g clip-path="url(#id2)"><path fill="#ffffff" d="M 890.902344 578.515625 C 897.023438 573.710938 903.851562 572.1875 906.15625 575.121094 C 908.457031 578.050781 905.363281 584.324219 899.242188 589.132812 L 893.699219 593.488281 C 887.578125 598.292969 880.75 599.816406 878.445312 596.882812 C 876.144531 593.953125 879.238281 587.679688 885.359375 582.871094 L 890.902344 578.515625 " fill-opacity="1" fill-rule="nonzero"/></g></g></svg>