<svg xmlns="http://www.w3.org/2000/svg" xmlns:xlink="http://www.w3.org/1999/xlink" width="1920" zoomAndPan="magnify" viewBox="0 0 1440 809.999993" height="1080" preserveAspectRatio="xMidYMid meet" version="1.0"><defs><g/></defs><g fill="#545454" fill-opacity="0.4314"><g transform="translate(164.740738, 317.457694)"><g><path d="M 183.296875 -73.046875 C 183.296875 -58.128906 179.507812 -44.882812 171.9375 -33.3125 C 164.375 -21.738281 153.460938 -12.742188 139.203125 -6.328125 C 124.941406 0.0859375 108.210938 3.296875 89.015625 3.296875 C 72.992188 3.296875 59.550781 2.171875 48.6875 -0.078125 C 37.832031 -2.328125 26.539062 -6.25 14.8125 -11.84375 L 14.8125 -69.765625 C 27.207031 -63.398438 40.09375 -58.4375 53.46875 -54.875 C 66.851562 -51.3125 79.140625 -49.53125 90.328125 -49.53125 C 99.984375 -49.53125 107.054688 -51.203125 111.546875 -54.546875 C 116.046875 -57.890625 118.296875 -62.191406 118.296875 -67.453125 C 118.296875 -70.742188 117.390625 -73.625 115.578125 -76.09375 C 113.773438 -78.5625 110.867188 -81.054688 106.859375 -83.578125 C 102.859375 -86.109375 92.191406 -91.265625 74.859375 -99.046875 C 59.171875 -106.179688 47.40625 -113.09375 39.5625 -119.78125 C 31.726562 -126.46875 25.914062 -134.144531 22.125 -142.8125 C 18.34375 -151.476562 16.453125 -161.734375 16.453125 -173.578125 C 16.453125 -195.742188 24.515625 -213.019531 40.640625 -225.40625 C 56.765625 -237.800781 78.921875 -244 107.109375 -244 C 132.015625 -244 157.410156 -238.242188 183.296875 -226.734375 L 163.390625 -176.546875 C 140.898438 -186.859375 121.484375 -192.015625 105.140625 -192.015625 C 96.691406 -192.015625 90.546875 -190.53125 86.703125 -187.5625 C 82.867188 -184.601562 80.953125 -180.929688 80.953125 -176.546875 C 80.953125 -171.828125 83.390625 -167.601562 88.265625 -163.875 C 93.148438 -160.144531 106.398438 -153.34375 128.015625 -143.46875 C 148.742188 -134.144531 163.140625 -124.132812 171.203125 -113.4375 C 179.265625 -102.75 183.296875 -89.285156 183.296875 -73.046875 Z M 183.296875 -73.046875 "/></g></g><g transform="translate(359.221346, 317.457694)"><g><path d="M 255.03125 0 L 169.796875 0 L 81.9375 -169.46875 L 80.453125 -169.46875 C 82.535156 -142.8125 83.578125 -122.460938 83.578125 -108.421875 L 83.578125 0 L 26 0 L 26 -240.546875 L 110.890625 -240.546875 L 198.4375 -73.390625 L 199.421875 -73.390625 C 197.878906 -97.628906 197.109375 -117.097656 197.109375 -131.796875 L 197.109375 -240.546875 L 255.03125 -240.546875 Z M 255.03125 0 "/></g></g><g transform="translate(640.247471, 317.457694)"><g><path d="M 173.578125 0 L 161.734375 -45.078125 L 83.578125 -45.078125 L 71.40625 0 L 0 0 L 78.484375 -241.53125 L 165.1875 -241.53125 L 244.671875 0 Z M 148.25 -98.390625 L 137.875 -137.875 C 135.46875 -146.65625 132.535156 -158.007812 129.078125 -171.9375 C 125.617188 -185.863281 123.34375 -195.847656 122.25 -201.890625 C 121.257812 -196.296875 119.3125 -187.082031 116.40625 -174.25 C 113.5 -161.414062 107.054688 -136.128906 97.078125 -98.390625 Z M 148.25 -98.390625 "/></g></g><g transform="translate(884.911315, 317.457694)"><g><path d="M 133.109375 -190.703125 C 117.640625 -190.703125 105.570312 -184.363281 96.90625 -171.6875 C 88.238281 -159.019531 83.90625 -141.550781 83.90625 -119.28125 C 83.90625 -73 101.515625 -49.859375 136.734375 -49.859375 C 147.367188 -49.859375 157.675781 -51.335938 167.65625 -54.296875 C 177.644531 -57.253906 187.679688 -60.816406 197.765625 -64.984375 L 197.765625 -10.03125 C 177.691406 -1.144531 154.988281 3.296875 129.65625 3.296875 C 93.34375 3.296875 65.503906 -7.234375 46.140625 -28.296875 C 26.785156 -49.359375 17.109375 -79.800781 17.109375 -119.625 C 17.109375 -144.519531 21.796875 -166.398438 31.171875 -185.265625 C 40.554688 -204.128906 54.050781 -218.632812 71.65625 -228.78125 C 89.257812 -238.925781 109.960938 -244 133.765625 -244 C 159.765625 -244 184.609375 -238.351562 208.296875 -227.0625 L 188.390625 -175.890625 C 179.503906 -180.054688 170.617188 -183.566406 161.734375 -186.421875 C 152.847656 -189.273438 143.304688 -190.703125 133.109375 -190.703125 Z M 133.109375 -190.703125 "/></g></g><g transform="translate(1103.578596, 317.457694)"><g><path d="M 231.5 0 L 158.125 0 L 110.5625 -91.96875 L 91.3125 -80.453125 L 91.3125 0 L 26 0 L 26 -240.546875 L 91.3125 -240.546875 L 91.3125 -136.078125 C 94.601562 -142.546875 101.238281 -152.800781 111.21875 -166.84375 L 161.734375 -240.546875 L 232.8125 -240.546875 L 156.96875 -132.78125 Z M 231.5 0 "/></g></g></g><g fill="#ffffff" fill-opacity="1"><g transform="translate(149.84839, 302.565351)"><g><path d="M 183.296875 -73.046875 C 183.296875 -58.128906 179.507812 -44.882812 171.9375 -33.3125 C 164.375 -21.738281 153.460938 -12.742188 139.203125 -6.328125 C 124.941406 0.0859375 108.210938 3.296875 89.015625 3.296875 C 72.992188 3.296875 59.550781 2.171875 48.6875 -0.078125 C 37.832031 -2.328125 26.539062 -6.25 14.8125 -11.84375 L 14.8125 -69.765625 C 27.207031 -63.398438 40.09375 -58.4375 53.46875 -54.875 C 66.851562 -51.3125 79.140625 -49.53125 90.328125 -49.53125 C 99.984375 -49.53125 107.054688 -51.203125 111.546875 -54.546875 C 116.046875 -57.890625 118.296875 -62.191406 118.296875 -67.453125 C 118.296875 -70.742188 117.390625 -73.625 115.578125 -76.09375 C 113.773438 -78.5625 110.867188 -81.054688 106.859375 -83.578125 C 102.859375 -86.109375 92.191406 -91.265625 74.859375 -99.046875 C 59.171875 -106.179688 47.40625 -113.09375 39.5625 -119.78125 C 31.726562 -126.46875 25.914062 -134.144531 22.125 -142.8125 C 18.34375 -151.476562 16.453125 -161.734375 16.453125 -173.578125 C 16.453125 -195.742188 24.515625 -213.019531 40.640625 -225.40625 C 56.765625 -237.800781 78.921875 -244 107.109375 -244 C 132.015625 -244 157.410156 -238.242188 183.296875 -226.734375 L 163.390625 -176.546875 C 140.898438 -186.859375 121.484375 -192.015625 105.140625 -192.015625 C 96.691406 -192.015625 90.546875 -190.53125 86.703125 -187.5625 C 82.867188 -184.601562 80.953125 -180.929688 80.953125 -176.546875 C 80.953125 -171.828125 83.390625 -167.601562 88.265625 -163.875 C 93.148438 -160.144531 106.398438 -153.34375 128.015625 -143.46875 C 148.742188 -134.144531 163.140625 -124.132812 171.203125 -113.4375 C 179.265625 -102.75 183.296875 -89.285156 183.296875 -73.046875 Z M 183.296875 -73.046875 "/></g></g><g transform="translate(344.328999, 302.565351)"><g><path d="M 255.03125 0 L 169.796875 0 L 81.9375 -169.46875 L 80.453125 -169.46875 C 82.535156 -142.8125 83.578125 -122.460938 83.578125 -108.421875 L 83.578125 0 L 26 0 L 26 -240.546875 L 110.890625 -240.546875 L 198.4375 -73.390625 L 199.421875 -73.390625 C 197.878906 -97.628906 197.109375 -117.097656 197.109375 -131.796875 L 197.109375 -240.546875 L 255.03125 -240.546875 Z M 255.03125 0 "/></g></g><g transform="translate(625.355123, 302.565351)"><g><path d="M 173.578125 0 L 161.734375 -45.078125 L 83.578125 -45.078125 L 71.40625 0 L 0 0 L 78.484375 -241.53125 L 165.1875 -241.53125 L 244.671875 0 Z M 148.25 -98.390625 L 137.875 -137.875 C 135.46875 -146.65625 132.535156 -158.007812 129.078125 -171.9375 C 125.617188 -185.863281 123.34375 -195.847656 122.25 -201.890625 C 121.257812 -196.296875 119.3125 -187.082031 116.40625 -174.25 C 113.5 -161.414062 107.054688 -136.128906 97.078125 -98.390625 Z M 148.25 -98.390625 "/></g></g><g transform="translate(870.018968, 302.565351)"><g><path d="M 133.109375 -190.703125 C 117.640625 -190.703125 105.570312 -184.363281 96.90625 -171.6875 C 88.238281 -159.019531 83.90625 -141.550781 83.90625 -119.28125 C 83.90625 -73 101.515625 -49.859375 136.734375 -49.859375 C 147.367188 -49.859375 157.675781 -51.335938 167.65625 -54.296875 C 177.644531 -57.253906 187.679688 -60.816406 197.765625 -64.984375 L 197.765625 -10.03125 C 177.691406 -1.144531 154.988281 3.296875 129.65625 3.296875 C 93.34375 3.296875 65.503906 -7.234375 46.140625 -28.296875 C 26.785156 -49.359375 17.109375 -79.800781 17.109375 -119.625 C 17.109375 -144.519531 21.796875 -166.398438 31.171875 -185.265625 C 40.554688 -204.128906 54.050781 -218.632812 71.65625 -228.78125 C 89.257812 -238.925781 109.960938 -244 133.765625 -244 C 159.765625 -244 184.609375 -238.351562 208.296875 -227.0625 L 188.390625 -175.890625 C 179.503906 -180.054688 170.617188 -183.566406 161.734375 -186.421875 C 152.847656 -189.273438 143.304688 -190.703125 133.109375 -190.703125 Z M 133.109375 -190.703125 "/></g></g><g transform="translate(1088.686249, 302.565351)"><g><path d="M 231.5 0 L 158.125 0 L 110.5625 -91.96875 L 91.3125 -80.453125 L 91.3125 0 L 26 0 L 26 -240.546875 L 91.3125 -240.546875 L 91.3125 -136.078125 C 94.601562 -142.546875 101.238281 -152.800781 111.21875 -166.84375 L 161.734375 -240.546875 L 232.8125 -240.546875 L 156.96875 -132.78125 Z M 231.5 0 "/></g></g></g><g fill="#737373" fill-opacity="0.4"><g transform="translate(277.936603, 675.564932)"><g><path d="M 170.320312 -50.300781 C 198.210938 -58.765625 226.097656 -69.222656 252.992188 -82.171875 C 303.292969 -106.574219 353.589844 -141.933594 382.972656 -190.738281 C 397.414062 -214.144531 400.402344 -241.039062 382.476562 -263.949219 C 367.535156 -282.871094 344.128906 -291.339844 320.722656 -293.828125 C 263.449219 -300.304688 198.707031 -283.867188 146.417969 -262.453125 C 114.542969 -249.503906 84.664062 -232.574219 56.773438 -212.652344 C 31.871094 -194.722656 3.984375 -171.316406 17.929688 -137.949219 C 22.910156 -125.5 48.804688 -117.53125 40.835938 -137.453125 C 31.871094 -158.867188 70.21875 -182.773438 84.164062 -192.234375 C 105.082031 -207.175781 127.988281 -220.121094 151.398438 -230.582031 C 197.710938 -251.496094 247.511719 -264.445312 298.3125 -267.933594 C 317.734375 -268.929688 340.640625 -270.421875 358.074219 -260.960938 C 382.476562 -248.011719 361.558594 -214.144531 350.105469 -199.207031 C 321.71875 -161.855469 283.867188 -133.46875 242.535156 -112.054688 C 218.628906 -99.601562 194.226562 -89.644531 168.828125 -81.675781 C 163.847656 -79.683594 157.371094 -77.191406 150.402344 -74.703125 C 169.324219 -118.527344 191.734375 -160.359375 218.628906 -200.203125 C 226.097656 -210.660156 202.195312 -232.574219 195.71875 -223.109375 C 162.351562 -173.808594 134.464844 -121.019531 113.546875 -65.238281 C 106.078125 -64.742188 98.605469 -65.238281 92.628906 -67.730469 C 91.136719 -69.722656 89.644531 -71.214844 88.148438 -72.710938 C 80.179688 -82.671875 55.777344 -60.757812 63.746094 -51.296875 C 74.203125 -38.84375 85.160156 -27.890625 97.113281 -17.429688 C 91.136719 2.488281 85.660156 22.410156 81.175781 42.828125 C 78.6875 54.78125 104.085938 74.203125 107.074219 61.753906 C 111.554688 41.832031 116.535156 22.410156 122.511719 2.988281 C 141.4375 17.429688 161.855469 29.882812 181.777344 41.335938 C 234.566406 71.214844 295.324219 94.621094 357.078125 90.140625 C 364.546875 89.144531 372.015625 84.164062 376 77.191406 C 377.992188 73.207031 379.984375 63.746094 372.015625 64.242188 C 311.757812 68.726562 253.488281 45.816406 202.195312 16.933594 C 178.289062 3.484375 154.882812 -11.953125 132.96875 -29.382812 C 134.464844 -33.367188 135.460938 -37.351562 136.953125 -40.835938 C 148.410156 -43.328125 159.363281 -46.8125 170.320312 -50.300781 Z M 170.320312 -50.300781 "/></g></g></g><g fill="#737373" fill-opacity="0.4"><g transform="translate(605.629872, 675.564932)"><g><path d="M 93.625 -61.253906 C 70.21875 -41.832031 22.410156 -15.9375 2.488281 -12.449219 C 2.988281 -14.441406 3.984375 -16.933594 4.980469 -18.925781 C 10.957031 -34.859375 17.929688 -49.304688 26.894531 -63.746094 C 32.371094 -73.707031 7.96875 -95.121094 0.996094 -82.671875 C -9.960938 -64.242188 -26.394531 -38.84375 -25.898438 -16.933594 C -25.398438 2.488281 -6.972656 20.417969 12.449219 16.433594 C 29.382812 12.949219 45.816406 1.492188 59.761719 -7.96875 C 77.191406 -19.921875 94.125 -32.867188 110.558594 -46.8125 C 119.523438 -54.285156 103.585938 -69.722656 93.625 -61.253906 Z M 48.804688 -113.546875 C 56.277344 -127.988281 57.273438 -130.976562 57.273438 -130.976562 C 63.246094 -140.9375 38.84375 -161.855469 31.871094 -149.40625 C 31.871094 -149.40625 28.886719 -144.425781 23.40625 -132.472656 C 18.425781 -121.515625 42.828125 -101.59375 48.804688 -113.546875 Z M 48.804688 -113.546875 "/></g></g></g><g fill="#737373" fill-opacity="0.4"><g transform="translate(703.2406, 675.564932)"><g><path d="M 91.136719 -66.234375 C 80.679688 -62.25 56.773438 -55.777344 31.871094 -44.324219 C 29.382812 -46.8125 26.894531 -49.304688 24.402344 -52.292969 C 18.425781 -59.761719 13.945312 -77.691406 29.882812 -76.695312 C 37.351562 -76.195312 36.851562 -85.160156 34.363281 -89.644531 C 31.375 -96.117188 23.90625 -102.589844 16.433594 -103.089844 C -8.464844 -105.082031 -11.953125 -77.191406 -2.988281 -59.265625 C 1.992188 -49.304688 10.457031 -42.332031 17.429688 -33.367188 C -9.960938 -10.957031 -29.382812 16.933594 -2.488281 39.34375 C 22.910156 60.261719 46.8125 29.382812 50.300781 4.980469 C 51.296875 -2.488281 50.796875 -9.960938 48.804688 -16.933594 C 64.242188 -28.886719 81.675781 -38.347656 99.601562 -45.320312 C 112.550781 -50.300781 102.09375 -70.71875 91.136719 -66.234375 Z M 91.136719 -66.234375 "/></g></g></g><g fill="#737373" fill-opacity="0.4"><g transform="translate(798.361323, 675.564932)"><g><path d="M 247.511719 -190.738281 C 200.699219 -215.140625 142.433594 -215.640625 89.644531 -215.140625 C 97.113281 -231.578125 105.082031 -248.011719 113.050781 -263.949219 C 118.03125 -274.40625 93.128906 -295.820312 87.152344 -282.871094 C 76.195312 -260.460938 65.238281 -237.554688 54.78125 -214.644531 C -2.988281 -212.652344 -61.253906 -206.179688 -118.527344 -195.222656 C -130.480469 -192.730469 -111.554688 -167.332031 -99.601562 -169.324219 C -52.292969 -178.789062 -4.980469 -184.265625 42.828125 -186.753906 C 2.488281 -95.121094 -29.382812 0.496094 -27.890625 102.09375 C -27.390625 113.546875 -0.996094 131.476562 -1.492188 115.539062 C -2.988281 8.464844 33.367188 -92.132812 77.191406 -188.25 C 77.691406 -188.25 78.1875 -188.25 78.6875 -188.25 C 107.074219 -188.746094 135.460938 -188.25 163.847656 -186.257812 C 192.730469 -184.265625 222.113281 -181.777344 248.011719 -167.832031 C 253.488281 -164.84375 259.964844 -165.339844 260.960938 -172.8125 C 261.457031 -179.785156 252.992188 -187.75 247.511719 -190.738281 Z M 247.511719 -190.738281 "/></g></g></g><g fill="#737373" fill-opacity="0.4"><g transform="translate(867.087302, 675.564932)"><g><path d="M 92.132812 -65.238281 C 74.703125 -94.125 50.796875 -89.144531 27.890625 -71.714844 C 24.402344 -82.671875 6.472656 -94.621094 2.488281 -84.164062 C -8.464844 -54.78125 -20.417969 -25.898438 -31.375 3.484375 C -35.359375 14.441406 -11.453125 35.359375 -5.476562 22.410156 C 2.988281 3.984375 14.441406 -12.949219 28.386719 -27.390625 C 34.363281 -34.363281 41.335938 -40.835938 48.804688 -46.316406 C 52.292969 -48.804688 66.734375 -59.761719 73.207031 -59.761719 C 77.191406 -55.777344 82.171875 -51.792969 87.152344 -52.292969 C 94.621094 -52.789062 95.617188 -59.761719 92.132812 -65.238281 Z M 92.132812 -65.238281 "/></g></g></g><g fill="#737373" fill-opacity="0.4"><g transform="translate(988.104721, 675.564932)"><g><path d="M 128.984375 -62.25 C 99.601562 -39.34375 27.890625 -3.984375 -1.992188 0 C -0.996094 -3.984375 0.496094 -7.96875 1.992188 -11.453125 C 19.921875 -19.921875 86.65625 -45.816406 58.269531 -75.199219 C 38.84375 -95.617188 12.449219 -77.191406 -2.488281 -61.253906 C -18.925781 -43.328125 -41.832031 -7.96875 -23.90625 15.9375 C -12.449219 31.871094 4.480469 30.378906 20.917969 24.902344 C 65.738281 8.964844 107.074219 -20.917969 146.417969 -46.316406 C 155.878906 -52.789062 139.445312 -70.21875 128.984375 -62.25 Z M 128.984375 -62.25 "/></g></g></g><g fill="#737373" fill-opacity="0.4"><g transform="translate(1120.078532, 675.564932)"><g><path d="M 114.046875 -60.757812 C 100.101562 -45.816406 51.296875 -19.921875 14.941406 -14.941406 C 12.949219 -33.367188 26.394531 -60.757812 30.875 -73.707031 C 39.839844 -100.101562 48.804688 -126.496094 58.269531 -152.394531 C 77.691406 -205.679688 98.605469 -258.46875 120.519531 -310.761719 C 125 -321.71875 100.101562 -342.632812 94.621094 -329.6875 C 74.703125 -281.875 55.777344 -233.570312 37.847656 -184.761719 C 28.886719 -161.355469 20.917969 -137.949219 12.449219 -114.046875 C 4.980469 -91.632812 -4.480469 -68.726562 -9.460938 -45.320312 C -12.949219 -28.386719 -11.453125 -11.453125 0.496094 2.488281 C 11.453125 15.9375 26.394531 13.445312 41.832031 8.464844 C 73.707031 -0.996094 106.078125 -22.410156 128.984375 -46.8125 C 137.453125 -56.277344 122.511719 -70.21875 114.046875 -60.757812 Z M 114.046875 -60.757812 "/></g></g></g><g fill="#e4e4e4" fill-opacity="1"><g transform="translate(255.927006, 653.555334)"><g><path d="M 170.320312 -50.300781 C 198.210938 -58.765625 226.097656 -69.222656 252.992188 -82.171875 C 303.292969 -106.574219 353.589844 -141.933594 382.972656 -190.738281 C 397.414062 -214.144531 400.402344 -241.039062 382.476562 -263.949219 C 367.535156 -282.871094 344.128906 -291.339844 320.722656 -293.828125 C 263.449219 -300.304688 198.707031 -283.867188 146.417969 -262.453125 C 114.542969 -249.503906 84.664062 -232.574219 56.773438 -212.652344 C 31.871094 -194.722656 3.984375 -171.316406 17.929688 -137.949219 C 22.910156 -125.5 48.804688 -117.53125 40.835938 -137.453125 C 31.871094 -158.867188 70.21875 -182.773438 84.164062 -192.234375 C 105.082031 -207.175781 127.988281 -220.121094 151.398438 -230.582031 C 197.710938 -251.496094 247.511719 -264.445312 298.3125 -267.933594 C 317.734375 -268.929688 340.640625 -270.421875 358.074219 -260.960938 C 382.476562 -248.011719 361.558594 -214.144531 350.105469 -199.207031 C 321.71875 -161.855469 283.867188 -133.46875 242.535156 -112.054688 C 218.628906 -99.601562 194.226562 -89.644531 168.828125 -81.675781 C 163.847656 -79.683594 157.371094 -77.191406 150.402344 -74.703125 C 169.324219 -118.527344 191.734375 -160.359375 218.628906 -200.203125 C 226.097656 -210.660156 202.195312 -232.574219 195.71875 -223.109375 C 162.351562 -173.808594 134.464844 -121.019531 113.546875 -65.238281 C 106.078125 -64.742188 98.605469 -65.238281 92.628906 -67.730469 C 91.136719 -69.722656 89.644531 -71.214844 88.148438 -72.710938 C 80.179688 -82.671875 55.777344 -60.757812 63.746094 -51.296875 C 74.203125 -38.84375 85.160156 -27.890625 97.113281 -17.429688 C 91.136719 2.488281 85.660156 22.410156 81.175781 42.828125 C 78.6875 54.78125 104.085938 74.203125 107.074219 61.753906 C 111.554688 41.832031 116.535156 22.410156 122.511719 2.988281 C 141.4375 17.429688 161.855469 29.882812 181.777344 41.335938 C 234.566406 71.214844 295.324219 94.621094 357.078125 90.140625 C 364.546875 89.144531 372.015625 84.164062 376 77.191406 C 377.992188 73.207031 379.984375 63.746094 372.015625 64.242188 C 311.757812 68.726562 253.488281 45.816406 202.195312 16.933594 C 178.289062 3.484375 154.882812 -11.953125 132.96875 -29.382812 C 134.464844 -33.367188 135.460938 -37.351562 136.953125 -40.835938 C 148.410156 -43.328125 159.363281 -46.8125 170.320312 -50.300781 Z M 170.320312 -50.300781 "/></g></g></g><g fill="#e4e4e4" fill-opacity="1"><g transform="translate(583.620274, 653.555334)"><g><path d="M 93.625 -61.253906 C 70.21875 -41.832031 22.410156 -15.9375 2.488281 -12.449219 C 2.988281 -14.441406 3.984375 -16.933594 4.980469 -18.925781 C 10.957031 -34.859375 17.929688 -49.304688 26.894531 -63.746094 C 32.371094 -73.707031 7.96875 -95.121094 0.996094 -82.671875 C -9.960938 -64.242188 -26.394531 -38.84375 -25.898438 -16.933594 C -25.398438 2.488281 -6.972656 20.417969 12.449219 16.433594 C 29.382812 12.949219 45.816406 1.492188 59.761719 -7.96875 C 77.191406 -19.921875 94.125 -32.867188 110.558594 -46.8125 C 119.523438 -54.285156 103.585938 -69.722656 93.625 -61.253906 Z M 48.804688 -113.546875 C 56.277344 -127.988281 57.273438 -130.976562 57.273438 -130.976562 C 63.246094 -140.9375 38.84375 -161.855469 31.871094 -149.40625 C 31.871094 -149.40625 28.886719 -144.425781 23.40625 -132.472656 C 18.425781 -121.515625 42.828125 -101.59375 48.804688 -113.546875 Z M 48.804688 -113.546875 "/></g></g></g><g fill="#e4e4e4" fill-opacity="1"><g transform="translate(681.231002, 653.555334)"><g><path d="M 91.136719 -66.234375 C 80.679688 -62.25 56.773438 -55.777344 31.871094 -44.324219 C 29.382812 -46.8125 26.894531 -49.304688 24.402344 -52.292969 C 18.425781 -59.761719 13.945312 -77.691406 29.882812 -76.695312 C 37.351562 -76.195312 36.851562 -85.160156 34.363281 -89.644531 C 31.375 -96.117188 23.90625 -102.589844 16.433594 -103.089844 C -8.464844 -105.082031 -11.953125 -77.191406 -2.988281 -59.265625 C 1.992188 -49.304688 10.457031 -42.332031 17.429688 -33.367188 C -9.960938 -10.957031 -29.382812 16.933594 -2.488281 39.34375 C 22.910156 60.261719 46.8125 29.382812 50.300781 4.980469 C 51.296875 -2.488281 50.796875 -9.960938 48.804688 -16.933594 C 64.242188 -28.886719 81.675781 -38.347656 99.601562 -45.320312 C 112.550781 -50.300781 102.09375 -70.71875 91.136719 -66.234375 Z M 91.136719 -66.234375 "/></g></g></g><g fill="#e4e4e4" fill-opacity="1"><g transform="translate(776.351725, 653.555334)"><g><path d="M 247.511719 -190.738281 C 200.699219 -215.140625 142.433594 -215.640625 89.644531 -215.140625 C 97.113281 -231.578125 105.082031 -248.011719 113.050781 -263.949219 C 118.03125 -274.40625 93.128906 -295.820312 87.152344 -282.871094 C 76.195312 -260.460938 65.238281 -237.554688 54.78125 -214.644531 C -2.988281 -212.652344 -61.253906 -206.179688 -118.527344 -195.222656 C -130.480469 -192.730469 -111.554688 -167.332031 -99.601562 -169.324219 C -52.292969 -178.789062 -4.980469 -184.265625 42.828125 -186.753906 C 2.488281 -95.121094 -29.382812 0.496094 -27.890625 102.09375 C -27.390625 113.546875 -0.996094 131.476562 -1.492188 115.539062 C -2.988281 8.464844 33.367188 -92.132812 77.191406 -188.25 C 77.691406 -188.25 78.1875 -188.25 78.6875 -188.25 C 107.074219 -188.746094 135.460938 -188.25 163.847656 -186.257812 C 192.730469 -184.265625 222.113281 -181.777344 248.011719 -167.832031 C 253.488281 -164.84375 259.964844 -165.339844 260.960938 -172.8125 C 261.457031 -179.785156 252.992188 -187.75 247.511719 -190.738281 Z M 247.511719 -190.738281 "/></g></g></g><g fill="#e4e4e4" fill-opacity="1"><g transform="translate(845.077705, 653.555334)"><g><path d="M 92.132812 -65.238281 C 74.703125 -94.125 50.796875 -89.144531 27.890625 -71.714844 C 24.402344 -82.671875 6.472656 -94.621094 2.488281 -84.164062 C -8.464844 -54.78125 -20.417969 -25.898438 -31.375 3.484375 C -35.359375 14.441406 -11.453125 35.359375 -5.476562 22.410156 C 2.988281 3.984375 14.441406 -12.949219 28.386719 -27.390625 C 34.363281 -34.363281 41.335938 -40.835938 48.804688 -46.316406 C 52.292969 -48.804688 66.734375 -59.761719 73.207031 -59.761719 C 77.191406 -55.777344 82.171875 -51.792969 87.152344 -52.292969 C 94.621094 -52.789062 95.617188 -59.761719 92.132812 -65.238281 Z M 92.132812 -65.238281 "/></g></g></g><g fill="#e4e4e4" fill-opacity="1"><g transform="translate(966.095124, 653.555334)"><g><path d="M 128.984375 -62.25 C 99.601562 -39.34375 27.890625 -3.984375 -1.992188 0 C -0.996094 -3.984375 0.496094 -7.96875 1.992188 -11.453125 C 19.921875 -19.921875 86.65625 -45.816406 58.269531 -75.199219 C 38.84375 -95.617188 12.449219 -77.191406 -2.488281 -61.253906 C -18.925781 -43.328125 -41.832031 -7.96875 -23.90625 15.9375 C -12.449219 31.871094 4.480469 30.378906 20.917969 24.902344 C 65.738281 8.964844 107.074219 -20.917969 146.417969 -46.316406 C 155.878906 -52.789062 139.445312 -70.21875 128.984375 -62.25 Z M 128.984375 -62.25 "/></g></g></g><g fill="#e4e4e4" fill-opacity="1"><g transform="translate(1098.068935, 653.555334)"><g><path d="M 114.046875 -60.757812 C 100.101562 -45.816406 51.296875 -19.921875 14.941406 -14.941406 C 12.949219 -33.367188 26.394531 -60.757812 30.875 -73.707031 C 39.839844 -100.101562 48.804688 -126.496094 58.269531 -152.394531 C 77.691406 -205.679688 98.605469 -258.46875 120.519531 -310.761719 C 125 -321.71875 100.101562 -342.632812 94.621094 -329.6875 C 74.703125 -281.875 55.777344 -233.570312 37.847656 -184.761719 C 28.886719 -161.355469 20.917969 -137.949219 12.449219 -114.046875 C 4.980469 -91.632812 -4.480469 -68.726562 -9.460938 -45.320312 C -12.949219 -28.386719 -11.453125 -11.453125 0.496094 2.488281 C 11.453125 15.9375 26.394531 13.445312 41.832031 8.464844 C 73.707031 -0.996094 106.078125 -22.410156 128.984375 -46.8125 C 137.453125 -56.277344 122.511719 -70.21875 114.046875 -60.757812 Z M 114.046875 -60.757812 "/></g></g></g></svg>