<svg xmlns="http://www.w3.org/2000/svg" xmlns:xlink="http://www.w3.org/1999/xlink" width="1080" zoomAndPan="magnify" viewBox="0 0 810 374.999991" height="500" preserveAspectRatio="xMidYMid meet" version="1.0"><defs><g/></defs><g fill="#000000" fill-opacity="0.3608"><g transform="translate(112.621636, 222.39761)"><g><path d="M 106.988281 -31.597656 C 124.507812 -36.914062 142.027344 -43.484375 158.917969 -51.617188 C 190.515625 -66.945312 222.109375 -89.15625 240.566406 -119.816406 C 249.640625 -134.519531 251.515625 -151.410156 240.253906 -165.800781 C 230.871094 -177.6875 216.167969 -183.007812 201.464844 -184.570312 C 165.488281 -188.636719 124.820312 -178.316406 91.972656 -164.863281 C 71.953125 -156.730469 53.179688 -146.09375 35.664062 -133.578125 C 20.019531 -122.316406 2.503906 -107.613281 11.261719 -86.65625 C 14.390625 -78.832031 30.65625 -73.828125 25.652344 -86.339844 C 20.019531 -99.792969 44.109375 -114.808594 52.867188 -120.753906 C 66.007812 -130.136719 80.398438 -138.273438 95.101562 -144.839844 C 124.195312 -157.980469 155.476562 -166.113281 187.386719 -168.304688 C 199.585938 -168.929688 213.976562 -169.867188 224.925781 -163.925781 C 240.253906 -155.789062 227.117188 -134.519531 219.921875 -125.132812 C 202.089844 -101.671875 178.316406 -83.839844 152.347656 -70.386719 C 137.332031 -62.566406 122.003906 -56.308594 106.050781 -51.304688 C 102.921875 -50.054688 98.855469 -48.488281 94.476562 -46.925781 C 106.363281 -74.453125 120.441406 -100.730469 137.332031 -125.757812 C 142.027344 -132.328125 127.011719 -146.09375 122.941406 -140.148438 C 101.984375 -109.179688 84.464844 -76.019531 71.324219 -40.980469 C 66.632812 -40.667969 61.941406 -40.980469 58.1875 -42.546875 C 57.25 -43.796875 56.308594 -44.734375 55.371094 -45.671875 C 50.367188 -51.929688 35.039062 -38.164062 40.042969 -32.222656 C 46.613281 -24.402344 53.496094 -17.519531 61.003906 -10.949219 C 57.25 1.5625 53.808594 14.078125 50.992188 26.902344 C 49.425781 34.410156 65.382812 46.613281 67.257812 38.792969 C 70.074219 26.277344 73.203125 14.078125 76.957031 1.878906 C 88.84375 10.949219 101.671875 18.769531 114.183594 25.964844 C 147.34375 44.734375 185.507812 59.4375 224.300781 56.621094 C 228.992188 55.996094 233.6875 52.867188 236.1875 48.488281 C 237.441406 45.988281 238.691406 40.042969 233.6875 40.355469 C 195.832031 43.171875 159.230469 28.78125 127.011719 10.636719 C 111.992188 2.191406 97.289062 -7.507812 83.527344 -18.457031 C 84.464844 -20.960938 85.089844 -23.460938 86.027344 -25.652344 C 93.222656 -27.214844 100.105469 -29.40625 106.988281 -31.597656 Z M 106.988281 -31.597656 "/></g></g></g><g fill="#000000" fill-opacity="0.3608"><g transform="translate(318.465018, 222.39761)"><g><path d="M 58.8125 -38.476562 C 44.109375 -26.277344 14.078125 -10.011719 1.5625 -7.820312 C 1.878906 -9.070312 2.503906 -10.636719 3.128906 -11.886719 C 6.882812 -21.898438 11.261719 -30.96875 16.894531 -40.042969 C 20.335938 -46.300781 5.003906 -59.75 0.625 -51.929688 C -6.257812 -40.355469 -16.582031 -24.402344 -16.265625 -10.636719 C -15.953125 1.5625 -4.378906 12.824219 7.820312 10.324219 C 18.457031 8.132812 28.78125 0.9375 37.539062 -5.003906 C 48.488281 -12.511719 59.125 -20.648438 69.449219 -29.40625 C 75.078125 -34.097656 65.070312 -43.796875 58.8125 -38.476562 Z M 30.65625 -71.324219 C 35.351562 -80.398438 35.976562 -82.273438 35.976562 -82.273438 C 39.730469 -88.53125 24.402344 -101.671875 20.019531 -93.851562 C 20.019531 -93.851562 18.144531 -90.722656 14.703125 -83.214844 C 11.574219 -76.332031 26.902344 -63.816406 30.65625 -71.324219 Z M 30.65625 -71.324219 "/></g></g></g><g fill="#000000" fill-opacity="0.3608"><g transform="translate(379.780054, 222.39761)"><g><path d="M 57.25 -41.605469 C 50.679688 -39.105469 35.664062 -35.039062 20.019531 -27.84375 C 18.457031 -29.40625 16.894531 -30.96875 15.328125 -32.847656 C 11.574219 -37.539062 8.757812 -48.800781 18.769531 -48.175781 C 23.460938 -47.863281 23.148438 -53.496094 21.585938 -56.308594 C 19.707031 -60.375 15.015625 -64.445312 10.324219 -64.757812 C -5.316406 -66.007812 -7.507812 -48.488281 -1.878906 -37.226562 C 1.25 -30.96875 6.570312 -26.589844 10.949219 -20.960938 C -6.257812 -6.882812 -18.457031 10.636719 -1.5625 24.714844 C 14.390625 37.851562 29.40625 18.457031 31.597656 3.128906 C 32.222656 -1.5625 31.910156 -6.257812 30.65625 -10.636719 C 40.355469 -18.144531 51.304688 -24.089844 62.566406 -28.46875 C 70.699219 -31.597656 64.128906 -44.421875 57.25 -41.605469 Z M 57.25 -41.605469 "/></g></g></g><g fill="#000000" fill-opacity="0.3608"><g transform="translate(439.530981, 222.39761)"><g><path d="M 155.476562 -119.816406 C 126.070312 -135.144531 89.46875 -135.457031 56.308594 -135.144531 C 61.003906 -145.46875 66.007812 -155.789062 71.011719 -165.800781 C 74.140625 -172.371094 58.5 -185.824219 54.746094 -177.6875 C 47.863281 -163.613281 40.980469 -149.222656 34.410156 -134.832031 C -1.878906 -133.578125 -38.476562 -129.511719 -74.453125 -122.628906 C -81.960938 -121.066406 -70.074219 -105.113281 -62.566406 -106.363281 C -32.847656 -112.308594 -3.128906 -115.746094 26.902344 -117.3125 C 1.5625 -59.75 -18.457031 0.3125 -17.519531 64.128906 C -17.207031 71.324219 -0.625 82.585938 -0.9375 72.578125 C -1.878906 5.316406 20.960938 -57.875 48.488281 -118.25 C 48.800781 -118.25 49.113281 -118.25 49.425781 -118.25 C 67.257812 -118.5625 85.089844 -118.25 102.921875 -117 C 121.066406 -115.746094 139.523438 -114.183594 155.789062 -105.425781 C 159.230469 -103.546875 163.296875 -103.859375 163.925781 -108.554688 C 164.238281 -112.933594 158.917969 -117.9375 155.476562 -119.816406 Z M 155.476562 -119.816406 "/></g></g></g><g fill="#000000" fill-opacity="0.3608"><g transform="translate(482.7018, 222.39761)"><g><path d="M 57.875 -40.980469 C 46.925781 -59.125 31.910156 -55.996094 17.519531 -45.046875 C 15.328125 -51.929688 4.066406 -59.4375 1.5625 -52.867188 C -5.316406 -34.410156 -12.824219 -16.265625 -19.707031 2.191406 C -22.210938 9.070312 -7.195312 22.210938 -3.441406 14.078125 C 1.878906 2.503906 9.070312 -8.132812 17.832031 -17.207031 C 21.585938 -21.585938 25.964844 -25.652344 30.65625 -29.09375 C 32.847656 -30.65625 41.917969 -37.539062 45.988281 -37.539062 C 48.488281 -35.039062 51.617188 -32.535156 54.746094 -32.847656 C 59.4375 -33.160156 60.0625 -37.539062 57.875 -40.980469 Z M 57.875 -40.980469 "/></g></g></g><g fill="#000000" fill-opacity="0.3608"><g transform="translate(558.719953, 222.39761)"><g><path d="M 81.023438 -39.105469 C 62.566406 -24.714844 17.519531 -2.503906 -1.25 0 C -0.625 -2.503906 0.3125 -5.003906 1.25 -7.195312 C 12.511719 -12.511719 54.433594 -28.78125 36.601562 -47.238281 C 24.402344 -60.0625 7.820312 -48.488281 -1.5625 -38.476562 C -11.886719 -27.214844 -26.277344 -5.003906 -15.015625 10.011719 C -7.820312 20.019531 2.816406 19.082031 13.140625 15.640625 C 41.292969 5.632812 67.257812 -13.140625 91.972656 -29.09375 C 97.917969 -33.160156 87.59375 -44.109375 81.023438 -39.105469 Z M 81.023438 -39.105469 "/></g></g></g><g fill="#000000" fill-opacity="0.3608"><g transform="translate(641.620446, 222.39761)"><g><path d="M 71.636719 -38.164062 C 62.878906 -28.78125 32.222656 -12.511719 9.386719 -9.386719 C 8.132812 -20.960938 16.582031 -38.164062 19.394531 -46.300781 C 25.027344 -62.878906 30.65625 -79.460938 36.601562 -95.726562 C 48.800781 -129.199219 61.941406 -162.359375 75.707031 -195.207031 C 78.519531 -202.089844 62.878906 -215.230469 59.4375 -207.09375 C 46.925781 -177.0625 35.039062 -146.71875 23.773438 -116.0625 C 18.144531 -101.359375 13.140625 -86.65625 7.820312 -71.636719 C 3.128906 -57.5625 -2.816406 -43.171875 -5.945312 -28.46875 C -8.132812 -17.832031 -7.195312 -7.195312 0.3125 1.5625 C 7.195312 10.011719 16.582031 8.445312 26.277344 5.316406 C 46.300781 -0.625 66.632812 -14.078125 81.023438 -29.40625 C 86.339844 -35.351562 76.957031 -44.109375 71.636719 -38.164062 Z M 71.636719 -38.164062 "/></g></g></g><g fill="#fafafa" fill-opacity="1"><g transform="translate(104.049883, 213.825857)"><g><path d="M 106.988281 -31.597656 C 124.507812 -36.914062 142.027344 -43.484375 158.917969 -51.617188 C 190.515625 -66.945312 222.109375 -89.15625 240.566406 -119.816406 C 249.640625 -134.519531 251.515625 -151.410156 240.253906 -165.800781 C 230.871094 -177.6875 216.167969 -183.007812 201.464844 -184.570312 C 165.488281 -188.636719 124.820312 -178.316406 91.972656 -164.863281 C 71.953125 -156.730469 53.179688 -146.09375 35.664062 -133.578125 C 20.019531 -122.316406 2.503906 -107.613281 11.261719 -86.65625 C 14.390625 -78.832031 30.65625 -73.828125 25.652344 -86.339844 C 20.019531 -99.792969 44.109375 -114.808594 52.867188 -120.753906 C 66.007812 -130.136719 80.398438 -138.273438 95.101562 -144.839844 C 124.195312 -157.980469 155.476562 -166.113281 187.386719 -168.304688 C 199.585938 -168.929688 213.976562 -169.867188 224.925781 -163.925781 C 240.253906 -155.789062 227.117188 -134.519531 219.921875 -125.132812 C 202.089844 -101.671875 178.316406 -83.839844 152.347656 -70.386719 C 137.332031 -62.566406 122.003906 -56.308594 106.050781 -51.304688 C 102.921875 -50.054688 98.855469 -48.488281 94.476562 -46.925781 C 106.363281 -74.453125 120.441406 -100.730469 137.332031 -125.757812 C 142.027344 -132.328125 127.011719 -146.09375 122.941406 -140.148438 C 101.984375 -109.179688 84.464844 -76.019531 71.324219 -40.980469 C 66.632812 -40.667969 61.941406 -40.980469 58.1875 -42.546875 C 57.25 -43.796875 56.308594 -44.734375 55.371094 -45.671875 C 50.367188 -51.929688 35.039062 -38.164062 40.042969 -32.222656 C 46.613281 -24.402344 53.496094 -17.519531 61.003906 -10.949219 C 57.25 1.5625 53.808594 14.078125 50.992188 26.902344 C 49.425781 34.410156 65.382812 46.613281 67.257812 38.792969 C 70.074219 26.277344 73.203125 14.078125 76.957031 1.878906 C 88.84375 10.949219 101.671875 18.769531 114.183594 25.964844 C 147.34375 44.734375 185.507812 59.4375 224.300781 56.621094 C 228.992188 55.996094 233.6875 52.867188 236.1875 48.488281 C 237.441406 45.988281 238.691406 40.042969 233.6875 40.355469 C 195.832031 43.171875 159.230469 28.78125 127.011719 10.636719 C 111.992188 2.191406 97.289062 -7.507812 83.527344 -18.457031 C 84.464844 -20.960938 85.089844 -23.460938 86.027344 -25.652344 C 93.222656 -27.214844 100.105469 -29.40625 106.988281 -31.597656 Z M 106.988281 -31.597656 "/></g></g></g><g fill="#fafafa" fill-opacity="1"><g transform="translate(309.893265, 213.825857)"><g><path d="M 58.8125 -38.476562 C 44.109375 -26.277344 14.078125 -10.011719 1.5625 -7.820312 C 1.878906 -9.070312 2.503906 -10.636719 3.128906 -11.886719 C 6.882812 -21.898438 11.261719 -30.96875 16.894531 -40.042969 C 20.335938 -46.300781 5.003906 -59.75 0.625 -51.929688 C -6.257812 -40.355469 -16.582031 -24.402344 -16.265625 -10.636719 C -15.953125 1.5625 -4.378906 12.824219 7.820312 10.324219 C 18.457031 8.132812 28.78125 0.9375 37.539062 -5.003906 C 48.488281 -12.511719 59.125 -20.648438 69.449219 -29.40625 C 75.078125 -34.097656 65.070312 -43.796875 58.8125 -38.476562 Z M 30.65625 -71.324219 C 35.351562 -80.398438 35.976562 -82.273438 35.976562 -82.273438 C 39.730469 -88.53125 24.402344 -101.671875 20.019531 -93.851562 C 20.019531 -93.851562 18.144531 -90.722656 14.703125 -83.214844 C 11.574219 -76.332031 26.902344 -63.816406 30.65625 -71.324219 Z M 30.65625 -71.324219 "/></g></g></g><g fill="#fafafa" fill-opacity="1"><g transform="translate(371.208301, 213.825857)"><g><path d="M 57.25 -41.605469 C 50.679688 -39.105469 35.664062 -35.039062 20.019531 -27.84375 C 18.457031 -29.40625 16.894531 -30.96875 15.328125 -32.847656 C 11.574219 -37.539062 8.757812 -48.800781 18.769531 -48.175781 C 23.460938 -47.863281 23.148438 -53.496094 21.585938 -56.308594 C 19.707031 -60.375 15.015625 -64.445312 10.324219 -64.757812 C -5.316406 -66.007812 -7.507812 -48.488281 -1.878906 -37.226562 C 1.25 -30.96875 6.570312 -26.589844 10.949219 -20.960938 C -6.257812 -6.882812 -18.457031 10.636719 -1.5625 24.714844 C 14.390625 37.851562 29.40625 18.457031 31.597656 3.128906 C 32.222656 -1.5625 31.910156 -6.257812 30.65625 -10.636719 C 40.355469 -18.144531 51.304688 -24.089844 62.566406 -28.46875 C 70.699219 -31.597656 64.128906 -44.421875 57.25 -41.605469 Z M 57.25 -41.605469 "/></g></g></g><g fill="#fafafa" fill-opacity="1"><g transform="translate(430.959228, 213.825857)"><g><path d="M 155.476562 -119.816406 C 126.070312 -135.144531 89.46875 -135.457031 56.308594 -135.144531 C 61.003906 -145.46875 66.007812 -155.789062 71.011719 -165.800781 C 74.140625 -172.371094 58.5 -185.824219 54.746094 -177.6875 C 47.863281 -163.613281 40.980469 -149.222656 34.410156 -134.832031 C -1.878906 -133.578125 -38.476562 -129.511719 -74.453125 -122.628906 C -81.960938 -121.066406 -70.074219 -105.113281 -62.566406 -106.363281 C -32.847656 -112.308594 -3.128906 -115.746094 26.902344 -117.3125 C 1.5625 -59.75 -18.457031 0.3125 -17.519531 64.128906 C -17.207031 71.324219 -0.625 82.585938 -0.9375 72.578125 C -1.878906 5.316406 20.960938 -57.875 48.488281 -118.25 C 48.800781 -118.25 49.113281 -118.25 49.425781 -118.25 C 67.257812 -118.5625 85.089844 -118.25 102.921875 -117 C 121.066406 -115.746094 139.523438 -114.183594 155.789062 -105.425781 C 159.230469 -103.546875 163.296875 -103.859375 163.925781 -108.554688 C 164.238281 -112.933594 158.917969 -117.9375 155.476562 -119.816406 Z M 155.476562 -119.816406 "/></g></g></g><g fill="#fafafa" fill-opacity="1"><g transform="translate(474.130047, 213.825857)"><g><path d="M 57.875 -40.980469 C 46.925781 -59.125 31.910156 -55.996094 17.519531 -45.046875 C 15.328125 -51.929688 4.066406 -59.4375 1.5625 -52.867188 C -5.316406 -34.410156 -12.824219 -16.265625 -19.707031 2.191406 C -22.210938 9.070312 -7.195312 22.210938 -3.441406 14.078125 C 1.878906 2.503906 9.070312 -8.132812 17.832031 -17.207031 C 21.585938 -21.585938 25.964844 -25.652344 30.65625 -29.09375 C 32.847656 -30.65625 41.917969 -37.539062 45.988281 -37.539062 C 48.488281 -35.039062 51.617188 -32.535156 54.746094 -32.847656 C 59.4375 -33.160156 60.0625 -37.539062 57.875 -40.980469 Z M 57.875 -40.980469 "/></g></g></g><g fill="#fafafa" fill-opacity="1"><g transform="translate(550.1482, 213.825857)"><g><path d="M 81.023438 -39.105469 C 62.566406 -24.714844 17.519531 -2.503906 -1.25 0 C -0.625 -2.503906 0.3125 -5.003906 1.25 -7.195312 C 12.511719 -12.511719 54.433594 -28.78125 36.601562 -47.238281 C 24.402344 -60.0625 7.820312 -48.488281 -1.5625 -38.476562 C -11.886719 -27.214844 -26.277344 -5.003906 -15.015625 10.011719 C -7.820312 20.019531 2.816406 19.082031 13.140625 15.640625 C 41.292969 5.632812 67.257812 -13.140625 91.972656 -29.09375 C 97.917969 -33.160156 87.59375 -44.109375 81.023438 -39.105469 Z M 81.023438 -39.105469 "/></g></g></g><g fill="#fafafa" fill-opacity="1"><g transform="translate(633.048693, 213.825857)"><g><path d="M 71.636719 -38.164062 C 62.878906 -28.78125 32.222656 -12.511719 9.386719 -9.386719 C 8.132812 -20.960938 16.582031 -38.164062 19.394531 -46.300781 C 25.027344 -62.878906 30.65625 -79.460938 36.601562 -95.726562 C 48.800781 -129.199219 61.941406 -162.359375 75.707031 -195.207031 C 78.519531 -202.089844 62.878906 -215.230469 59.4375 -207.09375 C 46.925781 -177.0625 35.039062 -146.71875 23.773438 -116.0625 C 18.144531 -101.359375 13.140625 -86.65625 7.820312 -71.636719 C 3.128906 -57.5625 -2.816406 -43.171875 -5.945312 -28.46875 C -8.132812 -17.832031 -7.195312 -7.195312 0.3125 1.5625 C 7.195312 10.011719 16.582031 8.445312 26.277344 5.316406 C 46.300781 -0.625 66.632812 -14.078125 81.023438 -29.40625 C 86.339844 -35.351562 76.957031 -44.109375 71.636719 -38.164062 Z M 71.636719 -38.164062 "/></g></g></g><g fill="#000000" fill-opacity="0.5216"><g transform="translate(281.79087, 343.881628)"><g><path d="M 10.15625 0 L 2.9375 0 L 2.9375 -27.125 L 18.96875 -27.125 L 18.96875 -21.25 L 10.15625 -21.25 L 10.15625 -16.0625 L 18.28125 -16.0625 L 18.28125 -10.1875 L 10.15625 -10.1875 Z M 10.15625 0 "/></g></g></g><g fill="#000000" fill-opacity="0.5216"><g transform="translate(302.271032, 343.881628)"><g><path d="M 28.3125 -13.59375 C 28.3125 -9.03125 27.191406 -5.5625 24.953125 -3.1875 C 22.710938 -0.8125 19.4375 0.375 15.125 0.375 C 10.863281 0.375 7.597656 -0.816406 5.328125 -3.203125 C 3.066406 -5.597656 1.9375 -9.078125 1.9375 -13.640625 C 1.9375 -18.148438 3.0625 -21.59375 5.3125 -23.96875 C 7.570312 -26.351562 10.851562 -27.546875 15.15625 -27.546875 C 19.476562 -27.546875 22.75 -26.363281 24.96875 -24 C 27.195312 -21.644531 28.3125 -18.175781 28.3125 -13.59375 Z M 9.65625 -13.59375 C 9.65625 -8.351562 11.476562 -5.734375 15.125 -5.734375 C 16.976562 -5.734375 18.351562 -6.367188 19.25 -7.640625 C 20.144531 -8.921875 20.59375 -10.90625 20.59375 -13.59375 C 20.59375 -16.3125 20.140625 -18.316406 19.234375 -19.609375 C 18.328125 -20.898438 16.96875 -21.546875 15.15625 -21.546875 C 11.488281 -21.546875 9.65625 -18.894531 9.65625 -13.59375 Z M 9.65625 -13.59375 "/></g></g></g><g fill="#000000" fill-opacity="0.5216"><g transform="translate(332.546054, 343.881628)"><g><path d="M 28.3125 -13.59375 C 28.3125 -9.03125 27.191406 -5.5625 24.953125 -3.1875 C 22.710938 -0.8125 19.4375 0.375 15.125 0.375 C 10.863281 0.375 7.597656 -0.816406 5.328125 -3.203125 C 3.066406 -5.597656 1.9375 -9.078125 1.9375 -13.640625 C 1.9375 -18.148438 3.0625 -21.59375 5.3125 -23.96875 C 7.570312 -26.351562 10.851562 -27.546875 15.15625 -27.546875 C 19.476562 -27.546875 22.75 -26.363281 24.96875 -24 C 27.195312 -21.644531 28.3125 -18.175781 28.3125 -13.59375 Z M 9.65625 -13.59375 C 9.65625 -8.351562 11.476562 -5.734375 15.125 -5.734375 C 16.976562 -5.734375 18.351562 -6.367188 19.25 -7.640625 C 20.144531 -8.921875 20.59375 -10.90625 20.59375 -13.59375 C 20.59375 -16.3125 20.140625 -18.316406 19.234375 -19.609375 C 18.328125 -20.898438 16.96875 -21.546875 15.15625 -21.546875 C 11.488281 -21.546875 9.65625 -18.894531 9.65625 -13.59375 Z M 9.65625 -13.59375 "/></g></g></g><g fill="#000000" fill-opacity="0.5216"><g transform="translate(362.821077, 343.881628)"><g><path d="M 25.953125 -14.140625 C 25.953125 -9.609375 24.707031 -6.117188 22.21875 -3.671875 C 19.726562 -1.222656 16.222656 0 11.703125 0 L 2.9375 0 L 2.9375 -27.125 L 12.328125 -27.125 C 16.679688 -27.125 20.039062 -26.007812 22.40625 -23.78125 C 24.769531 -21.5625 25.953125 -18.347656 25.953125 -14.140625 Z M 18.34375 -13.875 C 18.34375 -16.363281 17.851562 -18.207031 16.875 -19.40625 C 15.894531 -20.601562 14.398438 -21.203125 12.390625 -21.203125 L 10.265625 -21.203125 L 10.265625 -6.015625 L 11.890625 -6.015625 C 14.117188 -6.015625 15.75 -6.660156 16.78125 -7.953125 C 17.820312 -9.242188 18.34375 -11.21875 18.34375 -13.875 Z M 18.34375 -13.875 "/></g></g></g><g fill="#000000" fill-opacity="0.5216"><g transform="translate(390.703036, 343.881628)"><g/></g></g><g fill="#000000" fill-opacity="0.5216"><g transform="translate(400.5721, 343.881628)"><g><path d="M 26.1875 0 L 18.8125 0 L 18.8125 -11.0625 L 10.296875 -11.0625 L 10.296875 0 L 2.9375 0 L 2.9375 -27.125 L 10.296875 -27.125 L 10.296875 -17.078125 L 18.8125 -17.078125 L 18.8125 -27.125 L 26.1875 -27.125 Z M 26.1875 0 "/></g></g></g><g fill="#000000" fill-opacity="0.5216"><g transform="translate(429.678418, 343.881628)"><g><path d="M 28.3125 -13.59375 C 28.3125 -9.03125 27.191406 -5.5625 24.953125 -3.1875 C 22.710938 -0.8125 19.4375 0.375 15.125 0.375 C 10.863281 0.375 7.597656 -0.816406 5.328125 -3.203125 C 3.066406 -5.597656 1.9375 -9.078125 1.9375 -13.640625 C 1.9375 -18.148438 3.0625 -21.59375 5.3125 -23.96875 C 7.570312 -26.351562 10.851562 -27.546875 15.15625 -27.546875 C 19.476562 -27.546875 22.75 -26.363281 24.96875 -24 C 27.195312 -21.644531 28.3125 -18.175781 28.3125 -13.59375 Z M 9.65625 -13.59375 C 9.65625 -8.351562 11.476562 -5.734375 15.125 -5.734375 C 16.976562 -5.734375 18.351562 -6.367188 19.25 -7.640625 C 20.144531 -8.921875 20.59375 -10.90625 20.59375 -13.59375 C 20.59375 -16.3125 20.140625 -18.316406 19.234375 -19.609375 C 18.328125 -20.898438 16.96875 -21.546875 15.15625 -21.546875 C 11.488281 -21.546875 9.65625 -18.894531 9.65625 -13.59375 Z M 9.65625 -13.59375 "/></g></g></g><g fill="#000000" fill-opacity="0.5216"><g transform="translate(459.95344, 343.881628)"><g><path d="M 26 -27.125 L 26 -10.796875 C 26 -7.242188 24.992188 -4.492188 22.984375 -2.546875 C 20.972656 -0.597656 18.070312 0.375 14.28125 0.375 C 10.582031 0.375 7.738281 -0.570312 5.75 -2.46875 C 3.769531 -4.363281 2.78125 -7.082031 2.78125 -10.625 L 2.78125 -27.125 L 10.15625 -27.125 L 10.15625 -11.203125 C 10.15625 -9.285156 10.507812 -7.894531 11.21875 -7.03125 C 11.9375 -6.164062 13 -5.734375 14.40625 -5.734375 C 15.894531 -5.734375 16.976562 -6.160156 17.65625 -7.015625 C 18.332031 -7.878906 18.671875 -9.289062 18.671875 -11.25 L 18.671875 -27.125 Z M 26 -27.125 "/></g></g></g><g fill="#000000" fill-opacity="0.5216"><g transform="translate(488.707291, 343.881628)"><g><path d="M 20.671875 -8.234375 C 20.671875 -6.554688 20.242188 -5.0625 19.390625 -3.75 C 18.535156 -2.445312 17.300781 -1.429688 15.6875 -0.703125 C 14.082031 0.015625 12.195312 0.375 10.03125 0.375 C 8.226562 0.375 6.710938 0.25 5.484375 0 C 4.265625 -0.257812 2.992188 -0.707031 1.671875 -1.34375 L 1.671875 -7.875 C 3.066406 -7.15625 4.519531 -6.59375 6.03125 -6.1875 C 7.539062 -5.78125 8.925781 -5.578125 10.1875 -5.578125 C 11.269531 -5.578125 12.066406 -5.765625 12.578125 -6.140625 C 13.085938 -6.523438 13.34375 -7.015625 13.34375 -7.609375 C 13.34375 -7.984375 13.238281 -8.304688 13.03125 -8.578125 C 12.832031 -8.859375 12.503906 -9.140625 12.046875 -9.421875 C 11.597656 -9.710938 10.394531 -10.296875 8.4375 -11.171875 C 6.675781 -11.972656 5.351562 -12.75 4.46875 -13.5 C 3.582031 -14.257812 2.925781 -15.128906 2.5 -16.109375 C 2.070312 -17.085938 1.859375 -18.242188 1.859375 -19.578125 C 1.859375 -22.078125 2.765625 -24.023438 4.578125 -25.421875 C 6.398438 -26.816406 8.898438 -27.515625 12.078125 -27.515625 C 14.890625 -27.515625 17.753906 -26.863281 20.671875 -25.5625 L 18.421875 -19.90625 C 15.890625 -21.070312 13.703125 -21.65625 11.859375 -21.65625 C 10.898438 -21.65625 10.203125 -21.488281 9.765625 -21.15625 C 9.335938 -20.820312 9.125 -20.40625 9.125 -19.90625 C 9.125 -19.375 9.398438 -18.894531 9.953125 -18.46875 C 10.503906 -18.050781 12 -17.289062 14.4375 -16.1875 C 16.769531 -15.132812 18.390625 -14.003906 19.296875 -12.796875 C 20.210938 -11.585938 20.671875 -10.066406 20.671875 -8.234375 Z M 20.671875 -8.234375 "/></g></g></g><g fill="#000000" fill-opacity="0.5216"><g transform="translate(510.634421, 343.881628)"><g><path d="M 19.03125 0 L 2.9375 0 L 2.9375 -27.125 L 19.03125 -27.125 L 19.03125 -21.25 L 10.265625 -21.25 L 10.265625 -16.984375 L 18.390625 -16.984375 L 18.390625 -11.09375 L 10.265625 -11.09375 L 10.265625 -5.96875 L 19.03125 -5.96875 Z M 19.03125 0 "/></g></g></g><g fill="#d9d9d9" fill-opacity="1"><g transform="translate(280.145089, 342.235847)"><g><path d="M 10.15625 0 L 2.9375 0 L 2.9375 -27.125 L 18.96875 -27.125 L 18.96875 -21.25 L 10.15625 -21.25 L 10.15625 -16.0625 L 18.28125 -16.0625 L 18.28125 -10.1875 L 10.15625 -10.1875 Z M 10.15625 0 "/></g></g></g><g fill="#d9d9d9" fill-opacity="1"><g transform="translate(300.625251, 342.235847)"><g><path d="M 28.3125 -13.59375 C 28.3125 -9.03125 27.191406 -5.5625 24.953125 -3.1875 C 22.710938 -0.8125 19.4375 0.375 15.125 0.375 C 10.863281 0.375 7.597656 -0.816406 5.328125 -3.203125 C 3.066406 -5.597656 1.9375 -9.078125 1.9375 -13.640625 C 1.9375 -18.148438 3.0625 -21.59375 5.3125 -23.96875 C 7.570312 -26.351562 10.851562 -27.546875 15.15625 -27.546875 C 19.476562 -27.546875 22.75 -26.363281 24.96875 -24 C 27.195312 -21.644531 28.3125 -18.175781 28.3125 -13.59375 Z M 9.65625 -13.59375 C 9.65625 -8.351562 11.476562 -5.734375 15.125 -5.734375 C 16.976562 -5.734375 18.351562 -6.367188 19.25 -7.640625 C 20.144531 -8.921875 20.59375 -10.90625 20.59375 -13.59375 C 20.59375 -16.3125 20.140625 -18.316406 19.234375 -19.609375 C 18.328125 -20.898438 16.96875 -21.546875 15.15625 -21.546875 C 11.488281 -21.546875 9.65625 -18.894531 9.65625 -13.59375 Z M 9.65625 -13.59375 "/></g></g></g><g fill="#d9d9d9" fill-opacity="1"><g transform="translate(330.900274, 342.235847)"><g><path d="M 28.3125 -13.59375 C 28.3125 -9.03125 27.191406 -5.5625 24.953125 -3.1875 C 22.710938 -0.8125 19.4375 0.375 15.125 0.375 C 10.863281 0.375 7.597656 -0.816406 5.328125 -3.203125 C 3.066406 -5.597656 1.9375 -9.078125 1.9375 -13.640625 C 1.9375 -18.148438 3.0625 -21.59375 5.3125 -23.96875 C 7.570312 -26.351562 10.851562 -27.546875 15.15625 -27.546875 C 19.476562 -27.546875 22.75 -26.363281 24.96875 -24 C 27.195312 -21.644531 28.3125 -18.175781 28.3125 -13.59375 Z M 9.65625 -13.59375 C 9.65625 -8.351562 11.476562 -5.734375 15.125 -5.734375 C 16.976562 -5.734375 18.351562 -6.367188 19.25 -7.640625 C 20.144531 -8.921875 20.59375 -10.90625 20.59375 -13.59375 C 20.59375 -16.3125 20.140625 -18.316406 19.234375 -19.609375 C 18.328125 -20.898438 16.96875 -21.546875 15.15625 -21.546875 C 11.488281 -21.546875 9.65625 -18.894531 9.65625 -13.59375 Z M 9.65625 -13.59375 "/></g></g></g><g fill="#d9d9d9" fill-opacity="1"><g transform="translate(361.175296, 342.235847)"><g><path d="M 25.953125 -14.140625 C 25.953125 -9.609375 24.707031 -6.117188 22.21875 -3.671875 C 19.726562 -1.222656 16.222656 0 11.703125 0 L 2.9375 0 L 2.9375 -27.125 L 12.328125 -27.125 C 16.679688 -27.125 20.039062 -26.007812 22.40625 -23.78125 C 24.769531 -21.5625 25.953125 -18.347656 25.953125 -14.140625 Z M 18.34375 -13.875 C 18.34375 -16.363281 17.851562 -18.207031 16.875 -19.40625 C 15.894531 -20.601562 14.398438 -21.203125 12.390625 -21.203125 L 10.265625 -21.203125 L 10.265625 -6.015625 L 11.890625 -6.015625 C 14.117188 -6.015625 15.75 -6.660156 16.78125 -7.953125 C 17.820312 -9.242188 18.34375 -11.21875 18.34375 -13.875 Z M 18.34375 -13.875 "/></g></g></g><g fill="#d9d9d9" fill-opacity="1"><g transform="translate(389.057256, 342.235847)"><g/></g></g><g fill="#d9d9d9" fill-opacity="1"><g transform="translate(398.926319, 342.235847)"><g><path d="M 26.1875 0 L 18.8125 0 L 18.8125 -11.0625 L 10.296875 -11.0625 L 10.296875 0 L 2.9375 0 L 2.9375 -27.125 L 10.296875 -27.125 L 10.296875 -17.078125 L 18.8125 -17.078125 L 18.8125 -27.125 L 26.1875 -27.125 Z M 26.1875 0 "/></g></g></g><g fill="#d9d9d9" fill-opacity="1"><g transform="translate(428.032637, 342.235847)"><g><path d="M 28.3125 -13.59375 C 28.3125 -9.03125 27.191406 -5.5625 24.953125 -3.1875 C 22.710938 -0.8125 19.4375 0.375 15.125 0.375 C 10.863281 0.375 7.597656 -0.816406 5.328125 -3.203125 C 3.066406 -5.597656 1.9375 -9.078125 1.9375 -13.640625 C 1.9375 -18.148438 3.0625 -21.59375 5.3125 -23.96875 C 7.570312 -26.351562 10.851562 -27.546875 15.15625 -27.546875 C 19.476562 -27.546875 22.75 -26.363281 24.96875 -24 C 27.195312 -21.644531 28.3125 -18.175781 28.3125 -13.59375 Z M 9.65625 -13.59375 C 9.65625 -8.351562 11.476562 -5.734375 15.125 -5.734375 C 16.976562 -5.734375 18.351562 -6.367188 19.25 -7.640625 C 20.144531 -8.921875 20.59375 -10.90625 20.59375 -13.59375 C 20.59375 -16.3125 20.140625 -18.316406 19.234375 -19.609375 C 18.328125 -20.898438 16.96875 -21.546875 15.15625 -21.546875 C 11.488281 -21.546875 9.65625 -18.894531 9.65625 -13.59375 Z M 9.65625 -13.59375 "/></g></g></g><g fill="#d9d9d9" fill-opacity="1"><g transform="translate(458.307659, 342.235847)"><g><path d="M 26 -27.125 L 26 -10.796875 C 26 -7.242188 24.992188 -4.492188 22.984375 -2.546875 C 20.972656 -0.597656 18.070312 0.375 14.28125 0.375 C 10.582031 0.375 7.738281 -0.570312 5.75 -2.46875 C 3.769531 -4.363281 2.78125 -7.082031 2.78125 -10.625 L 2.78125 -27.125 L 10.15625 -27.125 L 10.15625 -11.203125 C 10.15625 -9.285156 10.507812 -7.894531 11.21875 -7.03125 C 11.9375 -6.164062 13 -5.734375 14.40625 -5.734375 C 15.894531 -5.734375 16.976562 -6.160156 17.65625 -7.015625 C 18.332031 -7.878906 18.671875 -9.289062 18.671875 -11.25 L 18.671875 -27.125 Z M 26 -27.125 "/></g></g></g><g fill="#d9d9d9" fill-opacity="1"><g transform="translate(487.06151, 342.235847)"><g><path d="M 20.671875 -8.234375 C 20.671875 -6.554688 20.242188 -5.0625 19.390625 -3.75 C 18.535156 -2.445312 17.300781 -1.429688 15.6875 -0.703125 C 14.082031 0.015625 12.195312 0.375 10.03125 0.375 C 8.226562 0.375 6.710938 0.25 5.484375 0 C 4.265625 -0.257812 2.992188 -0.707031 1.671875 -1.34375 L 1.671875 -7.875 C 3.066406 -7.15625 4.519531 -6.59375 6.03125 -6.1875 C 7.539062 -5.78125 8.925781 -5.578125 10.1875 -5.578125 C 11.269531 -5.578125 12.066406 -5.765625 12.578125 -6.140625 C 13.085938 -6.523438 13.34375 -7.015625 13.34375 -7.609375 C 13.34375 -7.984375 13.238281 -8.304688 13.03125 -8.578125 C 12.832031 -8.859375 12.503906 -9.140625 12.046875 -9.421875 C 11.597656 -9.710938 10.394531 -10.296875 8.4375 -11.171875 C 6.675781 -11.972656 5.351562 -12.75 4.46875 -13.5 C 3.582031 -14.257812 2.925781 -15.128906 2.5 -16.109375 C 2.070312 -17.085938 1.859375 -18.242188 1.859375 -19.578125 C 1.859375 -22.078125 2.765625 -24.023438 4.578125 -25.421875 C 6.398438 -26.816406 8.898438 -27.515625 12.078125 -27.515625 C 14.890625 -27.515625 17.753906 -26.863281 20.671875 -25.5625 L 18.421875 -19.90625 C 15.890625 -21.070312 13.703125 -21.65625 11.859375 -21.65625 C 10.898438 -21.65625 10.203125 -21.488281 9.765625 -21.15625 C 9.335938 -20.820312 9.125 -20.40625 9.125 -19.90625 C 9.125 -19.375 9.398438 -18.894531 9.953125 -18.46875 C 10.503906 -18.050781 12 -17.289062 14.4375 -16.1875 C 16.769531 -15.132812 18.390625 -14.003906 19.296875 -12.796875 C 20.210938 -11.585938 20.671875 -10.066406 20.671875 -8.234375 Z M 20.671875 -8.234375 "/></g></g></g><g fill="#d9d9d9" fill-opacity="1"><g transform="translate(508.98864, 342.235847)"><g><path d="M 19.03125 0 L 2.9375 0 L 2.9375 -27.125 L 19.03125 -27.125 L 19.03125 -21.25 L 10.265625 -21.25 L 10.265625 -16.984375 L 18.390625 -16.984375 L 18.390625 -11.09375 L 10.265625 -11.09375 L 10.265625 -5.96875 L 19.03125 -5.96875 Z M 19.03125 0 "/></g></g></g></svg>