<svg xmlns="http://www.w3.org/2000/svg" xmlns:xlink="http://www.w3.org/1999/xlink" width="1920" zoomAndPan="magnify" viewBox="0 0 1440 809.999993" height="1080" preserveAspectRatio="xMidYMid meet" version="1.0"><defs><g/><clipPath id="id1"><path d="M 259.402344 503.847656 L 297.652344 503.847656 L 297.652344 542.097656 L 259.402344 542.097656 Z M 259.402344 503.847656 " clip-rule="nonzero"/></clipPath><clipPath id="id2"><path d="M 347.617188 503.847656 L 385.867188 503.847656 L 385.867188 542.097656 L 347.617188 542.097656 Z M 347.617188 503.847656 " clip-rule="nonzero"/></clipPath><clipPath id="id3"><path d="M 435.941406 503.847656 L 474.191406 503.847656 L 474.191406 542.097656 L 435.941406 542.097656 Z M 435.941406 503.847656 " clip-rule="nonzero"/></clipPath><clipPath id="id4"><path d="M 524.15625 503.847656 L 562.40625 503.847656 L 562.40625 542.097656 L 524.15625 542.097656 Z M 524.15625 503.847656 " clip-rule="nonzero"/></clipPath><clipPath id="id5"><path d="M 612.476562 503.847656 L 650.726562 503.847656 L 650.726562 542.097656 L 612.476562 542.097656 Z M 612.476562 503.847656 " clip-rule="nonzero"/></clipPath><clipPath id="id6"><path d="M 700.695312 503.847656 L 738.945312 503.847656 L 738.945312 542.097656 L 700.695312 542.097656 Z M 700.695312 503.847656 " clip-rule="nonzero"/></clipPath><clipPath id="id7"><path d="M 789.015625 503.847656 L 827.265625 503.847656 L 827.265625 542.097656 L 789.015625 542.097656 Z M 789.015625 503.847656 " clip-rule="nonzero"/></clipPath><clipPath id="id8"><path d="M 877.230469 503.847656 L 915.480469 503.847656 L 915.480469 542.097656 L 877.230469 542.097656 Z M 877.230469 503.847656 " clip-rule="nonzero"/></clipPath><clipPath id="id9"><path d="M 965.554688 503.847656 L 1003.804688 503.847656 L 1003.804688 542.097656 L 965.554688 542.097656 Z M 965.554688 503.847656 " clip-rule="nonzero"/></clipPath><clipPath id="id10"><path d="M 1053.875 503.847656 L 1092.125 503.847656 L 1092.125 542.097656 L 1053.875 542.097656 Z M 1053.875 503.847656 " clip-rule="nonzero"/></clipPath><clipPath id="id11"><path d="M 1142.089844 503.847656 L 1180.339844 503.847656 L 1180.339844 542.097656 L 1142.089844 542.097656 Z M 1142.089844 503.847656 " clip-rule="nonzero"/></clipPath></defs><g clip-path="url(#id1)"><path fill="#a6a6a6" d="M 278.527344 503.847656 C 267.964844 503.847656 259.402344 512.410156 259.402344 522.972656 C 259.402344 533.535156 267.964844 542.097656 278.527344 542.097656 C 289.089844 542.097656 297.652344 533.535156 297.652344 522.972656 C 297.652344 512.410156 289.089844 503.847656 278.527344 503.847656 " fill-opacity="1" fill-rule="nonzero"/></g><g clip-path="url(#id2)"><path fill="#a6a6a6" d="M 366.742188 503.847656 C 356.179688 503.847656 347.617188 512.410156 347.617188 522.972656 C 347.617188 533.535156 356.179688 542.097656 366.742188 542.097656 C 377.304688 542.097656 385.867188 533.535156 385.867188 522.972656 C 385.867188 512.410156 377.304688 503.847656 366.742188 503.847656 " fill-opacity="1" fill-rule="nonzero"/></g><g clip-path="url(#id3)"><path fill="#a6a6a6" d="M 455.066406 503.847656 C 444.503906 503.847656 435.941406 512.410156 435.941406 522.972656 C 435.941406 533.535156 444.503906 542.097656 455.066406 542.097656 C 465.628906 542.097656 474.191406 533.535156 474.191406 522.972656 C 474.191406 512.410156 465.628906 503.847656 455.066406 503.847656 " fill-opacity="1" fill-rule="nonzero"/></g><g clip-path="url(#id4)"><path fill="#a6a6a6" d="M 543.28125 503.847656 C 532.71875 503.847656 524.15625 512.410156 524.15625 522.972656 C 524.15625 533.535156 532.71875 542.097656 543.28125 542.097656 C 553.84375 542.097656 562.40625 533.535156 562.40625 522.972656 C 562.40625 512.410156 553.84375 503.847656 543.28125 503.847656 " fill-opacity="1" fill-rule="nonzero"/></g><g clip-path="url(#id5)"><path fill="#a6a6a6" d="M 631.601562 503.847656 C 621.039062 503.847656 612.476562 512.410156 612.476562 522.972656 C 612.476562 533.535156 621.039062 542.097656 631.601562 542.097656 C 642.164062 542.097656 650.726562 533.535156 650.726562 522.972656 C 650.726562 512.410156 642.164062 503.847656 631.601562 503.847656 " fill-opacity="1" fill-rule="nonzero"/></g><g clip-path="url(#id6)"><path fill="#a6a6a6" d="M 719.820312 503.847656 C 709.257812 503.847656 700.695312 512.410156 700.695312 522.972656 C 700.695312 533.535156 709.257812 542.097656 719.820312 542.097656 C 730.382812 542.097656 738.945312 533.535156 738.945312 522.972656 C 738.945312 512.410156 730.382812 503.847656 719.820312 503.847656 " fill-opacity="1" fill-rule="nonzero"/></g><g clip-path="url(#id7)"><path fill="#a6a6a6" d="M 808.140625 503.847656 C 797.578125 503.847656 789.015625 512.410156 789.015625 522.972656 C 789.015625 533.535156 797.578125 542.097656 808.140625 542.097656 C 818.703125 542.097656 827.265625 533.535156 827.265625 522.972656 C 827.265625 512.410156 818.703125 503.847656 808.140625 503.847656 " fill-opacity="1" fill-rule="nonzero"/></g><g clip-path="url(#id8)"><path fill="#a6a6a6" d="M 896.355469 503.847656 C 885.792969 503.847656 877.230469 512.410156 877.230469 522.972656 C 877.230469 533.535156 885.792969 542.097656 896.355469 542.097656 C 906.917969 542.097656 915.480469 533.535156 915.480469 522.972656 C 915.480469 512.410156 906.917969 503.847656 896.355469 503.847656 " fill-opacity="1" fill-rule="nonzero"/></g><g clip-path="url(#id9)"><path fill="#a6a6a6" d="M 984.679688 503.847656 C 974.117188 503.847656 965.554688 512.410156 965.554688 522.972656 C 965.554688 533.535156 974.117188 542.097656 984.679688 542.097656 C 995.242188 542.097656 1003.804688 533.535156 1003.804688 522.972656 C 1003.804688 512.410156 995.242188 503.847656 984.679688 503.847656 " fill-opacity="1" fill-rule="nonzero"/></g><g clip-path="url(#id10)"><path fill="#a6a6a6" d="M 1073 503.847656 C 1062.4375 503.847656 1053.875 512.410156 1053.875 522.972656 C 1053.875 533.535156 1062.4375 542.097656 1073 542.097656 C 1083.5625 542.097656 1092.125 533.535156 1092.125 522.972656 C 1092.125 512.410156 1083.5625 503.847656 1073 503.847656 " fill-opacity="1" fill-rule="nonzero"/></g><g clip-path="url(#id11)"><path fill="#a6a6a6" d="M 1161.214844 503.847656 C 1150.652344 503.847656 1142.089844 512.410156 1142.089844 522.972656 C 1142.089844 533.535156 1150.652344 542.097656 1161.214844 542.097656 C 1171.777344 542.097656 1180.339844 533.535156 1180.339844 522.972656 C 1180.339844 512.410156 1171.777344 503.847656 1161.214844 503.847656 " fill-opacity="1" fill-rule="nonzero"/></g><g fill="#545454" fill-opacity="1"><g transform="translate(142.659023, 409.254002)"><g><path d="M 180.84375 -72.078125 C 180.84375 -57.359375 177.109375 -44.289062 169.640625 -32.875 C 162.171875 -21.457031 151.398438 -12.582031 137.328125 -6.25 C 123.265625 0.0820312 106.765625 3.25 87.828125 3.25 C 72.023438 3.25 58.765625 2.140625 48.046875 -0.078125 C 37.335938 -2.296875 26.191406 -6.164062 14.609375 -11.6875 L 14.609375 -68.828125 C 26.835938 -62.546875 39.550781 -57.644531 52.75 -54.125 C 65.957031 -50.613281 78.082031 -48.859375 89.125 -48.859375 C 98.644531 -48.859375 105.625 -50.507812 110.0625 -53.8125 C 114.5 -57.113281 116.71875 -61.363281 116.71875 -66.5625 C 116.71875 -69.800781 115.820312 -72.640625 114.03125 -75.078125 C 112.25 -77.515625 109.382812 -79.976562 105.4375 -82.46875 C 101.488281 -84.957031 90.960938 -90.039062 73.859375 -97.71875 C 58.378906 -104.757812 46.769531 -111.578125 39.03125 -118.171875 C 31.300781 -124.773438 25.566406 -132.351562 21.828125 -140.90625 C 18.097656 -149.457031 16.234375 -159.578125 16.234375 -171.265625 C 16.234375 -193.117188 24.1875 -210.160156 40.09375 -222.390625 C 56 -234.617188 77.859375 -240.734375 105.671875 -240.734375 C 130.242188 -240.734375 155.300781 -235.050781 180.84375 -223.6875 L 161.1875 -174.1875 C 139.007812 -184.351562 119.859375 -189.4375 103.734375 -189.4375 C 95.398438 -189.4375 89.335938 -187.972656 85.546875 -185.046875 C 81.753906 -182.128906 79.859375 -178.507812 79.859375 -174.1875 C 79.859375 -169.53125 82.265625 -165.359375 87.078125 -161.671875 C 91.898438 -157.992188 104.972656 -151.285156 126.296875 -141.546875 C 146.742188 -132.347656 160.945312 -122.472656 168.90625 -111.921875 C 176.863281 -101.367188 180.84375 -88.085938 180.84375 -72.078125 Z M 180.84375 -72.078125 "/></g></g><g transform="translate(334.537784, 409.254002)"><g><path d="M 251.609375 0 L 167.53125 0 L 80.84375 -167.203125 L 79.375 -167.203125 C 81.4375 -140.898438 82.46875 -120.820312 82.46875 -106.96875 L 82.46875 0 L 25.640625 0 L 25.640625 -237.328125 L 109.40625 -237.328125 L 195.765625 -72.40625 L 196.75 -72.40625 C 195.226562 -96.320312 194.46875 -115.53125 194.46875 -130.03125 L 194.46875 -237.328125 L 251.609375 -237.328125 Z M 251.609375 0 "/></g></g><g transform="translate(611.804217, 409.254002)"><g><path d="M 171.265625 0 L 159.578125 -44.484375 L 82.46875 -44.484375 L 70.453125 0 L 0 0 L 77.4375 -238.296875 L 162.984375 -238.296875 L 241.390625 0 Z M 146.265625 -97.078125 L 136.03125 -136.03125 C 133.65625 -144.6875 130.757812 -155.882812 127.34375 -169.625 C 123.9375 -183.375 121.691406 -193.222656 120.609375 -199.171875 C 119.640625 -193.660156 117.71875 -184.570312 114.84375 -171.90625 C 111.976562 -159.25 105.625 -134.304688 95.78125 -97.078125 Z M 146.265625 -97.078125 "/></g></g><g transform="translate(853.19484, 409.254002)"><g><path d="M 131.328125 -188.140625 C 116.066406 -188.140625 104.160156 -181.890625 95.609375 -169.390625 C 87.054688 -156.890625 82.78125 -139.65625 82.78125 -117.6875 C 82.78125 -72.019531 100.148438 -49.1875 134.890625 -49.1875 C 145.390625 -49.1875 155.5625 -50.644531 165.40625 -53.5625 C 175.257812 -56.488281 185.164062 -60.007812 195.125 -64.125 L 195.125 -9.90625 C 175.320312 -1.132812 152.921875 3.25 127.921875 3.25 C 92.097656 3.25 64.632812 -7.140625 45.53125 -27.921875 C 26.425781 -48.703125 16.875 -78.734375 16.875 -118.015625 C 16.875 -142.578125 21.5 -164.164062 30.75 -182.78125 C 40.007812 -201.394531 53.320312 -215.707031 70.6875 -225.71875 C 88.0625 -235.726562 108.488281 -240.734375 131.96875 -240.734375 C 157.625 -240.734375 182.140625 -235.160156 205.515625 -224.015625 L 185.875 -173.53125 C 177.101562 -177.644531 168.332031 -181.109375 159.5625 -183.921875 C 150.800781 -186.734375 141.390625 -188.140625 131.328125 -188.140625 Z M 131.328125 -188.140625 "/></g></g><g transform="translate(1068.936694, 409.254002)"><g><path d="M 228.40625 0 L 156 0 L 109.09375 -90.75 L 90.09375 -79.375 L 90.09375 0 L 25.640625 0 L 25.640625 -237.328125 L 90.09375 -237.328125 L 90.09375 -134.25 C 93.34375 -140.632812 99.890625 -150.753906 109.734375 -164.609375 L 159.578125 -237.328125 L 229.703125 -237.328125 L 154.859375 -131 Z M 228.40625 0 "/></g></g></g><g fill="#737373" fill-opacity="1"><g transform="translate(451.777005, 675.079978)"><g><path d="M 9.90625 -78.6875 L 34.390625 -78.6875 C 44.867188 -78.6875 52.796875 -77.210938 58.171875 -74.265625 C 63.554688 -71.328125 66.25 -66.160156 66.25 -58.765625 C 66.25 -55.785156 65.769531 -53.09375 64.8125 -50.6875 C 63.863281 -48.289062 62.492188 -46.320312 60.703125 -44.78125 C 58.910156 -43.238281 56.722656 -42.234375 54.140625 -41.765625 L 54.140625 -41.21875 C 56.753906 -40.6875 59.117188 -39.765625 61.234375 -38.453125 C 63.359375 -37.140625 65.054688 -35.234375 66.328125 -32.734375 C 67.597656 -30.242188 68.234375 -26.9375 68.234375 -22.8125 C 68.234375 -18.039062 67.066406 -13.953125 64.734375 -10.546875 C 62.410156 -7.140625 59.085938 -4.53125 54.765625 -2.71875 C 50.441406 -0.90625 45.300781 0 39.34375 0 L 9.90625 0 Z M 26.59375 -47.515625 L 36.265625 -47.515625 C 41.109375 -47.515625 44.460938 -48.273438 46.328125 -49.796875 C 48.203125 -51.328125 49.140625 -53.582031 49.140625 -56.5625 C 49.140625 -59.570312 48.035156 -61.734375 45.828125 -63.046875 C 43.617188 -64.359375 40.128906 -65.015625 35.359375 -65.015625 L 26.59375 -65.015625 Z M 26.59375 -34.28125 L 26.59375 -13.78125 L 37.453125 -13.78125 C 42.472656 -13.78125 45.96875 -14.75 47.9375 -16.6875 C 49.914062 -18.625 50.90625 -21.222656 50.90625 -24.484375 C 50.90625 -26.421875 50.472656 -28.125 49.609375 -29.59375 C 48.753906 -31.070312 47.3125 -32.222656 45.28125 -33.046875 C 43.257812 -33.867188 40.472656 -34.28125 36.921875 -34.28125 Z M 26.59375 -34.28125 "/></g></g></g><g fill="#737373" fill-opacity="1"><g transform="translate(525.819726, 675.079978)"><g><path d="M 81.3125 -39.453125 C 81.3125 -33.390625 80.554688 -27.875 79.046875 -22.90625 C 77.546875 -17.9375 75.257812 -13.65625 72.1875 -10.0625 C 69.125 -6.476562 65.242188 -3.722656 60.546875 -1.796875 C 55.847656 0.117188 50.285156 1.078125 43.859375 1.078125 C 37.441406 1.078125 31.878906 0.117188 27.171875 -1.796875 C 22.472656 -3.722656 18.585938 -6.476562 15.515625 -10.0625 C 12.453125 -13.65625 10.164062 -17.941406 8.65625 -22.921875 C 7.15625 -27.910156 6.40625 -33.457031 6.40625 -39.5625 C 6.40625 -47.695312 7.738281 -54.785156 10.40625 -60.828125 C 13.082031 -66.878906 17.203125 -71.570312 22.765625 -74.90625 C 28.328125 -78.25 35.394531 -79.921875 43.96875 -79.921875 C 52.507812 -79.921875 59.53125 -78.25 65.03125 -74.90625 C 70.539062 -71.570312 74.628906 -66.875 77.296875 -60.8125 C 79.972656 -54.75 81.3125 -47.628906 81.3125 -39.453125 Z M 23.890625 -39.453125 C 23.890625 -33.960938 24.578125 -29.234375 25.953125 -25.265625 C 27.335938 -21.304688 29.5 -18.257812 32.4375 -16.125 C 35.382812 -13.988281 39.191406 -12.921875 43.859375 -12.921875 C 48.597656 -12.921875 52.4375 -13.988281 55.375 -16.125 C 58.320312 -18.257812 60.46875 -21.304688 61.8125 -25.265625 C 63.15625 -29.234375 63.828125 -33.960938 63.828125 -39.453125 C 63.828125 -47.703125 62.285156 -54.191406 59.203125 -58.921875 C 56.117188 -63.660156 51.039062 -66.03125 43.96875 -66.03125 C 39.269531 -66.03125 35.4375 -64.960938 32.46875 -62.828125 C 29.507812 -60.691406 27.335938 -57.640625 25.953125 -53.671875 C 24.578125 -49.710938 23.890625 -44.972656 23.890625 -39.453125 Z M 23.890625 -39.453125 "/></g></g></g><g fill="#737373" fill-opacity="1"><g transform="translate(613.530217, 675.079978)"><g><path d="M 106.5625 -78.6875 L 86.53125 0 L 67.546875 0 L 56.890625 -41.328125 C 56.671875 -42.117188 56.378906 -43.320312 56.015625 -44.9375 C 55.660156 -46.550781 55.285156 -48.316406 54.890625 -50.234375 C 54.492188 -52.160156 54.144531 -53.972656 53.84375 -55.671875 C 53.539062 -57.378906 53.332031 -58.734375 53.21875 -59.734375 C 53.113281 -58.734375 52.910156 -57.390625 52.609375 -55.703125 C 52.304688 -54.015625 51.960938 -52.21875 51.578125 -50.3125 C 51.203125 -48.414062 50.832031 -46.640625 50.46875 -44.984375 C 50.113281 -43.335938 49.832031 -42.082031 49.625 -41.21875 L 39.015625 0 L 20.078125 0 L 0 -78.6875 L 16.421875 -78.6875 L 26.484375 -35.734375 C 26.765625 -34.441406 27.09375 -32.898438 27.46875 -31.109375 C 27.84375 -29.316406 28.21875 -27.441406 28.59375 -25.484375 C 28.976562 -23.523438 29.320312 -21.640625 29.625 -19.828125 C 29.925781 -18.015625 30.148438 -16.445312 30.296875 -15.125 C 30.472656 -16.488281 30.703125 -18.078125 30.984375 -19.890625 C 31.273438 -21.703125 31.59375 -23.546875 31.9375 -25.421875 C 32.28125 -27.304688 32.628906 -29.054688 32.984375 -30.671875 C 33.347656 -32.285156 33.671875 -33.597656 33.953125 -34.609375 L 45.421875 -78.6875 L 61.1875 -78.6875 L 72.65625 -34.609375 C 72.90625 -33.640625 73.195312 -32.335938 73.53125 -30.703125 C 73.875 -29.066406 74.222656 -27.296875 74.578125 -25.390625 C 74.941406 -23.492188 75.273438 -21.640625 75.578125 -19.828125 C 75.890625 -18.015625 76.117188 -16.445312 76.265625 -15.125 C 76.515625 -16.914062 76.863281 -19.09375 77.3125 -21.65625 C 77.757812 -24.226562 78.242188 -26.785156 78.765625 -29.328125 C 79.285156 -31.878906 79.742188 -34.015625 80.140625 -35.734375 L 90.140625 -78.6875 Z M 106.5625 -78.6875 "/></g></g></g><g fill="#737373" fill-opacity="1"><g transform="translate(720.074248, 675.079978)"><g><path d="M 9.90625 0 L 9.90625 -78.6875 L 26.59375 -78.6875 L 26.59375 -13.78125 L 58.5 -13.78125 L 58.5 0 Z M 9.90625 0 "/></g></g></g><g fill="#737373" fill-opacity="1"><g transform="translate(782.332554, 675.079978)"><g><path d="M 9.90625 0 L 9.90625 -78.6875 L 26.59375 -78.6875 L 26.59375 0 Z M 9.90625 0 "/></g></g></g><g fill="#737373" fill-opacity="1"><g transform="translate(818.815813, 675.079978)"><g><path d="M 79.703125 0 L 58.5 0 L 24.265625 -59.515625 L 23.78125 -59.515625 C 23.925781 -57.046875 24.050781 -54.554688 24.15625 -52.046875 C 24.269531 -49.535156 24.378906 -47.03125 24.484375 -44.53125 C 24.597656 -42.039062 24.707031 -39.539062 24.8125 -37.03125 L 24.8125 0 L 9.90625 0 L 9.90625 -78.6875 L 30.9375 -78.6875 L 65.125 -19.75 L 65.5 -19.75 C 65.425781 -22.1875 65.332031 -24.609375 65.21875 -27.015625 C 65.113281 -29.421875 65.015625 -31.820312 64.921875 -34.21875 C 64.835938 -36.625 64.757812 -39.03125 64.6875 -41.4375 L 64.6875 -78.6875 L 79.703125 -78.6875 Z M 79.703125 0 "/></g></g></g><g fill="#737373" fill-opacity="1"><g transform="translate(908.409658, 675.079978)"><g><path d="M 39.765625 -44.1875 L 70.984375 -44.1875 L 70.984375 -3.390625 C 66.859375 -2.023438 62.570312 -0.9375 58.125 -0.125 C 53.675781 0.675781 48.632812 1.078125 43 1.078125 C 35.175781 1.078125 28.535156 -0.460938 23.078125 -3.546875 C 17.628906 -6.640625 13.488281 -11.195312 10.65625 -17.21875 C 7.820312 -23.25 6.40625 -30.660156 6.40625 -39.453125 C 6.40625 -47.703125 7.992188 -54.835938 11.171875 -60.859375 C 14.347656 -66.890625 18.992188 -71.554688 25.109375 -74.859375 C 31.222656 -78.160156 38.691406 -79.8125 47.515625 -79.8125 C 51.679688 -79.8125 55.789062 -79.363281 59.84375 -78.46875 C 63.894531 -77.570312 67.570312 -76.40625 70.875 -74.96875 L 65.328125 -61.625 C 62.929688 -62.84375 60.1875 -63.863281 57.09375 -64.6875 C 54.007812 -65.507812 50.78125 -65.921875 47.40625 -65.921875 C 42.5625 -65.921875 38.351562 -64.804688 34.78125 -62.578125 C 31.21875 -60.359375 28.457031 -57.25 26.5 -53.25 C 24.550781 -49.25 23.578125 -44.539062 23.578125 -39.125 C 23.578125 -33.988281 24.273438 -29.4375 25.671875 -25.46875 C 27.066406 -21.507812 29.269531 -18.410156 32.28125 -16.171875 C 35.300781 -13.929688 39.234375 -12.8125 44.078125 -12.8125 C 46.441406 -12.8125 48.441406 -12.925781 50.078125 -13.15625 C 51.710938 -13.394531 53.242188 -13.640625 54.671875 -13.890625 L 54.671875 -30.296875 L 39.765625 -30.296875 Z M 39.765625 -44.1875 "/></g></g></g></svg>